<svg xmlns="http://www.w3.org/2000/svg" version="1.1"><polyline points="285.0,31.0,296.0,40.5,295.5,48.5,294.5,55.0,286.0,64.0,282.0,72.0,284.5,73.0,281.5,81.0,283.5,84.0,276.5,89.5,266.5,94.5,258.5,96.5,265.0,104.5,267.5,108.5,268.5,117.5,275.5,118.5,274.0,127.0,275.0,129.0,272.0,137.0,268.5,141.0,268.5,149.5,268.5,157.0,269.0,164.0,274.0,169.0,274.0,177.0,276.0,185.0,274.5,194.5,273.5,202.5,270.0,210.5,266.0,218.5,260.5,228.5,266.0,227.5,267.5,222.0,275.0,219.0,277.0,216.0" stroke="black" stroke-width="2" fill="none" />
<polyline points="276.0,214.0,284.0,213.0" stroke="black" stroke-width="2" fill="none" />
<polyline points="275.0,219.5,267.0,219.5,259.5,220.0,251.5,220.5,244.0,221.0" stroke="black" stroke-width="2" fill="none" />
<polyline points="248.5,225.5,256.0,224.5,256.5,226.0,264.5,218.5" stroke="black" stroke-width="2" fill="none" />
<polyline points="269.5,227.0,270.5,235.0,271.5,243.0,273.0,250.5,274.0,258.0,275.0,266.0,275.5,274.0,276.5,282.0,277.0,290.0,277.0,298.5,278.0,306.5,278.0,314.0,277.5,322.0,277.5,330.0,277.5,338.0,277.5,346.0,277.5,354.5,277.0,362.5,276.0,370.5,275.5,378.5,275.5,386.5,275.0,394.5,275.0,402.5,274.0,410.5,273.0,418.5,272.0,426.5,272.5,434.5,272.0,442.5,271.0,451.0,270.5,459.0,269.0,467.5,268.5,475.0,267.0,483.0" stroke="black" stroke-width="2" fill="none" />
<polyline points="269.5,479.5,277.5,478.5" stroke="black" stroke-width="2" fill="none" />
<polyline points="276.5,470.0,268.0,470.5" stroke="black" stroke-width="2" fill="none" />
<polyline points="268.5,462.5,277.5,462.5" stroke="black" stroke-width="2" fill="none" />
<polyline points="278.0,438.5,285.5,437.5" stroke="black" stroke-width="2" fill="none" />
<polyline points="284.0,429.5,275.5,429.5" stroke="black" stroke-width="2" fill="none" />
<polyline points="281.0,430.0,289.0,437.0,297.0,436.0" stroke="black" stroke-width="2" fill="none" />
<polyline points="292.5,428.0,295.5,419.0,296.0,421.0,296.0,424.0" stroke="black" stroke-width="2" fill="none" />
<polyline points="292.0,421.0,300.0,418.0" stroke="black" stroke-width="2" fill="none" />
<polyline points="295.5,416.0,291.5,424.0,296.5,420.0,304.0,424.0,300.5,432.0" stroke="black" stroke-width="2" fill="none" />
<polyline points="292.0,437.5,289.0,434.0,288.0,428.0" stroke="black" stroke-width="2" fill="none" />
<polyline points="284.0,420.0,292.0,410.5,300.0,409.5,308.0,413.5,310.5,415.0,313.5,420.5,312.0,428.5" stroke="black" stroke-width="2" fill="none" />
<polyline points="324.5,437.5,332.5,437.0" stroke="black" stroke-width="2" fill="none" />
<polyline points="326.5,442.0,326.5,450.0,327.5,458.0,328.0,465.5" stroke="black" stroke-width="2" fill="none" />
<polyline points="326.0,463.0,334.0,462.5" stroke="black" stroke-width="2" fill="none" />
<polyline points="332.0,469.0,324.0,470.0" stroke="black" stroke-width="2" fill="none" />
<polyline points="323.0,475.5,331.5,475.5" stroke="black" stroke-width="2" fill="none" />
<polyline points="329.5,475.0,329.5,483.0" stroke="black" stroke-width="2" fill="none" />
<polyline points="332.5,510.0,340.5,509.5" stroke="black" stroke-width="2" fill="none" />
<polyline points="338.5,517.0,346.5,517.5,349.0,515.0,357.0,516.0,364.5,516.0,372.5,516.0,381.0,516.5,389.0,516.5,397.0,516.5,405.0,516.5,413.0,516.5,421.5,516.0,429.5,516.0,438.0,515.5,446.5,515.0,454.5,515.0,463.0,515.0,470.5,515.0,478.5,515.0,486.5,515.0,494.5,514.5,502.5,515.0,510.5,515.5" stroke="black" stroke-width="2" fill="none" />
<polyline points="499.0,539.5,489.5,540.0,481.5,540.5,473.5,540.0,465.5,540.0,453.5,541.0,445.5,541.0,437.5,541.5,428.5,541.5,420.5,541.5,410.0,543.5,415.0,540.5,415.5,527.5,418.5,526.0,413.5,520.0,406.0,522.0" stroke="black" stroke-width="2" fill="none" />
<polyline points="407.0,519.5,406.5,527.5,406.5,538.5,409.5,534.0,419.5,536.5,427.0,536.5,435.0,537.5,443.0,536.5,451.0,537.5,458.5,535.5,466.5,536.5,474.5,537.5,482.5,536.5,490.5,537.0,498.5,537.0" stroke="black" stroke-width="2" fill="none" />
<polyline points="507.0,513.5,499.0,513.5,491.0,513.0,483.0,513.0,475.0,513.0,466.5,513.0,458.5,512.5,451.0,512.5,443.0,512.0,435.0,511.5,427.0,511.5,418.5,511.5,410.5,512.0,402.5,512.0,394.5,512.0,386.5,512.0,378.0,511.5,370.0,511.5,361.5,511.5,353.5,512.0,345.5,512.0,337.5,512.0,329.5,511.5,321.5,511.5,313.5,511.5,305.5,512.0,297.5,512.0,289.0,512.0,281.0,512.0,273.0,512.0,265.0,511.5,257.0,511.5,249.0,511.0,241.0,511.5,233.0,511.5,225.0,511.5,217.0,512.0,209.5,512.0,201.5,512.0,193.5,512.5,185.5,512.5,177.0,512.5,169.0,512.5,161.0,512.5,152.5,512.5,145.0,512.5,137.0,512.5,129.0,512.5,121.5,512.5,113.5,512.5,105.5,513.0,98.0,513.0,90.0,513.5,82.0,513.5,74.0,513.5,66.0,513.5,58.5,513.5,51.0,513.0,43.0,512.5,35.0,513.0,27.0,512.5,19.5,512.0,11.5,511.5,4.0,510.5" stroke="black" stroke-width="2" fill="none" />
<polyline points="2.5,514.5,9.5,515.5,9.5,523.5,9.5,531.5,11.5,540.0" stroke="black" stroke-width="2" fill="none" />
<polyline points="10.0,539.5,18.0,543.0,26.5,544.0,34.5,539.5,47.5,535.0,54.5,543.0,62.5,543.0,70.5,543.0,78.0,540.0,81.5,536.5,89.0,536.5,97.0,530.5,105.5,531.0,113.5,531.0" stroke="black" stroke-width="2" fill="none" />
<polyline points="113.5,530.5,106.0,531.0,98.0,531.5,90.0,531.5,82.5,532.0,74.5,532.5,67.5,533.0,60.0,533.0,51.5,532.5,43.5,533.0" stroke="black" stroke-width="2" fill="none" />
<polyline points="50.0,533.0,58.0,536.0,66.0,536.0,74.0,536.0,82.0,533.5" stroke="black" stroke-width="2" fill="none" />
<polyline points="85.0,526.0,77.0,527.0" stroke="black" stroke-width="2" fill="none" />
<polyline points="84.0,525.0,92.0,521.5" stroke="black" stroke-width="2" fill="none" />
<polyline points="90.0,517.0,98.0,516.5" stroke="black" stroke-width="2" fill="none" />
<polyline points="94.0,535.5,102.5,535.5,110.5,532.5" stroke="black" stroke-width="2" fill="none" />
<polyline points="51.5,524.0,43.5,524.5,35.5,525.0,27.5,525.5,19.5,526.5,11.5,527.0" stroke="black" stroke-width="2" fill="none" />
<polyline points="11.0,530.0,19.0,522.0,27.0,514.0" stroke="black" stroke-width="2" fill="none" />
<polyline points="27.0,522.0,35.0,521.0" stroke="black" stroke-width="2" fill="none" />
<polyline points="33.0,524.5,25.0,532.0,17.5,539.0" stroke="black" stroke-width="2" fill="none" />
<polyline points="18.0,541.0,26.0,540.5" stroke="black" stroke-width="2" fill="none" />
<polyline points="27.5,537.5,35.5,530.0" stroke="black" stroke-width="2" fill="none" />
<polyline points="34.5,534.0,26.5,534.0,19.0,534.0,11.0,534.5" stroke="black" stroke-width="2" fill="none" />
<polyline points="10.5,537.0,18.5,530.0,27.0,523.0,35.0,516.0" stroke="black" stroke-width="2" fill="none" />
<polyline points="37.0,515.5,45.0,515.5,53.0,515.5,61.0,515.0,69.0,515.0,76.5,515.0,84.5,515.0,92.5,515.0,100.5,515.0,108.0,514.5,116.0,514.5,124.5,514.5,132.5,514.5,140.5,515.0,148.5,515.0,157.0,515.0,165.0,514.5,173.0,514.0,181.0,514.0,189.0,514.0,197.5,514.0,205.5,514.0,213.5,514.0,221.5,514.0,229.5,514.0,237.5,514.5,245.5,514.5,253.0,515.0,261.0,515.0,269.0,515.0,277.0,515.0,284.5,515.0,292.5,515.0,300.5,515.5,308.5,516.0,316.0,516.0,324.0,516.0,332.0,517.0,342.0,529.0,346.0,529.5" stroke="black" stroke-width="2" fill="none" />
<polyline points="340.0,523.5,347.5,516.5" stroke="black" stroke-width="2" fill="none" />
<polyline points="355.0,517.0,347.5,517.0,339.5,517.5" stroke="black" stroke-width="2" fill="none" />
<polyline points="333.5,454.5,325.0,455.5" stroke="black" stroke-width="2" fill="none" />
<polyline points="325.5,447.0,333.5,446.0" stroke="black" stroke-width="2" fill="none" />
<polyline points="333.0,412.5,340.5,412.5" stroke="black" stroke-width="2" fill="none" />
<polyline points="341.5,402.5,333.5,403.5" stroke="black" stroke-width="2" fill="none" />
<polyline points="333.0,398.5,341.0,397.5" stroke="black" stroke-width="2" fill="none" />
<polyline points="340.0,391.5,332.0,392.5" stroke="black" stroke-width="2" fill="none" />
<polyline points="332.0,384.5,340.0,383.5" stroke="black" stroke-width="2" fill="none" />
<polyline points="341.0,375.0,333.0,376.0" stroke="black" stroke-width="2" fill="none" />
<polyline points="333.5,371.0,334.5,379.0,331.5,384.0,333.0,392.0,332.0,402.0,330.5,407.5,329.5,415.5,331.0,423.5,329.0,425.5,330.0,434.0,328.0,437.0,329.0,445.0,326.5,458.5,326.5,467.5,326.0,476.5,326.5,484.5" stroke="black" stroke-width="2" fill="none" />
<polyline points="389.0,442.0,397.5,434.0,406.5,426.0,413.5,420.0,406.0,427.0,398.0,433.5,390.0,438.0" stroke="black" stroke-width="2" fill="none" />
<polyline points="396.5,438.0,404.5,437.0" stroke="black" stroke-width="2" fill="none" />
<polyline points="403.5,429.0,411.5,428.5" stroke="black" stroke-width="2" fill="none" />
<polyline points="411.5,421.5,419.5,421.5" stroke="black" stroke-width="2" fill="none" />
<polyline points="420.5,414.5,428.5,413.5" stroke="black" stroke-width="2" fill="none" />
<polyline points="434.5,406.0,426.5,406.5,418.0,407.0" stroke="black" stroke-width="2" fill="none" />
<polyline points="434.5,407.0,427.0,416.0,426.0,417.0,434.0,409.0,441.0,400.5" stroke="black" stroke-width="2" fill="none" />
<polyline points="379.5,412.5,371.0,413.0" stroke="black" stroke-width="2" fill="none" />
<polyline points="371.5,405.5,379.0,405.5" stroke="black" stroke-width="2" fill="none" />
<polyline points="378.0,417.5,377.5,425.5,377.5,433.5,377.0,441.5,380.0,450.0,381.0,458.0,381.5,466.0,381.5,473.5,382.5,481.5" stroke="black" stroke-width="2" fill="none" />
<polyline points="411.0,516.5,419.5,516.5" stroke="black" stroke-width="2" fill="none" />
<polyline points="419.5,525.5,411.5,526.0" stroke="black" stroke-width="2" fill="none" />
<polyline points="407.5,528.5,415.5,528.5,420.0,521.5,428.0,521.5,435.5,521.5" stroke="black" stroke-width="2" fill="none" />
<polyline points="438.5,526.0,430.5,526.0,422.5,525.0" stroke="black" stroke-width="2" fill="none" />
<polyline points="419.0,531.5,411.0,532.5,403.5,532.5" stroke="black" stroke-width="2" fill="none" />
<polyline points="377.0,485.5,376.0,477.0,375.0,469.0,375.0,461.0,375.0,453.0,374.0,445.5,373.5,438.0,373.0,430.0,371.5,422.0,371.5,414.0,371.5,406.0,371.0,397.5,371.0,389.5,371.5,381.5,371.0,374.0,371.0,366.0,372.0,358.0,372.0,350.0,372.0,341.5,373.0,333.5,373.5,325.0,374.5,317.5,375.0,309.5,376.0,301.0,377.5,293.5,382.5,289.5,385.5,283.0,377.5,285.5,369.5,288.0,361.5,286.0,359.5,275.0,363.5,267.0,362.5,272.5" stroke="black" stroke-width="2" fill="none" />
<polyline points="349.0,277.0,357.0,276.5,365.0,275.5,373.0,275.5,380.5,275.5,388.0,275.5,395.5,275.0" stroke="black" stroke-width="2" fill="none" />
<polyline points="388.0,292.5,379.5,292.5" stroke="black" stroke-width="2" fill="none" />
<polyline points="382.5,296.0,381.5,304.0,380.5,312.0,381.0,318.0,380.5,326.0,377.5,334.0" stroke="black" stroke-width="2" fill="none" />
<polyline points="379.5,328.5,379.5,336.5,379.5,344.5,379.5,352.5,379.0,361.0,379.0,368.5,378.5,376.5,378.5,385.0,378.0,393.0,378.0,400.5,379.0,408.5,379.0,416.5,379.0,424.5,379.5,432.5,380.5,441.0,378.5,449.0,378.5,457.0,379.0,465.0,380.0,473.5,380.5,482.5" stroke="black" stroke-width="2" fill="none" />
<polyline points="371.5,390.5,379.0,389.5" stroke="black" stroke-width="2" fill="none" />
<polyline points="379.0,381.5,371.5,382.0" stroke="black" stroke-width="2" fill="none" />
<polyline points="372.0,373.5,380.0,373.0" stroke="black" stroke-width="2" fill="none" />
<polyline points="381.0,363.5,373.0,363.5" stroke="black" stroke-width="2" fill="none" />
<polyline points="373.5,356.5,381.5,356.0" stroke="black" stroke-width="2" fill="none" />
<polyline points="381.0,347.0,373.0,348.0" stroke="black" stroke-width="2" fill="none" />
<polyline points="374.0,350.5,374.0,358.5,375.0,367.0,375.0,375.5,375.0,383.5,375.0,391.0,374.5,399.0,375.0,407.0,374.0,415.0,374.5,423.0,374.5,431.0,374.5,439.0,375.5,451.0,376.0,459.0,377.5,467.0,378.0,475.5,378.0,484.0" stroke="black" stroke-width="2" fill="none" />
<polyline points="323.0,484.0,323.0,476.0,324.0,468.0,324.0,460.0,323.5,451.5,324.5,443.5,325.5,435.5,325.5,427.5,327.0,419.5,328.0,411.0,328.5,403.0,330.5,395.0,330.5,387.0,331.5,379.0,334.0,371.0,335.0,363.0,336.0,355.0,336.5,347.0,338.5,339.0,339.5,331.0,340.5,323.0,342.5,315.0,344.5,308.0,346.5,300.5,347.5,292.5,347.5,284.5,344.5,276.5,345.5,265.5,352.0,259.5,347.5,252.5,351.5,244.0,356.5,236.5,356.5,228.5,354.5,220.5,353.5,213.0,361.5,206.0,362.5,201.5,365.5,193.0,372.5,185.0,375.5,177.0,374.5,176.0,375.5,168.0,377.5,160.0,380.5,152.0,382.5,144.0,381.5,148.0,380.5,146.0" stroke="black" stroke-width="2" fill="none" />
<polyline points="373.5,147.5,373.0,155.5,372.0,157.5,372.0,165.5,365.0,171.0,361.0,181.0,357.0,189.0,355.0,200.5,345.0,208.5,356.5,205.5" stroke="black" stroke-width="2" fill="none" />
<polyline points="363.5,206.0,355.5,206.0,347.5,206.5" stroke="black" stroke-width="2" fill="none" />
<polyline points="346.5,216.5,354.5,216.0" stroke="black" stroke-width="2" fill="none" />
<polyline points="346.5,206.0,345.5,206.0,337.0,198.0,337.0,202.5,329.0,209.0,321.0,205.0,313.0,205.0,305.0,198.5" stroke="black" stroke-width="2" fill="none" />
<polyline points="308.0,197.0,300.5,197.5" stroke="black" stroke-width="2" fill="none" />
<polyline points="289.5,190.5,297.5,189.5,306.0,189.0,314.5,188.5,323.5,188.0" stroke="black" stroke-width="2" fill="none" />
<polyline points="333.0,178.5,341.0,171.0,349.0,163.0,357.0,155.0" stroke="black" stroke-width="2" fill="none" />
<polyline points="365.5,150.0,373.5,149.5,381.0,148.5,388.5,147.5,396.0,147.0,403.5,146.0,411.0,145.0" stroke="black" stroke-width="2" fill="none" />
<polyline points="412.5,140.5,420.5,138.5,428.5,144.5,429.0,150.5,437.5,161.5,428.0,163.5,436.0,163.5,444.0,165.5,451.5,171.5" stroke="black" stroke-width="2" fill="none" />
<polyline points="458.5,165.0,466.5,165.0" stroke="black" stroke-width="2" fill="none" />
<polyline points="466.5,159.0,458.0,160.0" stroke="black" stroke-width="2" fill="none" />
<polyline points="443.5,156.5,436.0,156.5" stroke="black" stroke-width="2" fill="none" />
<polyline points="429.0,155.0,421.5,156.0,413.0,156.5,405.0,157.0,397.0,157.5,389.0,158.0" stroke="black" stroke-width="2" fill="none" />
<polyline points="389.0,159.0,397.0,161.5,405.0,160.5,413.0,159.5,427.0,167.5,430.0,176.0,438.5,174.0,441.0,168.0,445.0,173.0,452.0,178.0" stroke="black" stroke-width="2" fill="none" />
<polyline points="458.0,195.0,449.5,195.5,441.0,196.0,433.0,196.5" stroke="black" stroke-width="2" fill="none" />
<polyline points="436.5,201.0,436.5,209.0,435.0,217.0" stroke="black" stroke-width="2" fill="none" />
<polyline points="434.5,222.0,442.0,221.5" stroke="black" stroke-width="2" fill="none" />
<polyline points="445.0,212.0,437.0,212.5,429.0,213.0" stroke="black" stroke-width="2" fill="none" />
<polyline points="419.5,205.0,428.0,205.0,436.5,204.5,444.5,204.5" stroke="black" stroke-width="2" fill="none" />
<polyline points="444.0,199.0,450.0,191.0,459.0,199.0" stroke="black" stroke-width="2" fill="none" />
<polyline points="451.0,188.0,442.5,188.0,434.5,188.5" stroke="black" stroke-width="2" fill="none" />
<polyline points="439.0,192.5,438.5,200.5,438.0,208.5,437.0,216.5" stroke="black" stroke-width="2" fill="none" />
<polyline points="427.0,198.5,418.5,198.5" stroke="black" stroke-width="2" fill="none" />
<polyline points="420.0,198.5,428.5,187.0,432.5,199.0,431.0,206.5" stroke="black" stroke-width="2" fill="none" />
<polyline points="426.5,193.5,432.5,183.5,439.0,189.5,443.0,192.0,451.0,199.5" stroke="black" stroke-width="2" fill="none" />
<polyline points="450.5,180.5,442.0,181.5,433.0,182.0" stroke="black" stroke-width="2" fill="none" />
<polyline points="431.5,177.5,439.5,181.0,447.5,182.0" stroke="black" stroke-width="2" fill="none" />
<polyline points="451.5,170.0,444.0,171.0,436.0,171.0,427.5,171.0,419.5,171.0,411.5,171.0,403.0,171.0" stroke="black" stroke-width="2" fill="none" />
<polyline points="403.0,181.0,410.5,180.5,418.5,180.0,426.5,179.5" stroke="black" stroke-width="2" fill="none" />
<polyline points="431.5,177.0,433.5,185.5,444.0,187.5,443.0,196.0,441.0,204.0,439.5,211.5,438.5,219.5" stroke="black" stroke-width="2" fill="none" />
<polyline points="425.5,187.5,418.0,187.5,410.5,187.5,403.0,188.0" stroke="black" stroke-width="2" fill="none" />
<polyline points="409.5,197.5,401.0,197.5,393.0,197.5" stroke="black" stroke-width="2" fill="none" />
<polyline points="390.5,202.0,398.5,193.0,406.0,172.5" stroke="black" stroke-width="2" fill="none" />
<polyline points="412.0,165.5,420.0,164.5,427.5,164.0,435.5,163.0,444.0,163.0,453.0,162.5" stroke="black" stroke-width="2" fill="none" />
<polyline points="454.0,150.0,445.5,146.0" stroke="black" stroke-width="2" fill="none" />
<polyline points="445.0,142.5,437.0,143.0,429.0,143.5" stroke="black" stroke-width="2" fill="none" />
<polyline points="423.5,144.5,431.5,151.0" stroke="black" stroke-width="2" fill="none" />
<polyline points="434.5,137.5,443.0,129.5,450.5,122.5" stroke="black" stroke-width="2" fill="none" />
<polyline points="452.0,129.5,444.0,137.5" stroke="black" stroke-width="2" fill="none" />
<polyline points="442.5,135.0,434.5,135.5" stroke="black" stroke-width="2" fill="none" />
<polyline points="429.5,130.0,437.5,129.5,445.0,129.0" stroke="black" stroke-width="2" fill="none" />
<polyline points="436.5,122.5,428.5,123.0" stroke="black" stroke-width="2" fill="none" />
<polyline points="426.0,129.0,434.0,122.0,442.0,115.5" stroke="black" stroke-width="2" fill="none" />
<polyline points="434.5,113.5,426.5,121.0,418.5,128.0" stroke="black" stroke-width="2" fill="none" />
<polyline points="419.5,125.5,427.5,125.0,436.0,124.5,444.0,124.5,452.0,124.5,460.0,124.0" stroke="black" stroke-width="2" fill="none" />
<polyline points="465.0,123.5,455.0,131.5" stroke="black" stroke-width="2" fill="none" />
<polyline points="453.0,133.0,444.5,133.0,436.5,133.0,428.5,133.5,420.0,133.5" stroke="black" stroke-width="2" fill="none" />
<polyline points="426.0,136.5,434.0,129.0,442.0,121.5,450.0,114.5" stroke="black" stroke-width="2" fill="none" />
<polyline points="444.0,109.0,436.0,109.5,428.0,110.0" stroke="black" stroke-width="2" fill="none" />
<polyline points="422.5,108.5,422.0,116.5,422.5,130.0,429.5,133.0" stroke="black" stroke-width="2" fill="none" />
<polyline points="419.5,121.0,428.0,114.0,436.0,106.5" stroke="black" stroke-width="2" fill="none" />
<polyline points="431.5,88.5,439.5,83.5,448.0,86.5,456.0,93.5" stroke="black" stroke-width="2" fill="none" />
<polyline points="452.0,88.0,456.5,96.0,450.5,104.0,447.5,111.0,450.0,116.0,457.0,126.0,465.5,122.5,473.5,123.5" stroke="black" stroke-width="2" fill="none" />
<polyline points="474.5,109.0,479.0,117.0,479.0,125.0,479.5,133.5,483.0,141.5,478.0,149.5,480.0,157.5,474.5,165.5" stroke="black" stroke-width="2" fill="none" />
<polyline points="471.0,167.5,463.0,169.0,455.0,163.5,447.0,162.5,436.5,158.5,432.5,160.5,425.0,160.5,418.5,159.0,415.5,164.0,407.5,181.5,410.5,196.5,405.5,202.0,411.5,194.5,409.5,187.0,416.0,182.0,418.0,178.0,418.0,170.0,418.0,159.0,420.0,150.5,415.5,142.5,407.5,134.5,399.5,137.0" stroke="black" stroke-width="2" fill="none" />
<polyline points="404.5,137.5,396.5,138.5,389.0,140.0,381.0,141.5,373.5,142.5,365.0,143.0" stroke="black" stroke-width="2" fill="none" />
<polyline points="360.5,144.5,369.0,139.5,372.0,148.0,368.5,155.0,362.5,159.0" stroke="black" stroke-width="2" fill="none" />
<polyline points="369.5,156.0,378.0,156.0" stroke="black" stroke-width="2" fill="none" />
<polyline points="377.5,165.0,369.5,165.5" stroke="black" stroke-width="2" fill="none" />
<polyline points="365.0,175.0,372.5,174.5,380.0,174.0" stroke="black" stroke-width="2" fill="none" />
<polyline points="371.0,188.5,363.0,189.0" stroke="black" stroke-width="2" fill="none" />
<polyline points="363.5,182.5,372.0,182.0,379.5,182.0" stroke="black" stroke-width="2" fill="none" />
<polyline points="363.0,178.0,355.0,179.0" stroke="black" stroke-width="2" fill="none" />
<polyline points="356.5,177.0,355.0,185.0,346.0,196.5,353.5,194.5,365.0,183.5" stroke="black" stroke-width="2" fill="none" />
<polyline points="348.0,171.0,340.0,178.5" stroke="black" stroke-width="2" fill="none" />
<polyline points="348.0,169.0,340.0,169.0,332.5,169.5,324.5,170.5" stroke="black" stroke-width="2" fill="none" />
<polyline points="323.0,178.0,331.5,169.5,339.0,161.5,346.5,154.0" stroke="black" stroke-width="2" fill="none" />
<polyline points="341.5,151.0,343.5,159.5,341.5,168.0,330.5,178.0,330.5,182.0,337.5,181.0,345.0,175.5,345.0,167.5" stroke="black" stroke-width="2" fill="none" />
<polyline points="344.5,164.5,339.0,172.5,341.0,180.5,343.5,189.0" stroke="black" stroke-width="2" fill="none" />
<polyline points="339.5,197.0,347.5,197.0" stroke="black" stroke-width="2" fill="none" />
<polyline points="342.5,204.0,335.0,208.0,327.0,215.0,319.0,210.5,311.0,210.0,303.0,203.0,295.0,202.0,286.5,200.0,278.5,197.0" stroke="black" stroke-width="2" fill="none" />
<polyline points="277.5,189.0,269.5,189.5" stroke="black" stroke-width="2" fill="none" />
<polyline points="266.0,187.5,257.5,195.5" stroke="black" stroke-width="2" fill="none" />
<polyline points="250.5,195.5,242.5,196.0,235.0,196.5,227.5,197.0,220.0,197.5" stroke="black" stroke-width="2" fill="none" />
<polyline points="218.0,194.5,226.0,194.0,234.0,194.0" stroke="black" stroke-width="2" fill="none" />
<polyline points="234.5,188.5,227.0,196.0" stroke="black" stroke-width="2" fill="none" />
<polyline points="225.0,200.5,221.0,202.5,219.0,210.5,221.5,219.0,219.5,218.0,227.5,215.0,235.0,216.0,242.5,214.5,246.0,223.0,253.5,218.0" stroke="black" stroke-width="2" fill="none" />
<polyline points="268.0,229.0,276.0,229.0" stroke="black" stroke-width="2" fill="none" />
<polyline points="274.5,237.0,282.5,236.5" stroke="black" stroke-width="2" fill="none" />
<polyline points="284.0,245.5,276.0,246.0" stroke="black" stroke-width="2" fill="none" />
<polyline points="276.5,254.0,285.0,253.5" stroke="black" stroke-width="2" fill="none" />
<polyline points="283.5,262.0,275.5,263.0" stroke="black" stroke-width="2" fill="none" />
<polyline points="273.0,271.5,281.5,271.0" stroke="black" stroke-width="2" fill="none" />
<polyline points="281.0,272.5,281.5,280.5,282.5,289.0,282.0,297.0,283.0,305.0,283.0,313.0,286.5,319.0,294.5,311.5,302.5,303.5,308.5,297.0,316.5,289.0" stroke="black" stroke-width="2" fill="none" />
<polyline points="316.5,294.0,308.0,294.5,300.5,295.0" stroke="black" stroke-width="2" fill="none" />
<polyline points="297.5,303.5,289.5,309.0,286.5,310.0,293.0,302.0" stroke="black" stroke-width="2" fill="none" />
<polyline points="299.0,309.0,291.0,309.5,283.5,310.0,275.5,310.0" stroke="black" stroke-width="2" fill="none" />
<polyline points="277.5,317.0,285.5,316.5,293.5,316.0" stroke="black" stroke-width="2" fill="none" />
<polyline points="284.0,326.0,276.0,326.5" stroke="black" stroke-width="2" fill="none" />
<polyline points="272.5,328.0,270.5,323.5,271.5,319.5" stroke="black" stroke-width="2" fill="none" />
<polyline points="273.5,302.5,281.5,301.5" stroke="black" stroke-width="2" fill="none" />
<polyline points="282.0,302.5,282.0,310.5,282.0,318.5,282.0,332.0,281.5,340.0,281.5,348.0,281.5,356.0,281.5,364.5,281.5,373.0,280.5,381.0,280.5,389.0,280.5,397.0,277.0,405.0,276.5,412.5,276.5,420.5,275.5,428.0,274.5,435.5,273.0,443.5,272.0,451.5,272.0,459.5,270.0,467.5,270.0,475.0,268.0,483.0" stroke="black" stroke-width="2" fill="none" />
<polyline points="243.5,476.5,235.5,477.0" stroke="black" stroke-width="2" fill="none" />
<polyline points="237.0,467.5,245.0,467.0" stroke="black" stroke-width="2" fill="none" />
<polyline points="243.5,459.5,235.0,460.0" stroke="black" stroke-width="2" fill="none" />
<polyline points="234.5,445.0,236.0,453.0,239.0,463.0,240.0,471.0,240.0,479.0,240.5,487.0" stroke="black" stroke-width="2" fill="none" />
<polyline points="236.5,439.5,228.5,440.5" stroke="black" stroke-width="2" fill="none" />
<polyline points="228.0,431.5,236.0,431.0" stroke="black" stroke-width="2" fill="none" />
<polyline points="236.5,422.0,228.5,422.0" stroke="black" stroke-width="2" fill="none" />
<polyline points="227.5,413.5,235.5,413.0" stroke="black" stroke-width="2" fill="none" />
<polyline points="235.5,404.5,228.0,405.0" stroke="black" stroke-width="2" fill="none" />
<polyline points="230.5,395.0,238.0,395.0" stroke="black" stroke-width="2" fill="none" />
<polyline points="227.0,394.5,228.0,402.5,228.5,411.0,229.0,416.0,230.0,424.0,232.5,430.5,231.5,438.5,233.5,443.0,232.0,451.0,233.0,459.5,233.5,469.5,235.0,477.5,234.5,485.5" stroke="black" stroke-width="2" fill="none" />
<polyline points="179.0,477.0,171.0,477.5" stroke="black" stroke-width="2" fill="none" />
<polyline points="168.5,470.5,177.0,470.0" stroke="black" stroke-width="2" fill="none" />
<polyline points="177.0,461.0,169.5,461.5" stroke="black" stroke-width="2" fill="none" />
<polyline points="169.5,451.0,177.5,451.0" stroke="black" stroke-width="2" fill="none" />
<polyline points="180.0,436.0,172.5,436.5" stroke="black" stroke-width="2" fill="none" />
<polyline points="173.5,429.5,181.0,429.0" stroke="black" stroke-width="2" fill="none" />
<polyline points="180.0,421.0,171.5,421.5" stroke="black" stroke-width="2" fill="none" />
<polyline points="172.5,414.0,181.0,414.0,189.0,413.5" stroke="black" stroke-width="2" fill="none" />
<polyline points="194.5,404.0,187.0,404.5,179.0,405.0,171.0,405.5" stroke="black" stroke-width="2" fill="none" />
<polyline points="172.0,398.5,179.5,397.5" stroke="black" stroke-width="2" fill="none" />
<polyline points="180.0,390.5,172.0,390.5" stroke="black" stroke-width="2" fill="none" />
<polyline points="177.0,390.0,177.0,398.0,177.0,411.0,180.0,414.0,185.0,402.0,185.5,408.0,197.0,397.0" stroke="black" stroke-width="2" fill="none" />
<polyline points="198.5,397.0,190.5,405.0,182.5,408.5,186.5,408.5,181.5,420.0,193.0,412.0,200.5,404.0" stroke="black" stroke-width="2" fill="none" />
<polyline points="202.0,397.0,200.0,405.5,193.0,413.5" stroke="black" stroke-width="2" fill="none" />
<polyline points="219.5,389.0,227.5,388.5" stroke="black" stroke-width="2" fill="none" />
<polyline points="227.0,380.5,219.0,381.0" stroke="black" stroke-width="2" fill="none" />
<polyline points="218.5,374.5,227.0,374.0" stroke="black" stroke-width="2" fill="none" />
<polyline points="227.0,366.0,218.5,366.5" stroke="black" stroke-width="2" fill="none" />
<polyline points="221.0,359.0,229.0,358.0" stroke="black" stroke-width="2" fill="none" />
<polyline points="218.5,342.5,211.0,343.0" stroke="black" stroke-width="2" fill="none" />
<polyline points="211.5,335.0,219.5,334.5" stroke="black" stroke-width="2" fill="none" />
<polyline points="219.5,325.0,212.0,325.0" stroke="black" stroke-width="2" fill="none" />
<polyline points="211.0,316.0,219.0,315.0" stroke="black" stroke-width="2" fill="none" />
<polyline points="219.5,308.5,211.5,308.5" stroke="black" stroke-width="2" fill="none" />
<polyline points="210.5,285.0,203.0,285.5" stroke="black" stroke-width="2" fill="none" />
<polyline points="203.0,284.0,210.5,276.5,218.5,269.0" stroke="black" stroke-width="2" fill="none" />
<polyline points="218.5,273.0,211.0,273.5,203.5,274.0,196.0,274.5,188.0,275.5,180.5,276.0" stroke="black" stroke-width="2" fill="none" />
<polyline points="172.5,277.0,180.5,277.5,186.0,289.5,184.5,297.5,184.5,305.5,181.5,313.0,183.5,318.0,182.0,326.0,182.0,334.0,179.5,342.5,179.0,350.5,177.5,355.0,178.5,363.5,178.5,371.5,176.5,376.5,177.5,384.5,175.5,390.0,175.5,398.5,175.5,407.0,175.0,415.0,176.0,423.0,179.5,424.0,179.0,428.0,178.0,436.0,178.0,444.0,179.0,452.0,179.0,459.5,179.0,467.0,179.0,474.5,179.0,482.5,179.0,488.5" stroke="black" stroke-width="2" fill="none" />
<polyline points="163.0,436.0,155.0,436.0" stroke="black" stroke-width="2" fill="none" />
<polyline points="153.5,438.0,161.5,433.0,169.5,428.0,173.5,434.5,173.5,442.0,173.5,449.5,173.5,457.5,173.0,465.5,174.0,473.5,174.5,481.0" stroke="black" stroke-width="2" fill="none" />
<polyline points="171.5,382.0,180.0,381.5" stroke="black" stroke-width="2" fill="none" />
<polyline points="181.5,334.5,189.5,334.0" stroke="black" stroke-width="2" fill="none" />
<polyline points="188.5,324.0,180.0,324.0" stroke="black" stroke-width="2" fill="none" />
<polyline points="180.0,315.5,188.5,315.5" stroke="black" stroke-width="2" fill="none" />
<polyline points="188.5,300.5,180.5,301.0" stroke="black" stroke-width="2" fill="none" />
<polyline points="183.5,297.0,191.5,301.5,186.5,308.5" stroke="black" stroke-width="2" fill="none" />
<polyline points="187.0,309.0,178.5,310.0,170.5,310.0" stroke="black" stroke-width="2" fill="none" />
<polyline points="172.5,312.0,164.5,308.0" stroke="black" stroke-width="2" fill="none" />
<polyline points="162.0,302.5,170.0,291.5,172.5,296.0,167.5,304.0,169.5,312.0,171.0,316.5" stroke="black" stroke-width="2" fill="none" />
<polyline points="181.5,312.5,174.5,307.5,182.5,300.0,174.5,305.0" stroke="black" stroke-width="2" fill="none" />
<polyline points="172.0,300.5,172.5,303.5,175.5,311.5,178.5,312.0,175.5,319.5,177.5,327.0,176.0,335.5,176.0,343.5,175.0,352.0,175.0,359.5,174.0,367.5,174.0,375.5,173.0,384.0,172.5,392.0,172.5,399.5,171.0,407.5,171.0,415.5,171.5,423.5,161.5,431.5,153.5,438.0,153.5,446.0,158.5,447.0,167.0,435.0,170.0,435.0,176.5,439.0,176.5,447.0,176.5,455.0,177.5,463.0,177.5,471.0,177.5,479.0" stroke="black" stroke-width="2" fill="none" />
<polyline points="130.0,395.5,122.0,396.0" stroke="black" stroke-width="2" fill="none" />
<polyline points="122.5,390.0,130.5,389.0" stroke="black" stroke-width="2" fill="none" />
<polyline points="130.0,380.0,122.0,380.5" stroke="black" stroke-width="2" fill="none" />
<polyline points="125.5,373.0,133.5,372.5" stroke="black" stroke-width="2" fill="none" />
<polyline points="132.0,365.0,124.0,366.0" stroke="black" stroke-width="2" fill="none" />
<polyline points="122.0,369.0,121.5,377.0,122.0,385.0,121.0,392.5,121.5,400.5,120.5,408.5,121.0,416.5,121.5,424.5,121.5,433.0,121.5,441.0,120.5,449.0,120.0,457.0,120.0,465.0,120.0,473.5,120.0,481.5,121.5,489.5" stroke="black" stroke-width="2" fill="none" />
<polyline points="76.5,422.5,68.5,423.0" stroke="black" stroke-width="2" fill="none" />
<polyline points="74.0,419.0,66.0,414.0,58.0,412.0" stroke="black" stroke-width="2" fill="none" />
<polyline points="58.0,410.5,51.0,418.5,50.0,426.5,55.5,426.5,61.5,421.5,65.5,420.5" stroke="black" stroke-width="2" fill="none" />
<polyline points="62.5,414.5,72.0,422.5,71.0,430.5" stroke="black" stroke-width="2" fill="none" />
<polyline points="66.0,430.0,66.0,430.0,57.5,434.0,49.5,424.5" stroke="black" stroke-width="2" fill="none" />
<polyline points="50.0,423.0,58.0,414.0,47.0,416.0,46.0,424.0,46.5,432.0" stroke="black" stroke-width="2" fill="none" />
<polyline points="46.0,430.0,53.5,438.0" stroke="black" stroke-width="2" fill="none" />
<polyline points="48.5,427.0,56.0,435.0,64.0,436.0,71.5,433.0" stroke="black" stroke-width="2" fill="none" />
<polyline points="70.0,428.5,69.0,420.5,65.5,411.5,57.5,411.5,49.0,415.5" stroke="black" stroke-width="2" fill="none" />
<polyline points="50.5,414.5,47.0,422.5,49.0,430.0" stroke="black" stroke-width="2" fill="none" />
<polyline points="45.0,419.0,53.0,410.0,61.5,408.5,69.5,409.5,77.0,418.5,77.5,426.5" stroke="black" stroke-width="2" fill="none" />
<polyline points="123.0,358.0,131.0,358.0" stroke="black" stroke-width="2" fill="none" />
<polyline points="131.5,351.0,123.5,351.5" stroke="black" stroke-width="2" fill="none" />
<polyline points="124.0,342.5,131.5,342.0" stroke="black" stroke-width="2" fill="none" />
<polyline points="132.5,333.5,124.5,333.5" stroke="black" stroke-width="2" fill="none" />
<polyline points="123.0,326.5,131.5,326.0" stroke="black" stroke-width="2" fill="none" />
<polyline points="132.0,318.5,124.0,319.0" stroke="black" stroke-width="2" fill="none" />
<polyline points="124.0,309.0,132.5,308.0" stroke="black" stroke-width="2" fill="none" />
<polyline points="132.5,299.5,140.0,291.5" stroke="black" stroke-width="2" fill="none" />
<polyline points="140.5,298.0,132.0,299.0,124.0,299.0,116.0,299.5,108.0,299.5,100.0,300.0,93.5,300.5,85.5,301.0" stroke="black" stroke-width="2" fill="none" />
<polyline points="83.0,293.0,91.0,292.5,99.0,292.0,106.5,291.0,115.0,291.0,123.0,290.5,130.5,290.0,138.0,289.0,146.0,288.0" stroke="black" stroke-width="2" fill="none" />
<polyline points="150.5,290.5,153.0,282.5,153.0,268.5,147.0,274.5" stroke="black" stroke-width="2" fill="none" />
<polyline points="156.0,276.5,148.0,277.0,140.0,278.0,132.0,279.0" stroke="black" stroke-width="2" fill="none" />
<polyline points="131.5,286.0,139.5,285.5,147.5,284.5,155.5,284.0" stroke="black" stroke-width="2" fill="none" />
<polyline points="167.0,277.0,175.5,275.5,177.5,273.5,186.0,267.5,191.0,280.5" stroke="black" stroke-width="2" fill="none" />
<polyline points="188.5,286.0,181.0,286.5" stroke="black" stroke-width="2" fill="none" />
<polyline points="185.5,283.5,194.0,285.5,202.0,283.0" stroke="black" stroke-width="2" fill="none" />
<polyline points="215.0,278.5,223.0,278.5,231.0,276.5" stroke="black" stroke-width="2" fill="none" />
<polyline points="243.0,266.5,235.0,267.0,227.5,268.0,219.5,268.0,211.0,267.0,203.5,267.0,195.5,267.5,187.5,268.0,180.0,268.5,172.5,269.5,164.5,270.5" stroke="black" stroke-width="2" fill="none" />
<polyline points="164.0,270.5,165.0,267.5,173.5,268.5,180.5,276.0,184.5,274.0,192.5,275.5,200.5,277.5" stroke="black" stroke-width="2" fill="none" />
<polyline points="186.5,293.5,188.5,292.5,191.5,295.0,192.0,303.0,194.0,304.5,192.0,312.5" stroke="black" stroke-width="2" fill="none" />
<polyline points="186.5,295.0,179.0,295.5" stroke="black" stroke-width="2" fill="none" />
<polyline points="170.5,299.5,178.5,295.5,191.0,303.5,190.0,311.0" stroke="black" stroke-width="2" fill="none" />
<polyline points="165.0,300.5,172.5,292.5,174.5,300.0,165.5,300.0,164.5,308.0,169.5,316.0,178.5,321.5,180.0,329.5,178.5,333.5,182.0,343.0,182.0,351.0,182.0,358.5,181.5,366.5,181.5,374.0,181.5,382.0,180.5,390.0,180.0,397.0,180.0,404.5,179.5,412.5,174.5,426.0,170.5,434.0,172.5,438.0,172.0,446.5,172.0,455.0,172.0,463.0,172.0,471.5,172.0,479.5,172.0,487.5" stroke="black" stroke-width="2" fill="none" />
<polyline points="273.0,421.5,281.5,421.0" stroke="black" stroke-width="2" fill="none" />
<polyline points="283.0,415.5,291.0,409.5,299.0,408.5,307.0,411.5" stroke="black" stroke-width="2" fill="none" />
<polyline points="304.0,409.5,307.0,417.0,309.5,425.0" stroke="black" stroke-width="2" fill="none" />
<polyline points="306.0,428.5,306.0,421.0,304.0,414.0,296.0,412.0,288.0,417.0" stroke="black" stroke-width="2" fill="none" />
<polyline points="290.5,411.5,283.5,419.0,283.5,427.0,292.0,435.0,297.5,437.5,305.5,434.5" stroke="black" stroke-width="2" fill="none" />
<polyline points="302.0,430.0,294.0,433.5,288.0,430.0,286.5,422.0,291.0,414.0,294.0,408.0" stroke="black" stroke-width="2" fill="none" />
<polyline points="281.5,414.0,273.5,414.0" stroke="black" stroke-width="2" fill="none" />
<polyline points="275.0,404.0,283.0,404.0" stroke="black" stroke-width="2" fill="none" />
<polyline points="283.5,396.0,275.5,397.0" stroke="black" stroke-width="2" fill="none" />
<polyline points="277.0,388.5,284.5,387.5" stroke="black" stroke-width="2" fill="none" />
<polyline points="285.5,379.0,277.5,379.5" stroke="black" stroke-width="2" fill="none" />
<polyline points="275.0,372.5,283.5,372.0" stroke="black" stroke-width="2" fill="none" />
<polyline points="284.0,365.5,276.5,366.5" stroke="black" stroke-width="2" fill="none" />
<polyline points="274.0,359.0,282.5,358.5" stroke="black" stroke-width="2" fill="none" />
<polyline points="332.0,367.5,340.0,367.0" stroke="black" stroke-width="2" fill="none" />
<polyline points="338.5,350.5,347.0,350.5" stroke="black" stroke-width="2" fill="none" />
<polyline points="345.5,341.0,337.5,341.5" stroke="black" stroke-width="2" fill="none" />
<polyline points="338.5,332.5,346.5,332.0" stroke="black" stroke-width="2" fill="none" />
<polyline points="346.5,324.0,338.5,325.0" stroke="black" stroke-width="2" fill="none" />
<polyline points="348.5,309.5,356.5,309.0" stroke="black" stroke-width="2" fill="none" />
<polyline points="356.0,300.0,347.5,301.0" stroke="black" stroke-width="2" fill="none" />
<polyline points="348.0,291.5,356.0,291.5" stroke="black" stroke-width="2" fill="none" />
<polyline points="348.5,285.0,356.5,284.5,365.0,284.0,373.0,283.0,380.5,282.5,388.0,282.0,396.0,282.0" stroke="black" stroke-width="2" fill="none" />
<polyline points="410.5,292.5,418.0,292.5,424.5,294.0,428.5,300.5,430.0,306.5,427.0,314.5" stroke="black" stroke-width="2" fill="none" />
<polyline points="423.0,311.0,421.5,303.0,423.5,298.5,411.5,304.5" stroke="black" stroke-width="2" fill="none" />
<polyline points="407.5,302.0,415.5,297.5,419.0,302.0,421.0,310.0" stroke="black" stroke-width="2" fill="none" />
<polyline points="421.5,296.5,413.5,295.5,405.5,299.5" stroke="black" stroke-width="2" fill="none" />
<polyline points="407.5,297.5,404.0,305.5,406.0,313.5,409.5,315.5,417.5,313.5" stroke="black" stroke-width="2" fill="none" />
<polyline points="413.5,317.0,405.5,315.5,402.0,315.5,398.5,307.5,399.5,300.0,407.5,292.0,400.5,303.0" stroke="black" stroke-width="2" fill="none" />
<polyline points="398.5,300.5,406.5,293.0,415.0,291.0,423.0,293.0,431.0,305.0" stroke="black" stroke-width="2" fill="none" />
<polyline points="420.5,305.0,412.5,302.0,410.5,309.0,408.0,307.0,413.0,299.0" stroke="black" stroke-width="2" fill="none" />
<polyline points="410.0,293.5,402.5,301.5,401.5,309.5,408.5,317.5,411.5,321.0,420.0,319.0" stroke="black" stroke-width="2" fill="none" />
<polyline points="388.0,300.5,380.5,301.0" stroke="black" stroke-width="2" fill="none" />
<polyline points="381.0,339.5,373.5,339.5" stroke="black" stroke-width="2" fill="none" />
<polyline points="371.5,261.0,379.5,260.0,388.0,259.5" stroke="black" stroke-width="2" fill="none" />
<polyline points="386.5,265.5,379.5,267.0,372.0,268.0,364.0,268.5,356.0,269.5,348.0,270.0,340.5,271.0,332.5,271.0" stroke="black" stroke-width="2" fill="none" />
<polyline points="333.0,270.5,341.0,272.5" stroke="black" stroke-width="2" fill="none" />
<polyline points="348.5,273.5,340.5,266.5,333.5,262.0,332.5,254.0,336.5,249.0,331.5,241.0,332.5,233.5,337.5,225.5,336.5,227.0" stroke="black" stroke-width="2" fill="none" />
<polyline points="342.5,222.0,342.0,230.0,338.0,239.0,334.0,248.5,333.5,252.5,342.0,261.5,352.0,270.5,365.0,266.5,370.0,260.5" stroke="black" stroke-width="2" fill="none" />
<polyline points="372.0,259.5,367.0,267.5,368.0,275.0,362.5,277.5,363.0,277.5,371.0,274.0,379.0,271.0" stroke="black" stroke-width="2" fill="none" />
<polyline points="357.0,260.5,349.0,261.0,341.0,261.5,333.0,261.5,325.0,262.0" stroke="black" stroke-width="2" fill="none" />
<polyline points="324.5,253.5,332.5,253.0" stroke="black" stroke-width="2" fill="none" />
<polyline points="338.5,252.0,346.5,252.0,354.0,252.0" stroke="black" stroke-width="2" fill="none" />
<polyline points="350.5,259.5,353.0,267.5" stroke="black" stroke-width="2" fill="none" />
<polyline points="347.5,238.0,355.5,238.0,363.5,237.0" stroke="black" stroke-width="2" fill="none" />
<polyline points="386.5,230.5,395.0,230.0" stroke="black" stroke-width="2" fill="none" />
<polyline points="396.5,236.0,388.5,237.0" stroke="black" stroke-width="2" fill="none" />
<polyline points="386.5,222.5,394.5,222.5" stroke="black" stroke-width="2" fill="none" />
<polyline points="395.0,214.5,403.0,214.0" stroke="black" stroke-width="2" fill="none" />
<polyline points="403.5,206.5,395.5,207.0" stroke="black" stroke-width="2" fill="none" />
<polyline points="423.5,208.5,421.0,203.5,423.5,195.5,422.5,190.5,418.0,186.5,412.0,191.0,411.0,183.5,410.5,184.5,414.5,177.5" stroke="black" stroke-width="2" fill="none" />
<polyline points="427.0,169.5,434.5,170.5,442.5,170.0" stroke="black" stroke-width="2" fill="none" />
<polyline points="434.0,175.0,442.0,178.0,446.0,187.0,454.0,194.0" stroke="black" stroke-width="2" fill="none" />
<polyline points="461.5,168.0,458.5,161.0,458.5,157.0,461.5,148.5,451.0,143.0,443.0,142.0,443.5,142.0" stroke="black" stroke-width="2" fill="none" />
<polyline points="450.0,143.0,458.0,146.5,465.5,153.5,473.5,148.0" stroke="black" stroke-width="2" fill="none" />
<polyline points="474.5,148.5,482.5,147.5" stroke="black" stroke-width="2" fill="none" />
<polyline points="474.0,154.5,474.0,162.0" stroke="black" stroke-width="2" fill="none" />
<polyline points="452.5,116.0,444.5,117.0,436.5,117.5,428.5,118.5,421.0,119.0" stroke="black" stroke-width="2" fill="none" />
<polyline points="402.5,126.0,394.5,126.5" stroke="black" stroke-width="2" fill="none" />
<polyline points="395.0,120.0,403.0,119.0" stroke="black" stroke-width="2" fill="none" />
<polyline points="396.0,117.5,404.0,111.5,412.0,115.0,420.0,119.0,427.5,116.0" stroke="black" stroke-width="2" fill="none" />
<polyline points="436.0,112.5,427.0,112.5,435.5,116.5,433.5,104.5,433.0,97.0,429.0,89.0" stroke="black" stroke-width="2" fill="none" />
<polyline points="428.0,85.5,435.5,85.0" stroke="black" stroke-width="2" fill="none" />
<polyline points="426.5,87.0,418.0,87.5,409.5,90.5" stroke="black" stroke-width="2" fill="none" />
<polyline points="412.0,93.0,403.5,93.5,395.5,94.0" stroke="black" stroke-width="2" fill="none" />
<polyline points="395.5,98.5,392.5,106.5,394.0,108.5,402.5,107.5,413.5,109.5,421.5,109.5,426.0,106.0,434.0,108.0,439.0,116.0,447.5,108.0,455.5,99.5,458.5,102.0,466.0,108.0,474.0,113.0" stroke="black" stroke-width="2" fill="none" />
<polyline points="455.0,101.0,452.0,109.0,449.0,116.5,444.5,125.5,442.5,133.5,433.5,141.0,427.5,142.5,436.0,151.5,444.0,158.0,452.0,159.0,459.0,160.0,469.0,153.0,478.5,147.5" stroke="black" stroke-width="2" fill="none" />
<polyline points="451.5,182.5,443.5,174.5,447.5,169.5,444.0,160.5,437.0,153.0,436.5,145.5,430.5,140.0,420.0,139.0,418.0,128.5,415.0,120.5,410.0,112.5,413.0,109.5,407.5,101.5,411.5,93.5,402.5,80.5,399.5,72.5,399.5,64.0,406.5,56.0,401.0,66.0" stroke="black" stroke-width="2" fill="none" />
<polyline points="399.0,64.0,407.0,56.0,415.5,54.0,423.5,56.5,431.5,68.5,431.5,70.5,428.5,79.0" stroke="black" stroke-width="2" fill="none" />
<polyline points="422.0,72.5,424.0,68.5,416.0,64.0,408.0,65.0" stroke="black" stroke-width="2" fill="none" />
<polyline points="405.5,63.0,413.0,59.0,414.0,57.5,425.5,65.5,425.5,73.5" stroke="black" stroke-width="2" fill="none" />
<polyline points="425.0,59.0,417.0,56.0,409.0,58.0" stroke="black" stroke-width="2" fill="none" />
<polyline points="409.0,57.0,402.0,65.0,401.5,73.5,409.0,81.5,408.5,82.0,416.5,82.0,425.0,85.0,433.0,82.0,441.0,78.0,449.0,84.0,456.5,89.0,465.0,104.0,473.5,108.0" stroke="black" stroke-width="2" fill="none" />
<polyline points="451.5,84.0,459.5,92.0,462.5,100.0,465.5,108.0,474.0,108.0,475.0,116.0,477.0,124.0,470.0,125.0,475.0,133.0,477.0,141.5,471.5,148.5,464.0,153.5,464.0,162.5,467.0,163.5,477.0,159.0" stroke="black" stroke-width="2" fill="none" />
<polyline points="433.5,154.5,425.5,154.5,414.5,154.0,406.0,146.5,400.5,143.5,393.0,133.5,390.0,135.5" stroke="black" stroke-width="2" fill="none" />
<polyline points="379.0,132.5,371.0,140.0" stroke="black" stroke-width="2" fill="none" />
<polyline points="372.0,138.5,380.0,133.0,381.0,131.5,388.0,139.5,393.5,146.5,390.5,161.0,394.0,157.0,402.0,155.5" stroke="black" stroke-width="2" fill="none" />
<polyline points="399.5,151.5,391.5,152.5,383.5,152.5,375.5,151.0,367.5,151.5,359.5,159.5,353.0,165.5,343.0,163.5,334.5,172.5,326.5,175.0,325.0,181.0,317.0,171.5,312.0,160.0,312.5,152.5,320.5,147.0,331.5,141.0,337.0,137.5,333.0,130.0,328.0,124.5,335.5,122.5,333.5,116.5,329.5,113.5,332.5,104.5,338.0,104.5,339.5,96.5,345.5,88.5,345.0,81.0,338.0,69.0,330.0,59.0,332.0,51.0,320.0,51.5,312.0,58.5,310.0,62.0" stroke="black" stroke-width="2" fill="none" />
<polyline points="308.5,59.0,300.5,66.5,292.0,75.0,284.0,83.0" stroke="black" stroke-width="2" fill="none" />
<polyline points="286.0,81.0,293.5,80.5,301.0,80.0,308.5,79.5" stroke="black" stroke-width="2" fill="none" />
<polyline points="314.0,74.5,306.0,82.0,298.0,90.0" stroke="black" stroke-width="2" fill="none" />
<polyline points="297.5,95.0,297.5,103.5,297.0,111.5,299.0,119.5,302.0,129.5,302.0,137.5,304.0,145.5,302.0,149.5,298.5,154.0,292.5,162.0,291.5,170.5,291.5,177.0,304.5,186.0,297.5,194.0,301.5,202.0" stroke="black" stroke-width="2" fill="none" />
<polyline points="294.0,187.0,289.0,193.0,293.5,186.5,289.5,184.5" stroke="black" stroke-width="2" fill="none" />
<polyline points="285.5,179.5,286.5,188.0,291.5,196.5" stroke="black" stroke-width="2" fill="none" />
<polyline points="279.0,188.5,279.0,196.5,282.0,204.0,279.0,214.0,282.5,218.0,281.5,218.5" stroke="black" stroke-width="2" fill="none" />
<polyline points="259.0,217.5,262.0,210.0,269.0,202.0,267.5,194.5" stroke="black" stroke-width="2" fill="none" />
<polyline points="266.0,193.5,258.0,199.0,250.0,205.5,255.5,200.5,265.5,192.5" stroke="black" stroke-width="2" fill="none" />
<polyline points="269.0,183.0,277.0,182.5,285.5,182.0,293.5,182.0,301.5,181.5,309.0,180.5,317.0,180.0" stroke="black" stroke-width="2" fill="none" />
<polyline points="314.5,172.5,322.5,172.0,330.5,172.5,338.0,172.0,346.5,171.5" stroke="black" stroke-width="2" fill="none" />
<polyline points="324.5,169.5,332.0,162.0,340.0,154.0,347.5,146.5" stroke="black" stroke-width="2" fill="none" />
<polyline points="340.0,146.0,332.5,154.0,324.5,162.0,316.5,169.0" stroke="black" stroke-width="2" fill="none" />
<polyline points="316.0,163.0,324.0,156.0,332.0,148.5" stroke="black" stroke-width="2" fill="none" />
<polyline points="332.0,143.5,339.5,143.0,347.0,142.0" stroke="black" stroke-width="2" fill="none" />
<polyline points="354.0,147.0,346.0,147.0,338.0,147.0,330.0,147.5,321.5,147.5,314.0,148.5" stroke="black" stroke-width="2" fill="none" />
<polyline points="309.5,140.0,321.5,151.0,329.5,148.0" stroke="black" stroke-width="2" fill="none" />
<polyline points="324.0,161.5,332.5,161.5,340.0,161.0,348.0,160.5" stroke="black" stroke-width="2" fill="none" />
<polyline points="357.5,162.0,349.5,162.0,341.0,162.0,333.0,162.0,324.5,162.5,316.5,163.5,308.5,164.5" stroke="black" stroke-width="2" fill="none" />
<polyline points="309.0,165.5,317.0,168.5" stroke="black" stroke-width="2" fill="none" />
<polyline points="307.5,156.5,315.5,156.0,323.5,156.0,332.0,155.5,340.0,155.0,348.5,154.5,356.5,154.0" stroke="black" stroke-width="2" fill="none" />
<polyline points="345.5,144.5,342.0,141.0,340.5,133.0,335.5,127.0,327.5,125.0,319.0,126.5,311.0,134.0" stroke="black" stroke-width="2" fill="none" />
<polyline points="309.0,131.5,317.0,123.5,325.0,122.5,336.5,121.0,344.0,122.0,347.0,126.5,353.0,130.0,361.0,130.5,368.0,133.0,373.5,134.0,376.5,139.5,377.5,146.0,380.0,139.0,388.0,143.0,396.0,148.0,399.5,151.5" stroke="black" stroke-width="2" fill="none" />
<polyline points="405.0,134.5,412.0,142.5,415.0,150.5,423.0,154.5,427.5,168.5,422.5,174.5,427.0,177.0,430.0,184.5,427.5,192.0,426.0,200.0,427.0,208.0,429.5,213.5,431.5,221.5,434.0,224.5" stroke="black" stroke-width="2" fill="none" />
<polyline points="428.5,212.0,421.5,210.5,420.0,205.5,418.0,197.0,421.5,189.5,418.5,186.5,424.0,180.0,421.5,171.0,422.0,162.5" stroke="black" stroke-width="2" fill="none" />
<polyline points="402.0,130.0,394.0,130.5,386.5,131.0,378.5,131.5,370.5,132.5" stroke="black" stroke-width="2" fill="none" />
<polyline points="366.5,131.5,368.5,139.5,363.5,147.5,362.5,155.0,352.0,156.0,358.0,163.5,366.0,164.0,372.0,168.0" stroke="black" stroke-width="2" fill="none" />
<polyline points="363.5,162.0,356.0,160.0,352.0,150.5,341.5,154.5,336.5,152.0,332.0,141.5,324.0,143.5,316.0,146.5,307.0,150.5,293.0,142.0,285.0,143.0,291.0,136.5,289.5,126.0,286.5,129.0" stroke="black" stroke-width="2" fill="none" />
<polyline points="287.0,127.5,295.5,126.5" stroke="black" stroke-width="2" fill="none" />
<polyline points="290.5,122.5,282.5,129.5" stroke="black" stroke-width="2" fill="none" />
<polyline points="281.5,138.0,289.5,140.0" stroke="black" stroke-width="2" fill="none" />
<polyline points="284.5,142.5,292.5,141.5,300.0,141.0" stroke="black" stroke-width="2" fill="none" />
<polyline points="299.5,132.0,291.5,133.0,284.0,133.5,276.5,133.5,268.5,133.5" stroke="black" stroke-width="2" fill="none" />
<polyline points="266.0,132.0,274.0,125.5" stroke="black" stroke-width="2" fill="none" />
<polyline points="273.0,123.0,280.5,117.0,292.0,121.0,300.0,121.0,304.5,119.0,312.5,118.0,320.5,118.0" stroke="black" stroke-width="2" fill="none" />
<polyline points="322.0,115.5,330.5,115.5,338.5,115.5" stroke="black" stroke-width="2" fill="none" />
<polyline points="339.0,125.5,331.0,125.5" stroke="black" stroke-width="2" fill="none" />
<polyline points="316.5,124.0,309.0,132.0,310.0,139.5,312.0,147.0,311.5,157.0,311.0,160.0,311.0,167.5,313.0,175.5,320.0,180.5,311.5,186.5,312.5,189.0,308.0,197.0,302.0,193.5,309.5,201.5" stroke="black" stroke-width="2" fill="none" />
<polyline points="309.0,224.0,317.0,225.0,325.0,230.0,333.0,234.5,343.0,235.0,342.0,243.5,342.0,257.5,355.0,253.5,357.5,256.0,356.5,264.0,360.0,267.0,355.5,275.0,353.5,283.0,353.5,291.5,361.5,290.5,361.5,283.5,369.5,283.5,373.0,279.5,381.0,280.5,389.0,279.5,397.0,280.5" stroke="black" stroke-width="2" fill="none" />
<polyline points="363.5,243.5,355.5,244.0,347.5,244.5,339.0,244.5,330.5,244.5,322.5,245.0,314.5,245.5" stroke="black" stroke-width="2" fill="none" />
<polyline points="313.0,246.5,321.0,249.5,318.0,252.5,326.0,256.5,328.5,254.5,336.0,263.0" stroke="black" stroke-width="2" fill="none" />
<polyline points="323.5,282.0,316.0,282.5,307.5,283.0" stroke="black" stroke-width="2" fill="none" />
<polyline points="300.5,285.5,304.5,293.5,306.5,291.5" stroke="black" stroke-width="2" fill="none" />
<polyline points="300.0,285.5,308.0,285.5,316.5,278.5,315.5,281.5,306.5,287.0,298.5,297.5,301.5,300.5,299.0,308.5,292.0,317.0,284.0,325.0,285.0,333.0,285.0,341.0,284.5,349.0,284.5,356.5,284.0,364.5,284.0,372.5,284.0,380.5,283.0,389.0,283.5,397.0,282.5,405.0,282.0,413.0,281.0,421.0,281.0,428.5,279.5,436.5,278.0,444.5,277.0,452.5,276.0,460.0,275.0,468.0,274.5,475.5,273.5,483.5" stroke="black" stroke-width="2" fill="none" />
<polyline points="275.5,292.5,284.0,292.0" stroke="black" stroke-width="2" fill="none" />
<polyline points="285.0,285.0,277.5,285.5" stroke="black" stroke-width="2" fill="none" />
<polyline points="275.5,278.5,283.5,278.0" stroke="black" stroke-width="2" fill="none" />
<polyline points="261.5,252.0,253.0,252.0,244.5,252.5,236.5,253.0,228.0,253.5,219.5,254.0" stroke="black" stroke-width="2" fill="none" />
<polyline points="223.0,250.0,216.0,258.5,219.0,266.5,227.0,260.5" stroke="black" stroke-width="2" fill="none" />
<polyline points="225.5,257.0,220.5,264.5,223.5,272.5,232.0,268.0,236.0,261.0,246.0,263.0,254.0,265.0" stroke="black" stroke-width="2" fill="none" />
<polyline points="252.0,260.5,260.0,261.5" stroke="black" stroke-width="2" fill="none" />
<polyline points="260.0,255.5,252.0,256.0,244.0,256.5,236.0,257.0,227.5,258.0,219.5,259.0,211.0,259.5,203.5,260.0,195.5,260.5,187.5,261.5,180.0,262.0" stroke="black" stroke-width="2" fill="none" />
<polyline points="178.5,255.5,187.0,255.0,195.0,255.0" stroke="black" stroke-width="2" fill="none" />
<polyline points="188.5,250.0,191.5,253.0,194.5,261.0,197.5,261.5,197.0,270.0,202.0,277.5,205.0,284.0,215.0,280.0,223.5,280.0,231.5,278.5,239.5,271.5" stroke="black" stroke-width="2" fill="none" />
<polyline points="234.0,273.5,231.0,270.0,234.5,262.5,239.5,261.5,237.5,262.0" stroke="black" stroke-width="2" fill="none" />
<polyline points="240.0,253.5,240.0,252.0,238.0,257.0,229.5,262.0,224.5,269.0,216.5,273.0,219.0,263.0,225.0,255.5,232.0,253.5,239.0,244.0,234.0,241.0,226.0,244.0,217.5,243.0" stroke="black" stroke-width="2" fill="none" />
<polyline points="220.0,235.5,212.0,236.0" stroke="black" stroke-width="2" fill="none" />
<polyline points="208.5,237.5,200.5,230.0" stroke="black" stroke-width="2" fill="none" />
<polyline points="200.5,224.0,203.5,232.0,209.5,239.5,207.5,247.5,207.5,255.5,206.5,263.5,208.5,267.0,216.5,276.0,224.5,275.0,235.0,268.0,241.0,268.5,240.0,265.0,242.0,261.0,250.0,257.0,250.5,254.0,258.5,253.5" stroke="black" stroke-width="2" fill="none" />
<polyline points="242.0,245.5,234.0,246.5" stroke="black" stroke-width="2" fill="none" />
<polyline points="234.5,252.0,227.0,260.5,221.5,255.5,227.5,256.0" stroke="black" stroke-width="2" fill="none" />
<polyline points="232.0,241.0,242.5,234.0,243.5,226.0,244.5,219.0,236.5,224.5,228.0,222.5,220.0,222.0" stroke="black" stroke-width="2" fill="none" />
<polyline points="213.0,214.5,221.0,213.5,229.0,213.0" stroke="black" stroke-width="2" fill="none" />
<polyline points="229.0,204.0,237.0,203.5,245.5,203.5" stroke="black" stroke-width="2" fill="none" />
<polyline points="243.0,195.5,235.5,203.0" stroke="black" stroke-width="2" fill="none" />
<polyline points="228.0,202.0,236.0,195.0,244.0,187.5" stroke="black" stroke-width="2" fill="none" />
<polyline points="233.5,181.0,225.5,188.5,217.0,195.0" stroke="black" stroke-width="2" fill="none" />
<polyline points="212.0,192.5,220.0,192.0,227.5,191.5,236.0,190.5,244.0,189.5,252.0,188.5" stroke="black" stroke-width="2" fill="none" />
<polyline points="244.0,199.5,235.5,200.0,227.5,201.0" stroke="black" stroke-width="2" fill="none" />
<polyline points="210.5,195.0,219.0,187.5,227.0,180.5" stroke="black" stroke-width="2" fill="none" />
<polyline points="223.0,173.0,231.0,174.0,239.5,177.5,248.0,176.5" stroke="black" stroke-width="2" fill="none" />
<polyline points="243.0,182.0,235.0,182.5,227.0,183.5,219.0,184.0" stroke="black" stroke-width="2" fill="none" />
<polyline points="223.0,166.0,232.0,158.0,223.5,166.0,223.5,173.5,233.0,185.5,239.0,191.0,240.0,199.0,236.0,211.5,233.5,208.5,241.5,205.5,244.0,205.5,246.5,196.5,254.5,197.5,262.5,191.5,270.5,190.0,278.5,185.0,285.0,180.0,293.0,179.0,300.0,182.5,314.5,182.5" stroke="black" stroke-width="2" fill="none" />
<polyline points="315.5,180.5,307.0,179.0,299.0,174.0" stroke="black" stroke-width="2" fill="none" />
<polyline points="299.5,174.0,306.5,178.0" stroke="black" stroke-width="2" fill="none" />
<polyline points="299.0,172.0,291.0,172.0" stroke="black" stroke-width="2" fill="none" />
<polyline points="293.5,163.5,293.5,164.5,297.5,172.0,297.0,180.0,304.0,178.0,316.0,175.0" stroke="black" stroke-width="2" fill="none" />
<polyline points="295.0,158.5,303.0,155.5,311.0,156.5,323.0,154.0,331.0,150.0" stroke="black" stroke-width="2" fill="none" />
<polyline points="351.0,130.5,350.0,139.0,348.0,147.0,344.0,156.0,352.0,166.5,346.5,174.0,345.5,182.5,348.0,190.5,343.5,196.5,345.5,201.5,349.5,212.0,350.5,220.0,351.5,227.5,352.5,235.5,346.5,243.5,346.5,248.5,340.0,251.5,338.5,257.5,342.5,264.5,349.5,273.5,352.0,278.5,351.0,286.5,354.0,293.5,352.0,302.0,350.5,310.0,348.5,318.0,347.5,326.0,345.5,334.5,344.5,343.0,342.5,351.0,341.5,359.0,338.5,367.0,340.0,368.0,339.5,375.5,338.5,383.5,336.5,391.0,335.5,398.5,335.0,406.5,334.0,414.5,333.0,422.5,332.0,430.5,332.0,438.0,331.0,446.0,331.0,454.0,330.0,461.5,330.5,469.5,327.5,477.5,327.5,485.0" stroke="black" stroke-width="2" fill="none" />
<polyline points="269.5,485.5,271.0,484.5,272.0,476.5,273.5,468.0,275.0,460.0,275.0,452.0,276.0,444.0,277.0,436.5,277.5,428.5,278.5,419.5,279.0,411.5,278.5,404.0,276.5,395.5,277.5,388.0,277.5,379.0,278.5,370.0,278.5,362.0,278.5,354.5,278.5,346.5,278.5,338.5,279.0,330.5,279.0,322.5,279.5,311.5,279.5,303.0,280.5,294.0,279.0,288.0,279.5,280.0,281.5,272.0,280.5,264.5,279.5,256.5,279.0,248.0,278.5,244.0,277.5,236.0,276.5,228.0,272.0,214.5,276.0,207.0,285.0,202.0,283.0,193.5,282.0,191.5,281.0,184.0,283.0,176.0,278.5,168.0,280.0,160.0,281.0,151.5,274.5,140.5,267.5,137.0" stroke="black" stroke-width="2" fill="none" />
<polyline points="266.5,139.0,274.0,131.5" stroke="black" stroke-width="2" fill="none" />
<polyline points="270.0,141.0,278.0,141.0" stroke="black" stroke-width="2" fill="none" />
<polyline points="286.0,153.0,294.0,148.0,302.0,146.5" stroke="black" stroke-width="2" fill="none" />
<polyline points="300.5,154.0,292.0,160.0" stroke="black" stroke-width="2" fill="none" />
<polyline points="281.0,171.0,289.0,174.0,299.0,171.5,306.5,172.0" stroke="black" stroke-width="2" fill="none" />
<polyline points="277.5,174.0,270.0,174.0" stroke="black" stroke-width="2" fill="none" />
<polyline points="263.0,177.0,256.0,184.5,249.5,192.5" stroke="black" stroke-width="2" fill="none" />
<polyline points="235.0,183.0,227.0,183.0,219.0,181.0,220.0,174.0,220.5,166.0,225.5,157.5,225.5,153.0,217.5,153.0,210.0,158.0" stroke="black" stroke-width="2" fill="none" />
<polyline points="212.5,155.5,204.0,156.0,196.0,157.0" stroke="black" stroke-width="2" fill="none" />
<polyline points="201.5,154.0,194.0,162.0,190.0,173.5,186.0,181.5,173.0,196.5,162.5,204.5" stroke="black" stroke-width="2" fill="none" />
<polyline points="163.0,204.0,155.5,204.0" stroke="black" stroke-width="2" fill="none" />
<polyline points="155.5,201.0,163.5,196.0" stroke="black" stroke-width="2" fill="none" />
<polyline points="163.0,197.0,171.0,196.5,179.5,196.0" stroke="black" stroke-width="2" fill="none" />
<polyline points="177.0,195.0,180.5,203.5,179.5,210.5,188.0,217.5,184.0,219.5,185.5,227.5,185.5,235.5,185.5,243.0,185.0,250.5,185.0,258.5,186.0,261.5,191.0,264.5,200.0,269.0,202.0,273.5,204.0,276.5,205.0,289.0,205.5,297.0,206.0,305.0,207.0,313.0,209.5,321.0,210.5,329.0,211.5,337.0,213.5,345.0,215.0,353.0,216.5,361.0,219.0,369.5,221.0,378.0,220.5,386.5,222.5,395.0,225.0,403.5,226.0,411.0,227.0,419.5,227.5,427.0,228.0,434.5,228.5,442.0,229.5,450.0,230.5,457.5,231.5,466.0,231.5,474.0,232.5,481.5,232.0,489.5" stroke="black" stroke-width="2" fill="none" />
<polyline points="76.0,512.5,68.0,512.5,60.0,513.0,52.0,513.5,44.0,514.5,36.5,515.0,28.5,516.0,21.0,516.5,13.5,517.0" stroke="black" stroke-width="2" fill="none" />
<polyline points="11.0,521.5,19.0,514.0" stroke="black" stroke-width="2" fill="none" />
<polyline points="21.0,521.5,13.0,522.5" stroke="black" stroke-width="2" fill="none" />
<polyline points="15.0,523.0,23.0,519.0,31.0,525.0,16.5,527.0,18.5,526.5,26.5,531.5,22.5,534.5,23.0,531.5" stroke="black" stroke-width="2" fill="none" />
<polyline points="20.0,538.0,28.0,537.5,35.5,537.5" stroke="black" stroke-width="2" fill="none" />
<polyline points="39.5,526.0,47.5,529.0,55.5,529.5,64.0,530.0,71.5,530.0,79.5,529.5,87.5,531.0,92.5,525.0,100.5,526.0" stroke="black" stroke-width="2" fill="none" />
<polyline points="121.5,483.0,121.5,475.0,121.5,467.0,121.5,459.0,122.5,450.5,122.0,442.5,122.0,434.0,122.0,426.0,122.0,418.5,123.5,410.5,123.0,402.5,123.0,394.5,124.5,386.0,124.5,374.5,124.0,366.5,123.0,358.5,123.5,350.5,125.5,349.5,124.5,341.5,125.0,333.5,127.0,333.0,126.5,325.0,128.5,321.0,127.0,313.0,127.0,304.5,128.0,296.5,125.5,294.5,126.5,286.5,126.5,279.0,127.5,271.5,128.0,263.5,129.0,256.0,129.0,248.0,129.0,240.0,129.0,232.0,127.5,224.0,126.0,216.0,131.5,209.0,131.5,197.0,129.0,194.5,127.0,201.5,119.0,202.5,116.0,207.5,108.0,211.0,100.5,217.0,95.0,221.0,106.0,219.5,107.0,211.0,116.0,203.0,118.0,204.0,128.0,199.5,134.5,191.5,136.5,183.0,140.5,175.0,145.5,167.0,148.0,157.5,149.5,150.0,151.5,142.5,149.5,129.5,149.0,122.0,153.0,114.5,142.5,106.0" stroke="black" stroke-width="2" fill="none" />
<polyline points="147.0,105.0,154.5,98.0,162.5,91.0,171.0,83.5" stroke="black" stroke-width="2" fill="none" />
<polyline points="165.0,84.0,157.0,92.0,148.5,100.0,140.5,107.0" stroke="black" stroke-width="2" fill="none" />
<polyline points="146.5,111.5,154.5,110.5,163.0,109.5" stroke="black" stroke-width="2" fill="none" />
<polyline points="161.5,106.0,170.0,98.0" stroke="black" stroke-width="2" fill="none" />
<polyline points="170.0,91.0,162.0,98.0,154.0,105.5" stroke="black" stroke-width="2" fill="none" />
<polyline points="149.0,104.5,156.5,103.5,164.0,103.0" stroke="black" stroke-width="2" fill="none" />
<polyline points="172.5,95.0,164.5,96.0,156.5,96.5,148.5,97.0" stroke="black" stroke-width="2" fill="none" />
<polyline points="140.0,99.0,148.5,92.0,157.0,84.0,165.0,76.5" stroke="black" stroke-width="2" fill="none" />
<polyline points="160.5,80.0,168.5,83.5" stroke="black" stroke-width="2" fill="none" />
<polyline points="157.5,76.5,149.5,83.5,141.0,91.0" stroke="black" stroke-width="2" fill="none" />
<polyline points="138.5,94.0,146.0,93.0,154.0,92.0,162.0,91.5,170.5,90.5,179.0,89.5" stroke="black" stroke-width="2" fill="none" />
<polyline points="165.0,88.0,157.5,87.5,149.5,87.5" stroke="black" stroke-width="2" fill="none" />
<polyline points="138.5,76.5,146.5,76.0,155.0,76.0,163.5,75.5,171.5,76.0" stroke="black" stroke-width="2" fill="none" />
<polyline points="181.5,81.0,173.5,81.5,165.5,82.0,157.5,83.0,149.5,83.5,141.0,84.0,133.0,84.5" stroke="black" stroke-width="2" fill="none" />
<polyline points="131.0,87.0,123.5,81.0,115.0,84.5" stroke="black" stroke-width="2" fill="none" />
<polyline points="114.0,83.5,106.0,83.5,97.0,84.0" stroke="black" stroke-width="2" fill="none" />
<polyline points="102.0,80.0,110.0,66.5,117.5,63.0,125.0,58.5,132.5,53.0,140.5,49.0,149.5,42.5,157.5,42.0,165.5,41.0,173.5,42.5,182.0,50.5,189.5,52.5,197.5,58.0,205.5,69.0" stroke="black" stroke-width="2" fill="none" />
<polyline points="206.0,58.5,198.0,59.0" stroke="black" stroke-width="2" fill="none" />
<polyline points="199.0,58.0,201.0,66.0,208.5,73.0,208.5,81.5,206.5,90.0,205.0,98.5,201.0,107.5,199.5,115.5,201.5,127.5,207.0,133.5" stroke="black" stroke-width="2" fill="none" />
<polyline points="211.5,137.5,203.5,138.0,195.5,138.0,188.0,138.5,180.0,138.5,171.5,139.0" stroke="black" stroke-width="2" fill="none" />
<polyline points="172.5,139.5,180.5,142.5,188.5,145.0" stroke="black" stroke-width="2" fill="none" />
<polyline points="178.5,148.0,170.5,148.0" stroke="black" stroke-width="2" fill="none" />
<polyline points="171.0,156.5,179.0,156.0" stroke="black" stroke-width="2" fill="none" />
<polyline points="180.0,167.0,188.5,166.5,196.5,165.5,204.0,164.5" stroke="black" stroke-width="2" fill="none" />
<polyline points="203.5,156.5,213.0,164.5,212.5,172.5,216.5,180.5,211.5,189.0,208.5,193.0,215.0,194.0" stroke="black" stroke-width="2" fill="none" />
<polyline points="203.5,198.0,195.0,198.5" stroke="black" stroke-width="2" fill="none" />
<polyline points="194.0,198.5,202.0,210.5" stroke="black" stroke-width="2" fill="none" />
<polyline points="203.5,220.0,196.0,220.0,188.5,221.0,181.0,221.5" stroke="black" stroke-width="2" fill="none" />
<polyline points="181.0,230.0,189.0,229.0" stroke="black" stroke-width="2" fill="none" />
<polyline points="187.5,237.5,179.0,238.0" stroke="black" stroke-width="2" fill="none" />
<polyline points="178.5,246.0,186.5,245.0" stroke="black" stroke-width="2" fill="none" />
<polyline points="181.0,258.0,173.0,259.0" stroke="black" stroke-width="2" fill="none" />
<polyline points="172.0,257.0,181.0,265.0,186.0,270.0,183.0,280.0,180.5,282.5,176.5,290.5,168.5,293.5,163.5,301.5,163.5,309.5,168.0,317.5,172.0,319.5,185.5,316.5,193.5,311.5" stroke="black" stroke-width="2" fill="none" />
<polyline points="156.0,269.5,147.5,269.5,140.0,270.0,131.5,270.0" stroke="black" stroke-width="2" fill="none" />
<polyline points="134.5,263.0,142.5,256.0,137.5,260.0,137.5,266.0,138.0,274.0,137.0,279.5,135.0,288.5,137.5,295.5,132.5,303.5,131.5,314.0,130.5,322.0,130.5,330.0,129.5,338.0,129.5,346.0,128.5,354.0,128.5,362.0,127.5,370.5,127.5,378.5,127.5,386.5,127.5,394.5,126.5,403.0,126.5,410.5,126.5,418.0,126.5,425.5,125.5,433.0,126.0,441.0,126.0,448.5,126.0,456.0,126.5,464.0,126.5,472.0,126.0,480.5" stroke="black" stroke-width="2" fill="none" />
<polyline points="96.5,520.0,88.5,520.5,79.0,526.0,70.5,526.0,62.5,527.0,54.5,526.0,46.5,526.0" stroke="black" stroke-width="2" fill="none" />
<polyline points="43.5,525.0,44.0,521.0,40.0,530.0,40.0,538.5,47.0,542.5,46.5,539.5,54.5,540.5,61.5,540.0,73.5,543.0,81.5,543.0,90.0,543.0,98.5,543.5,109.5,543.5,112.0,536.5,120.0,543.5,128.0,542.0,135.5,543.0,143.0,543.0,150.5,543.0,158.5,543.5" stroke="black" stroke-width="2" fill="none" />
<polyline points="163.0,539.0,155.0,539.5,147.0,539.5,138.5,540.0,131.0,539.0,123.0,539.0,115.0,540.0,107.0,539.0,99.5,540.0,91.5,539.5,90.5,541.5,98.0,530.5,92.0,523.0,83.5,520.0,80.5,518.0,72.5,519.0,64.5,517.5,56.0,519.5,48.0,518.5,40.0,517.5" stroke="black" stroke-width="2" fill="none" />
<polyline points="35.5,513.0,36.5,521.5,36.5,530.0,35.5,538.0" stroke="black" stroke-width="2" fill="none" />
<polyline points="28.0,528.5,26.5,520.5,20.5,526.0,15.5,533.0,14.5,525.0,24.5,522.0,16.5,525.0" stroke="black" stroke-width="2" fill="none" />
<polyline points="13.0,509.0,20.5,508.5,28.0,507.5,36.0,506.5" stroke="black" stroke-width="2" fill="none" />
<polyline points="43.5,326.5,41.5,330.0,44.5,322.5,47.5,314.5,52.0,311.0,44.5,317.0,36.5,322.0" stroke="black" stroke-width="2" fill="none" />
<polyline points="37.5,320.0,36.0,328.0" stroke="black" stroke-width="2" fill="none" />
<polyline points="43.5,319.5,51.5,319.0" stroke="black" stroke-width="2" fill="none" />
<polyline points="50.0,307.5,58.0,307.0" stroke="black" stroke-width="2" fill="none" />
<polyline points="54.0,305.0,62.0,296.5,64.5,285.5,72.5,286.0,80.5,278.0" stroke="black" stroke-width="2" fill="none" />
<polyline points="79.5,278.5,68.5,285.5,63.0,295.5,65.0,299.0,63.5,307.0,56.0,315.5,47.0,319.0,47.0,322.5,55.0,314.5,63.5,308.5,70.0,301.5,78.5,292.5,86.5,285.5,92.5,292.0,100.5,293.5,108.0,293.5,116.0,294.5,124.0,299.5,135.0,299.5,142.5,295.5,150.5,291.5" stroke="black" stroke-width="2" fill="none" />
<polyline points="138.5,291.0,133.0,292.0,134.0,282.5,134.0,274.5,141.5,272.0,145.5,264.0,143.5,262.0,151.5,259.5,154.5,258.5,148.0,260.5" stroke="black" stroke-width="2" fill="none" />
<polyline points="146.0,254.5,154.5,253.5,162.5,252.5" stroke="black" stroke-width="2" fill="none" />
<polyline points="165.0,259.0,157.0,259.5,149.0,260.0,141.5,260.5,133.5,261.0" stroke="black" stroke-width="2" fill="none" />
<polyline points="132.0,252.5,140.0,253.0" stroke="black" stroke-width="2" fill="none" />
<polyline points="138.0,244.5,130.0,245.0" stroke="black" stroke-width="2" fill="none" />
<polyline points="131.5,244.5,130.0,236.5" stroke="black" stroke-width="2" fill="none" />
<polyline points="130.5,236.0,139.0,236.0" stroke="black" stroke-width="2" fill="none" />
<polyline points="141.5,227.0,133.5,227.5" stroke="black" stroke-width="2" fill="none" />
<polyline points="131.5,219.5,139.5,219.0" stroke="black" stroke-width="2" fill="none" />
<polyline points="132.0,212.0,124.0,212.5" stroke="black" stroke-width="2" fill="none" />
<polyline points="120.5,211.5,123.5,203.5" stroke="black" stroke-width="2" fill="none" />
<polyline points="115.0,213.0,107.0,213.5" stroke="black" stroke-width="2" fill="none" />
<polyline points="107.5,206.0,115.0,206.0,123.0,205.5,131.5,205.0" stroke="black" stroke-width="2" fill="none" />
<polyline points="117.5,187.5,125.5,180.5" stroke="black" stroke-width="2" fill="none" />
<polyline points="125.5,173.0,117.5,180.0,109.0,187.0,100.5,194.5,91.5,202.0" stroke="black" stroke-width="2" fill="none" />
<polyline points="84.0,202.0,92.0,195.0,99.5,187.5,107.0,180.0,115.0,173.0" stroke="black" stroke-width="2" fill="none" />
<polyline points="109.5,170.0,101.0,177.5,93.0,185.0,84.5,193.0" stroke="black" stroke-width="2" fill="none" />
<polyline points="85.5,196.0,94.0,196.0,102.0,196.0,109.0,195.5,116.0,195.0,124.0,194.0,132.0,194.0,140.5,194.0" stroke="black" stroke-width="2" fill="none" />
<polyline points="148.5,190.0,140.5,197.0,132.5,202.0,122.5,196.0,124.5,187.5,132.5,186.0,134.5,178.0,135.5,181.5" stroke="black" stroke-width="2" fill="none" />
<polyline points="131.5,174.5,139.0,174.0" stroke="black" stroke-width="2" fill="none" />
<polyline points="141.0,175.5,149.0,176.5" stroke="black" stroke-width="2" fill="none" />
<polyline points="154.0,164.5,146.5,164.5,138.5,164.5" stroke="black" stroke-width="2" fill="none" />
<polyline points="140.5,159.0,148.5,158.5" stroke="black" stroke-width="2" fill="none" />
<polyline points="141.5,150.5,149.5,150.5,157.0,150.0" stroke="black" stroke-width="2" fill="none" />
<polyline points="155.5,141.0,147.5,141.5,139.5,142.0" stroke="black" stroke-width="2" fill="none" />
<polyline points="144.0,147.5,142.0,160.0,135.0,167.5,134.0,170.5,128.0,179.5,119.0,191.0,111.5,193.0,104.5,189.0,96.5,196.5,87.5,195.5,86.0,187.5,87.0,188.5,87.0,186.5,90.5,181.5,100.0,175.5,98.0,168.5,94.0,164.5,90.5,156.5,97.5,149.5,90.5,147.0,83.0,147.0,75.0,150.5,67.0,155.5" stroke="black" stroke-width="2" fill="none" />
<polyline points="69.5,156.0,77.5,157.0,85.0,154.0,93.0,153.5" stroke="black" stroke-width="2" fill="none" />
<polyline points="89.5,148.5,97.5,148.0" stroke="black" stroke-width="2" fill="none" />
<polyline points="90.5,144.5,90.5,152.5,89.5,162.5,91.5,170.5,84.5,177.0,81.0,185.0,79.0,193.0,66.0,197.5,55.0,206.5,62.0,215.0,62.5,221.0,73.0,215.0,79.0,213.0,83.5,218.5,92.0,217.0,100.0,213.0,108.0,208.0,109.0,198.5" stroke="black" stroke-width="2" fill="none" />
<polyline points="114.5,185.5,106.0,186.5,97.0,186.5" stroke="black" stroke-width="2" fill="none" />
<polyline points="91.0,193.0,99.5,192.0,108.0,192.0" stroke="black" stroke-width="2" fill="none" />
<polyline points="99.0,203.5,91.5,203.5,83.5,203.5" stroke="black" stroke-width="2" fill="none" />
<polyline points="83.0,204.0,91.0,202.0" stroke="black" stroke-width="2" fill="none" />
<polyline points="91.5,211.5,83.0,212.0,75.0,212.5,67.0,213.0" stroke="black" stroke-width="2" fill="none" />
<polyline points="68.5,221.0,76.5,221.0" stroke="black" stroke-width="2" fill="none" />
<polyline points="82.5,220.5,90.0,220.0,98.0,219.5,106.0,219.0" stroke="black" stroke-width="2" fill="none" />
<polyline points="80.0,207.0,88.0,208.5,96.5,205.5,103.0,196.0,111.0,193.5,119.0,187.5" stroke="black" stroke-width="2" fill="none" />
<polyline points="124.5,169.5,116.5,170.5,108.5,171.5,101.0,173.0,93.5,173.5" stroke="black" stroke-width="2" fill="none" />
<polyline points="102.0,170.5,93.5,178.0,85.5,185.5" stroke="black" stroke-width="2" fill="none" />
<polyline points="88.0,184.5,89.0,180.0,94.0,180.0,102.0,176.0" stroke="black" stroke-width="2" fill="none" />
<polyline points="91.0,164.5,99.0,164.0,107.0,163.0,115.0,163.0" stroke="black" stroke-width="2" fill="none" />
<polyline points="113.5,163.0,105.0,165.0,97.0,165.5,88.5,161.5,82.5,159.0,74.5,160.5,66.5,163.0" stroke="black" stroke-width="2" fill="none" />
<polyline points="65.5,159.5,65.5,154.5,73.5,148.5,81.5,145.0,89.5,142.0,98.0,139.0,106.0,132.5,114.0,131.5" stroke="black" stroke-width="2" fill="none" />
<polyline points="116.0,125.5,123.5,125.0" stroke="black" stroke-width="2" fill="none" />
<polyline points="119.5,119.0,128.0,113.0,136.0,109.0,140.5,106.0,127.5,114.0,121.5,122.0,124.0,129.5,125.5,135.0,133.5,137.5,134.5,143.5,140.5,140.0,141.5,136.5,150.0,135.0" stroke="black" stroke-width="2" fill="none" />
<polyline points="146.0,134.0,154.5,134.0,162.5,134.0" stroke="black" stroke-width="2" fill="none" />
<polyline points="172.5,133.0,180.5,132.5,188.0,131.5,195.5,130.5,203.5,129.5,211.0,129.0,219.5,128.5,227.5,128.0" stroke="black" stroke-width="2" fill="none" />
<polyline points="222.5,128.0,212.0,136.0" stroke="black" stroke-width="2" fill="none" />
<polyline points="204.0,131.5,196.5,130.5,188.0,129.5" stroke="black" stroke-width="2" fill="none" />
<polyline points="182.5,126.0,190.0,125.5,197.5,124.5,205.0,124.0,213.0,123.5,220.5,123.5" stroke="black" stroke-width="2" fill="none" />
<polyline points="221.0,129.0,218.0,129.5,212.5,124.5,203.5,127.0,201.5,134.5,194.0,134.5,185.5,132.5,186.5,125.0,193.5,117.0,195.5,111.0,200.0,102.5,201.0,94.5,206.5,83.5,206.0,75.5,198.0,67.5,194.5,59.5,192.5,56.0,185.0,53.0,177.0,55.5,166.5,60.5,159.0,67.5,159.0,60.0,157.0,56.0,149.0,51.0" stroke="black" stroke-width="2" fill="none" />
<polyline points="153.0,48.5,154.0,50.5,156.0,58.5,155.5,66.5,149.5,71.5,151.5,81.5,142.5,86.0,138.0,87.0,144.5,86.0,148.5,78.5,159.5,73.5,163.5,84.5,175.5,79.0,173.5,68.0,181.5,63.0,181.5,66.0,184.5,74.0,175.5,82.5,183.5,75.5" stroke="black" stroke-width="2" fill="none" />
<polyline points="187.0,73.5,189.5,61.0,181.5,56.0" stroke="black" stroke-width="2" fill="none" />
<polyline points="188.5,51.0,181.0,51.5,173.5,52.5" stroke="black" stroke-width="2" fill="none" />
<polyline points="179.0,45.0,170.5,46.0,162.5,47.0" stroke="black" stroke-width="2" fill="none" />
<polyline points="165.0,43.5,173.0,51.0,167.0,59.0,164.0,67.0,163.0,75.5,150.0,79.0,161.0,82.0,171.0,83.0,166.0,95.0,166.0,103.0,159.0,111.5,154.0,119.5,154.0,127.5,153.0,137.5,158.0,136.5,166.0,135.0,173.0,150.5" stroke="black" stroke-width="2" fill="none" />
<polyline points="175.0,139.0,174.0,143.0,177.5,151.0,178.5,159.0,180.5,166.5,183.0,174.5,184.0,183.0,182.5,191.5,176.5,199.5,176.5,207.5,179.5,216.0,182.5,224.0,182.0,232.0,182.0,240.5,181.5,248.5,181.0,257.0,178.5,263.5,186.0,261.5,190.0,266.5,197.5,261.0,199.5,268.0,210.5,273.0,210.5,265.0,219.0,255.0,227.0,252.0,235.5,248.5,243.5,246.5,250.0,249.5,258.0,250.5,266.0,252.0" stroke="black" stroke-width="2" fill="none" />
<polyline points="237.5,236.0,229.0,240.5,221.0,238.0,213.0,235.0,204.5,228.0,194.5,222.5,186.5,221.0,175.5,207.0" stroke="black" stroke-width="2" fill="none" />
<polyline points="177.0,206.5,187.0,213.5,193.0,217.5,201.5,218.5,210.0,216.5" stroke="black" stroke-width="2" fill="none" />
<polyline points="214.5,212.5,206.5,209.0,198.0,198.0" stroke="black" stroke-width="2" fill="none" />
<polyline points="198.5,197.0,206.5,196.0" stroke="black" stroke-width="2" fill="none" />
<polyline points="193.5,189.0,196.5,197.0,200.5,202.5,206.5,210.5,210.5,220.5,211.5,221.5,213.0,222.5,221.5,224.5,229.5,225.5,237.5,228.5,246.0,230.5,254.0,231.5" stroke="black" stroke-width="2" fill="none" />
<polyline points="235.5,235.5,234.5,227.5" stroke="black" stroke-width="2" fill="none" />
<polyline points="234.5,213.5,229.5,204.5,218.0,204.0,215.0,199.0,217.0,190.0,219.0,182.0,215.5,174.0,212.5,166.5" stroke="black" stroke-width="2" fill="none" />
<polyline points="212.0,150.5,220.0,149.5,228.0,149.0" stroke="black" stroke-width="2" fill="none" />
<polyline points="216.5,148.0,207.5,157.0,202.0,165.5,196.0,173.5,190.0,178.0,193.0,185.5,191.5,193.5,197.5,202.0,204.0,210.0,202.5,218.0,201.5,222.0,205.5,229.0,214.5,237.5,212.5,245.5,211.5,253.5,210.5,261.5,209.5,270.0,217.5,272.0,211.5,284.0,212.0,292.0,213.0,299.5,214.0,308.0,215.0,316.0,216.0,324.0,216.5,332.0,218.5,340.5,220.0,348.0,221.5,356.0,223.5,364.0,222.5,372.0,223.0,377.5,224.5,382.5,227.5,385.5,229.0,393.5,231.0,401.5,232.5,409.5,233.0,418.0,234.0,426.0,236.0,434.0,237.0,442.0,238.0,449.5,239.0,458.0,237.5,466.5,238.0,474.5,238.0,482.0,239.0,490.0" stroke="black" stroke-width="2" fill="none" />
<polyline points="109.0,307.5,117.0,299.5" stroke="black" stroke-width="2" fill="none" />
<polyline points="109.0,299.0,101.0,306.5" stroke="black" stroke-width="2" fill="none" />
<polyline points="97.5,304.5,105.0,303.5,108.0,307.5,110.0,314.0,110.5,315.0" stroke="black" stroke-width="2" fill="none" />
<polyline points="113.5,310.0,106.0,310.0,98.0,310.5" stroke="black" stroke-width="2" fill="none" />
<polyline points="106.0,302.0,114.0,304.0" stroke="black" stroke-width="2" fill="none" />
<polyline points="114.5,298.5,106.5,297.5" stroke="black" stroke-width="2" fill="none" />
<polyline points="84.5,284.5,76.5,285.0,68.5,285.0" stroke="black" stroke-width="2" fill="none" />
<polyline points="69.0,294.0,76.5,293.5" stroke="black" stroke-width="2" fill="none" />
<polyline points="74.0,301.5,82.0,302.5,90.5,303.0,98.5,297.0,92.0,305.0,96.0,309.5,98.0,306.5,101.5,311.5,109.5,306.5,120.0,305.5" stroke="black" stroke-width="2" fill="none" />
<polyline points="141.0,282.0,141.0,273.0,142.0,264.5,149.0,258.5,151.0,251.5,159.0,248.5" stroke="black" stroke-width="2" fill="none" />
<polyline points="154.5,256.5,159.5,254.0,158.5,262.0,156.5,270.0,153.5,278.0,146.0,281.0,149.0,281.5,145.0,289.5,148.5,285.0,151.5,278.0" stroke="black" stroke-width="2" fill="none" />
<polyline points="139.5,280.5,147.5,271.5,153.5,265.0,145.5,273.5,139.5,281.5,140.5,287.5" stroke="black" stroke-width="2" fill="none" />
<polyline points="108.5,294.0,100.5,297.0,92.0,300.5,83.5,299.5,80.5,298.5,76.5,302.0,72.5,295.5,80.5,287.5,82.5,279.5" stroke="black" stroke-width="2" fill="none" />
<polyline points="67.0,301.5,59.0,302.0" stroke="black" stroke-width="2" fill="none" />
<polyline points="72.0,216.0,77.5,212.0,81.5,201.5,70.5,198.5,72.5,194.0,72.5,186.0,75.5,182.0,68.0,173.5,61.5,171.5" stroke="black" stroke-width="2" fill="none" />
<polyline points="59.5,167.0,67.5,166.5" stroke="black" stroke-width="2" fill="none" />
<polyline points="60.0,172.0,52.0,172.5" stroke="black" stroke-width="2" fill="none" />
<polyline points="56.0,173.0,64.0,173.0,72.0,173.5,84.5,178.5,92.0,170.5,105.0,170.5" stroke="black" stroke-width="2" fill="none" />
<polyline points="114.0,177.0,112.5,168.5,115.5,160.5,117.5,152.5,112.5,150.5" stroke="black" stroke-width="2" fill="none" />
<polyline points="115.5,148.5,124.0,148.0" stroke="black" stroke-width="2" fill="none" />
<polyline points="133.0,150.5,125.0,147.5,117.5,143.5,109.5,140.5,102.0,141.0" stroke="black" stroke-width="2" fill="none" />
<polyline points="100.5,139.5,108.5,135.0,116.0,134.0" stroke="black" stroke-width="2" fill="none" />
<polyline points="113.5,141.0,126.0,146.0,132.5,152.0,135.5,160.0,132.5,168.0,124.5,175.5,120.5,183.0,115.0,185.5,102.5,194.0,91.5,200.0,85.5,203.0,89.5,214.0,86.0,223.0,94.0,225.5,99.5,224.0,107.5,220.0,115.5,216.0,120.5,214.5" stroke="black" stroke-width="2" fill="none" />
<polyline points="125.0,179.5,117.0,180.0,109.0,181.0,101.0,181.5,93.5,181.5,85.5,181.5" stroke="black" stroke-width="2" fill="none" />
<polyline points="61.0,182.5,53.0,183.0" stroke="black" stroke-width="2" fill="none" />
<polyline points="51.5,186.5,55.5,194.5,58.0,202.5,66.0,209.0,74.0,209.0,81.5,205.0,90.0,198.0" stroke="black" stroke-width="2" fill="none" />
<polyline points="114.5,185.5,106.5,186.0,98.5,187.0,90.5,187.5,82.5,188.5,74.5,189.5,67.0,190.5,59.5,191.0" stroke="black" stroke-width="2" fill="none" />
<polyline points="59.0,197.0,51.0,197.5,43.0,198.5" stroke="black" stroke-width="2" fill="none" />
<polyline points="46.5,191.5,55.0,194.5,57.5,187.5,59.5,184.0" stroke="black" stroke-width="2" fill="none" />
<polyline points="58.5,175.5,66.0,177.0,74.0,182.5" stroke="black" stroke-width="2" fill="none" />
<polyline points="66.5,198.0,59.0,199.5" stroke="black" stroke-width="2" fill="none" />
<polyline points="59.0,205.0,51.0,205.0" stroke="black" stroke-width="2" fill="none" />
<polyline points="51.0,209.0,59.0,210.0,67.0,215.0" stroke="black" stroke-width="2" fill="none" />
<polyline points="60.5,218.5,52.5,209.5" stroke="black" stroke-width="2" fill="none" />
<polyline points="49.5,214.5,58.0,222.5,66.0,225.5,74.0,222.5,82.0,221.5" stroke="black" stroke-width="2" fill="none" />
<polyline points="79.0,190.5,73.5,194.0,70.0,193.5,67.0,193.0,59.0,198.5,66.5,193.0,61.5,191.5,58.0,183.0,53.0,176.5,58.5,169.0,64.0,161.0,58.5,162.0,50.5,174.0,42.5,184.0" stroke="black" stroke-width="2" fill="none" />
<polyline points="49.0,179.5,46.0,188.0,48.0,196.0,49.5,204.0,49.5,212.5,54.5,220.5" stroke="black" stroke-width="2" fill="none" />
<polyline points="59.0,219.5,51.5,211.5,54.5,201.5,56.5,193.0,56.0,185.0,53.0,177.0" stroke="black" stroke-width="2" fill="none" />
<polyline points="68.0,182.0,60.5,180.0,55.5,175.0,47.5,188.0,45.5,195.5,45.0,187.5,47.5,180.0,55.5,171.5,60.0,163.5,64.0,155.5,69.5,147.5,81.5,146.0" stroke="black" stroke-width="2" fill="none" />
<polyline points="90.0,141.5,98.0,141.0,106.0,140.5" stroke="black" stroke-width="2" fill="none" />
<polyline points="112.0,143.5,112.5,151.5,112.5,159.5,109.5,169.5,112.0,175.0,118.0,182.0,129.0,170.5,136.5,163.5" stroke="black" stroke-width="2" fill="none" />
<polyline points="137.5,156.5,129.5,153.5,122.0,152.5,113.5,155.5" stroke="black" stroke-width="2" fill="none" />
<polyline points="119.0,168.0,119.0,176.0,115.5,186.5,106.0,194.5,107.0,197.0,112.0,203.0,101.0,211.0,90.5,213.0,99.0,209.0,107.0,203.5" stroke="black" stroke-width="2" fill="none" />
<polyline points="122.0,189.5,126.0,181.5,133.0,173.5" stroke="black" stroke-width="2" fill="none" />
<polyline points="148.0,184.5,140.0,193.0,137.0,195.5,143.5,187.5,147.5,179.0,139.5,168.5,136.5,166.5,141.5,158.5,141.0,146.0,147.0,138.0" stroke="black" stroke-width="2" fill="none" />
<polyline points="138.5,133.0,130.5,133.0" stroke="black" stroke-width="2" fill="none" />
<polyline points="138.5,131.0,133.0,139.0,139.5,134.0,147.0,138.5,157.0,140.5" stroke="black" stroke-width="2" fill="none" />
<polyline points="151.0,121.5,159.0,111.5,167.0,108.5,175.5,105.5,183.5,112.5,191.5,112.0,199.5,103.0" stroke="black" stroke-width="2" fill="none" />
<polyline points="203.5,93.5,211.5,93.0" stroke="black" stroke-width="2" fill="none" />
<polyline points="223.5,95.5,231.5,97.0,239.5,99.0,245.5,98.0,254.0,102.0,254.0,110.0,262.0,114.5" stroke="black" stroke-width="2" fill="none" />
<polyline points="257.0,117.5,265.0,124.0" stroke="black" stroke-width="2" fill="none" />
<polyline points="253.0,127.5,261.0,127.0,268.5,126.0,275.5,125.0,283.0,123.5,290.5,122.5,298.0,122.0,306.5,121.5" stroke="black" stroke-width="2" fill="none" />
<polyline points="314.5,126.5,311.0,134.5,313.0,143.0" stroke="black" stroke-width="2" fill="none" />
<polyline points="331.0,108.5,339.0,108.5" stroke="black" stroke-width="2" fill="none" />
<polyline points="340.0,99.5,331.5,100.5" stroke="black" stroke-width="2" fill="none" />
<polyline points="331.0,91.0,323.0,91.5,315.0,91.5,306.5,91.5,298.5,91.5,290.5,92.0" stroke="black" stroke-width="2" fill="none" />
<polyline points="292.0,91.0,300.0,90.5,308.0,89.5" stroke="black" stroke-width="2" fill="none" />
<polyline points="306.0,93.0,314.0,85.5" stroke="black" stroke-width="2" fill="none" />
<polyline points="313.5,84.0,306.0,84.0,298.5,84.5,291.0,84.5,283.5,85.5,275.5,86.0" stroke="black" stroke-width="2" fill="none" />
<polyline points="275.0,79.5,283.0,78.5,291.5,78.0,300.0,77.5,308.0,77.0,316.0,76.5,323.5,75.0" stroke="black" stroke-width="2" fill="none" />
<polyline points="330.5,72.5,338.5,73.5" stroke="black" stroke-width="2" fill="none" />
<polyline points="339.0,60.0,331.0,60.5" stroke="black" stroke-width="2" fill="none" />
<polyline points="333.0,57.5,341.0,62.5,340.5,66.5,342.5,74.5,342.0,82.5,340.0,90.5,327.5,96.5,335.5,96.0,335.5,104.5" stroke="black" stroke-width="2" fill="none" />
<polyline points="331.0,110.5,325.0,108.5,323.0,111.5,329.0,103.0,317.0,94.5" stroke="black" stroke-width="2" fill="none" />
<polyline points="303.5,94.0,299.5,102.5,301.5,110.5,304.0,119.0,298.5,127.5" stroke="black" stroke-width="2" fill="none" />
<polyline points="290.0,88.5,297.5,81.0,305.5,73.0,313.5,65.5" stroke="black" stroke-width="2" fill="none" />
<polyline points="306.0,65.5,298.5,73.5,290.0,82.0,282.5,90.0" stroke="black" stroke-width="2" fill="none" />
<polyline points="288.5,88.0,279.5,90.0,276.0,94.5,268.0,95.5,260.0,93.5" stroke="black" stroke-width="2" fill="none" />
<polyline points="260.5,85.0,252.5,86.0" stroke="black" stroke-width="2" fill="none" />
<polyline points="250.0,92.0,257.5,86.0,265.5,88.0,273.5,85.0" stroke="black" stroke-width="2" fill="none" />
<polyline points="267.5,91.5,259.5,92.5,251.0,93.0,243.5,94.0" stroke="black" stroke-width="2" fill="none" />
<polyline points="242.0,101.5,250.0,103.5,257.0,102.0,260.5,99.0,268.5,107.5,276.0,109.5,284.0,98.5,286.5,92.5" stroke="black" stroke-width="2" fill="none" />
<polyline points="289.0,87.5,295.0,89.5,295.0,94.5,289.0,102.0,287.0,110.0,284.5,116.0,279.5,120.0,279.5,124.5,280.5,136.5,276.5,142.0,278.5,135.0,283.0,121.0,288.0,124.5,293.0,131.5,304.0,126.5,312.5,121.5,320.0,120.5,327.5,119.5,333.5,116.5,341.5,119.5,350.5,121.5,358.5,124.5,366.5,126.0,374.5,129.0,382.5,131.0,391.0,131.5,396.0,122.5,407.0,131.0,415.0,134.0,423.0,132.5,424.0,136.5,432.0,140.5,444.0,139.5,452.5,137.5" stroke="black" stroke-width="2" fill="none" />
<polyline points="476.5,132.5,468.5,123.5,460.5,126.5,452.0,133.5,453.5,128.5,452.5,120.0,442.0,115.0,440.0,115.0,439.0,107.0,436.0,104.0,436.0,97.0,433.0,89.5,443.0,85.5,442.0,77.5" stroke="black" stroke-width="2" fill="none" />
<polyline points="422.5,75.5,423.5,68.0,419.5,76.0,411.5,79.5,404.0,69.5" stroke="black" stroke-width="2" fill="none" />
<polyline points="411.0,62.0,407.0,70.0,411.5,72.0,409.5,73.5,414.5,64.5,424.5,62.5" stroke="black" stroke-width="2" fill="none" />
<polyline points="428.0,76.0,420.0,80.0,412.0,87.0,404.0,88.5,396.5,92.0,389.0,99.0" stroke="black" stroke-width="2" fill="none" />
<polyline points="390.5,101.5,399.0,95.0,394.5,96.0,390.5,104.5,392.5,112.5,394.0,120.5,397.0,128.5,390.5,137.0,392.0,140.0,398.0,146.0,399.5,149.0,398.0,156.0,405.0,157.5,412.5,162.5,408.5,170.5,404.5,178.0,401.5,186.0,399.0,194.0,392.0,201.0,391.0,209.0,392.0,217.0,390.0,225.0,388.0,230.5,387.0,238.5,385.5,246.5,384.5,254.0,382.5,262.0,372.0,270.0,376.0,274.0,371.0,272.0,378.0,267.5,387.0,270.0" stroke="black" stroke-width="2" fill="none" />
<polyline points="339.5,237.5,331.5,238.5,323.0,239.5,315.0,240.0" stroke="black" stroke-width="2" fill="none" />
<polyline points="312.5,244.0,318.5,242.0,324.5,246.5,321.0,259.5,329.0,259.5,329.0,272.0,337.0,272.5,344.5,275.5" stroke="black" stroke-width="2" fill="none" />
<polyline points="319.0,280.5,317.0,288.5,309.5,296.0" stroke="black" stroke-width="2" fill="none" />
<polyline points="327.0,240.5,318.5,239.5,317.5,234.5" stroke="black" stroke-width="2" fill="none" />
<polyline points="312.5,230.5,320.5,234.0,328.5,241.0" stroke="black" stroke-width="2" fill="none" />
<polyline points="324.0,227.0,316.0,228.0,308.0,228.5" stroke="black" stroke-width="2" fill="none" />
<polyline points="309.0,229.0,315.0,226.5,327.5,234.5,328.5,247.0,324.5,250.5,333.5,243.5,347.0,240.5,354.0,236.5,353.0,251.0,348.5,259.0,349.5,267.0,351.0,275.0,356.0,285.5,362.5,286.5,364.5,293.5,372.5,291.5,375.0,284.5,367.0,292.5" stroke="black" stroke-width="2" fill="none" />
<polyline points="392.5,283.0,389.0,287.5,386.5,284.5,378.5,284.5,385.0,272.5,386.0,264.5,387.5,256.5,389.5,248.5,390.5,240.5,392.5,232.5,394.0,225.0,396.0,217.0,398.0,209.5,401.0,201.5,403.5,193.5,408.0,185.5,410.0,178.0,414.0,170.0,422.5,159.0,410.5,153.0,406.0,146.0,400.0,137.5,403.0,128.5,400.0,120.5,398.5,115.5,403.5,109.0,405.0,101.0,398.0,100.0" stroke="black" stroke-width="2" fill="none" />
<polyline points="372.0,122.5,364.5,123.5,357.0,124.5,349.5,125.0" stroke="black" stroke-width="2" fill="none" />
<polyline points="348.0,125.5,347.0,133.5,347.0,141.5,333.0,148.0,336.0,151.0,320.5,156.0,317.0,163.0,318.0,173.0,318.0,182.0" stroke="black" stroke-width="2" fill="none" />
<polyline points="343.5,189.5,335.5,191.0,327.0,190.5,318.5,187.5,311.0,183.5,301.0,184.5,293.0,183.5,290.0,180.5,285.0,173.0,282.0,165.5,285.0,158.0,290.0,150.0,293.0,143.0,297.0,141.0,290.5,135.0,282.0,134.0,277.0,132.0,269.5,131.0,261.5,131.5,253.5,129.0,245.5,126.5,243.5,120.5,245.5,112.5,243.5,111.5,235.5,110.0,227.0,106.5" stroke="black" stroke-width="2" fill="none" />
<polyline points="225.5,105.5,234.0,102.5,237.0,106.5,245.5,106.5,253.5,112.5,255.5,122.0" stroke="black" stroke-width="2" fill="none" />
<polyline points="249.5,123.5,257.5,126.5,265.5,127.5" stroke="black" stroke-width="2" fill="none" />
<polyline points="267.5,108.0,259.5,109.0,251.5,109.5,244.0,110.5,236.5,111.0" stroke="black" stroke-width="2" fill="none" />
<polyline points="235.0,104.0,243.0,103.0,251.0,102.0,259.0,101.0,266.5,100.0" stroke="black" stroke-width="2" fill="none" />
<polyline points="267.0,117.0,266.0,116.0,264.0,108.5,256.0,100.5,254.0,92.5,258.0,92.5,252.5,89.0,253.5,83.0,253.5,75.5,253.5,63.0,256.5,55.5,260.5,47.5,253.5,59.0" stroke="black" stroke-width="2" fill="none" />
<polyline points="253.5,68.0,261.5,63.5,269.5,65.0,277.5,70.5" stroke="black" stroke-width="2" fill="none" />
<polyline points="275.0,70.5,283.0,70.0,290.5,69.0,298.5,68.5,306.5,68.0,314.5,67.0" stroke="black" stroke-width="2" fill="none" />
<polyline points="309.0,75.0,301.5,75.5,293.0,76.0" stroke="black" stroke-width="2" fill="none" />
<polyline points="283.5,74.0,291.5,66.0,300.0,58.5" stroke="black" stroke-width="2" fill="none" />
<polyline points="305.0,57.0,313.0,47.0,314.0,46.0,311.0,54.5,314.0,63.5,318.0,72.0,316.0,70.0,324.0,68.5,334.5,61.5" stroke="black" stroke-width="2" fill="none" />
<polyline points="336.5,72.0,328.5,74.0,321.0,77.5,316.0,83.0,304.0,89.0,308.0,81.0,310.5,72.0,303.5,65.0,305.5,57.0,314.5,56.0,317.5,46.0,316.0,38.0,310.0,36.5,302.5,33.0,294.5,35.0,286.5,31.0,278.5,28.5,271.0,35.5,263.0,41.5,255.5,47.0" stroke="black" stroke-width="2" fill="none" />
<polyline points="265.0,54.0,273.0,60.0,281.0,64.0,289.0,62.5" stroke="black" stroke-width="2" fill="none" />
<polyline points="286.0,62.0,293.5,61.5,301.5,60.0,309.0,59.0,316.5,58.5" stroke="black" stroke-width="2" fill="none" />
<polyline points="314.5,52.0,306.5,52.0" stroke="black" stroke-width="2" fill="none" />
<polyline points="306.0,50.5,299.5,52.0,298.5,59.5,293.5,61.5" stroke="black" stroke-width="2" fill="none" />
<polyline points="288.0,56.0,280.0,59.0" stroke="black" stroke-width="2" fill="none" />
<polyline points="265.0,55.5,270.0,63.5,268.5,69.5" stroke="black" stroke-width="2" fill="none" />
<polyline points="262.0,67.5,254.0,70.5" stroke="black" stroke-width="2" fill="none" />
<polyline points="236.0,92.0,228.0,92.5" stroke="black" stroke-width="2" fill="none" />
<polyline points="224.5,94.0,232.5,94.0,240.5,96.0,248.5,93.0,254.5,102.5,256.0,104.5,255.0,117.0,255.0,122.0,252.0,123.5" stroke="black" stroke-width="2" fill="none" />
<polyline points="244.0,117.0,251.5,120.5,252.5,126.5,260.5,129.5" stroke="black" stroke-width="2" fill="none" />
<polyline points="243.5,116.5,252.0,116.0,260.5,116.0,268.5,115.5,276.0,115.5,284.5,115.0,293.0,114.0" stroke="black" stroke-width="2" fill="none" />
<polyline points="288.0,86.0,286.0,94.0,283.5,102.0,276.5,110.5,285.0,113.5,293.0,96.0,302.0,96.5,310.0,93.5,318.0,96.5,326.0,93.5" stroke="black" stroke-width="2" fill="none" />
<polyline points="313.5,85.0,319.5,77.0,322.5,68.5,326.0,60.5,325.0,52.5" stroke="black" stroke-width="2" fill="none" />
<polyline points="323.0,43.0,314.5,43.5" stroke="black" stroke-width="2" fill="none" />
<polyline points="315.5,37.5,307.5,38.5" stroke="black" stroke-width="2" fill="none" />
<polyline points="311.0,41.0,302.5,37.0,294.5,38.5,284.5,34.5,276.5,35.5,268.5,42.5" stroke="black" stroke-width="2" fill="none" />
<polyline points="275.0,37.0,269.0,45.0,269.0,52.5,272.0,60.5,274.0,68.5,279.0,70.0,274.5,76.5,286.5,84.5,294.0,89.0,302.0,90.0,310.5,87.0,318.0,90.0,326.0,90.0,334.5,93.5,340.0,95.5" stroke="black" stroke-width="2" fill="none" />
<polyline points="292.0,144.5,284.0,150.0,274.5,168.0,269.5,167.5,262.5,160.0,254.5,161.5,245.5,159.0,237.5,156.5,229.5,159.5,228.5,151.5,220.5,149.5,212.5,152.0,204.5,154.0,196.5,159.0,195.5,169.0,189.5,167.0,181.5,168.0" stroke="black" stroke-width="2" fill="none" />
<polyline points="181.0,173.5,189.0,173.5,197.0,173.0" stroke="black" stroke-width="2" fill="none" />
<polyline points="190.0,176.5,198.0,169.0,201.0,164.5,209.0,165.5" stroke="black" stroke-width="2" fill="none" />
<polyline points="191.5,164.5,199.5,163.5,201.5,162.0,209.5,162.0,221.5,160.0,232.5,153.0,240.5,153.0,248.5,156.5,256.5,156.5" stroke="black" stroke-width="2" fill="none" />
<polyline points="252.5,160.5,252.5,168.0,251.5,176.0,245.5,184.0,244.5,196.0,239.0,209.0,247.0,213.0,255.0,215.5,254.5,220.5,263.0,208.5,266.5,211.0,275.0,208.5" stroke="black" stroke-width="2" fill="none" />
<polyline points="309.0,224.5,313.0,232.5,311.5,240.5,314.0,248.0,323.5,255.0,320.0,260.5,326.5,269.0,330.5,262.0,338.5,266.5" stroke="black" stroke-width="2" fill="none" />
<polyline points="335.0,240.5,329.0,244.5,325.5,237.0,318.5,233.5,311.0,230.5" stroke="black" stroke-width="2" fill="none" />
<polyline points="327.0,214.0,335.5,206.0" stroke="black" stroke-width="2" fill="none" />
<polyline points="333.5,204.0,328.5,212.0" stroke="black" stroke-width="2" fill="none" />
<polyline points="368.5,189.0,358.0,200.0,360.5,196.5,361.5,188.5,366.5,180.5,360.5,180.0,349.5,192.0,341.5,190.5,340.0,194.0,336.5,192.5,328.5,194.0,321.0,196.0,313.5,191.0,307.0,188.5,302.5,194.5,295.5,190.5,291.5,195.5,290.0,197.5,280.5,188.5,270.5,178.0,269.5,174.5,261.5,177.5,253.5,187.5,245.5,194.0,241.0,189.0,233.0,186.0,225.0,186.0,217.5,183.5,212.0,188.5,204.0,191.0,196.0,192.0,189.0,182.5,181.0,188.5,173.0,185.0,168.0,202.0,160.0,210.0,155.0,209.0,155.5,201.5,163.0,196.0,171.5,189.5,178.5,183.0,177.5,175.0,175.5,167.0,174.0,159.0,172.0,151.5,170.0,144.5,166.0,136.5,178.5,129.0,178.5,126.0,182.5,118.0,179.0,109.5,170.0,102.5,173.5,94.5,174.0,86.5,185.0,77.5,193.0,74.5,193.0,66.5,190.0,65.0,187.5,57.0,175.0,50.5,170.0,49.5,162.0,48.5,154.5,45.5,147.0,51.0,139.0,54.5,131.0,58.5" stroke="black" stroke-width="2" fill="none" />
<polyline points="132.0,60.0,123.5,61.0,115.0,61.5" stroke="black" stroke-width="2" fill="none" />
<polyline points="116.5,69.5,108.5,70.0" stroke="black" stroke-width="2" fill="none" />
<polyline points="113.0,72.5,121.0,65.0,129.5,62.5,134.0,64.5,136.0,72.0,142.0,80.0,145.0,76.0,152.5,73.0" stroke="black" stroke-width="2" fill="none" />
<polyline points="165.0,65.5,174.0,59.5,169.0,60.5,165.0,68.5,164.5,76.5,168.0,83.5,172.0,91.0,180.5,86.0,184.5,80.5,190.0,83.0,198.0,81.0,202.0,91.0" stroke="black" stroke-width="2" fill="none" />
<polyline points="196.0,116.0,188.5,116.5" stroke="black" stroke-width="2" fill="none" />
<polyline points="193.0,118.5,185.0,121.5" stroke="black" stroke-width="2" fill="none" />
<polyline points="191.5,122.5,211.5,125.5,207.5,123.5" stroke="black" stroke-width="2" fill="none" />
<polyline points="206.0,136.0,198.0,140.0,190.0,137.5,182.0,135.5" stroke="black" stroke-width="2" fill="none" />
<polyline points="181.0,134.5,191.5,142.0" stroke="black" stroke-width="2" fill="none" />
<polyline points="185.5,141.5,177.5,135.0" stroke="black" stroke-width="2" fill="none" />
<polyline points="183.5,114.5,184.0,122.5,183.0,132.5,179.5,137.5,188.5,139.0,192.5,144.5,195.5,143.5,204.0,144.0,212.0,138.5,220.0,135.0" stroke="black" stroke-width="2" fill="none" />
<polyline points="213.5,121.5,205.5,121.5,198.0,125.5,190.0,126.0,185.5,130.0,177.5,134.5,171.5,133.5,164.0,130.5,156.5,128.0,145.5,130.5,137.5,133.5,129.5,132.0,121.5,130.0,116.5,122.0,103.0,115.5,106.0,107.5,106.0,100.0,102.0,92.5,103.0,84.5,107.5,77.0,107.5,84.0" stroke="black" stroke-width="2" fill="none" />
<polyline points="111.5,82.0,119.5,77.0,127.5,79.5,135.5,83.5" stroke="black" stroke-width="2" fill="none" />
<polyline points="122.5,82.0,132.0,89.5,134.5,97.5" stroke="black" stroke-width="2" fill="none" />
<polyline points="137.5,100.0,146.0,99.5,155.0,99.5,163.5,99.0,171.0,98.5" stroke="black" stroke-width="2" fill="none" />
<polyline points="201.0,94.0,198.5,86.0,197.0,84.0,190.0,79.5,189.5,74.5,189.0,66.0,177.0,58.0,165.5,66.0" stroke="black" stroke-width="2" fill="none" />
<polyline points="173.5,64.0,172.0,72.0,172.0,67.0,180.0,58.0,188.0,63.5,199.5,70.5,206.0,74.5" stroke="black" stroke-width="2" fill="none" />
<polyline points="180.5,67.5,179.5,65.5,176.5,70.0,175.0,74.0,178.0,66.0" stroke="black" stroke-width="2" fill="none" />
<polyline points="155.0,45.0,146.5,45.0" stroke="black" stroke-width="2" fill="none" />
<polyline points="140.5,51.5,130.5,53.5,117.5,61.0,107.0,69.0,98.0,78.0,104.5,83.0,103.5,91.0,108.5,99.0,116.5,105.0,112.0,118.0,111.0,119.5,119.0,127.5,125.0,135.5,133.0,144.0,135.0,152.0,145.5,149.0,145.0,157.0,143.0,157.0,147.0,165.0,148.0,173.0,151.0,172.5,150.0,181.0,148.0,189.0,133.5,200.0,131.5,208.5,133.5,216.5,133.5,224.5,134.5,233.0,134.0,241.0,134.5,248.5,134.0,256.5,132.5,264.5,132.5,272.5,131.5,280.5,131.5,289.0,131.0,297.0,129.5,305.0,125.5,309.5,124.0,317.5,124.0,325.5,123.0,333.5,123.0,342.0,122.5,350.0,122.5,357.5,121.5,365.0,121.5,373.0,120.5,381.0,120.5,389.0,120.0,397.0,118.5,405.5,118.0,413.5,118.0,421.5,118.5,429.0,117.5,437.0,118.0,445.0,118.0,452.5,118.0,460.5,118.5,468.5,118.5,476.5,119.0,484.5" stroke="black" stroke-width="2" fill="none" />
<polyline points="169.5,190.0,177.5,189.5" stroke="black" stroke-width="2" fill="none" />
<polyline points="181.0,180.5,189.0,180.5" stroke="black" stroke-width="2" fill="none" />
<polyline points="243.0,156.5,249.0,164.5,249.0,172.5,244.5,180.5,248.5,190.5,256.0,178.5,264.0,172.0" stroke="black" stroke-width="2" fill="none" />
<polyline points="163.0,100.0,155.0,104.0,147.5,103.5,136.5,103.0,129.0,105.0,121.5,105.0,114.0,102.0,106.5,99.0,105.5,89.0" stroke="black" stroke-width="2" fill="none" />
<polyline points="108.5,92.5,116.5,92.5" stroke="black" stroke-width="2" fill="none" />
<polyline points="118.0,78.0,111.0,86.0,110.5,88.0,110.5,93.5,116.5,99.0,124.5,102.0,132.5,102.0" stroke="black" stroke-width="2" fill="none" />
<polyline points="124.0,116.5,116.5,117.0,109.0,118.0" stroke="black" stroke-width="2" fill="none" />
<polyline points="104.5,131.5,97.0,139.5,98.0,143.0,106.5,144.0,114.5,143.5,122.0,149.0" stroke="black" stroke-width="2" fill="none" />
<polyline points="133.5,86.0,122.0,78.0" stroke="black" stroke-width="2" fill="none" />
<polyline points="115.5,76.0,107.0,76.5,99.0,76.5" stroke="black" stroke-width="2" fill="none" />
<polyline points="75.0,62.0,67.0,62.5" stroke="black" stroke-width="2" fill="none" />
<polyline points="66.0,53.5,74.5,53.0,83.0,52.0" stroke="black" stroke-width="2" fill="none" />
<polyline points="78.5,54.5,70.5,62.5,64.5,67.5,56.5,75.5,48.5,84.5,46.5,84.5,51.5,81.0,60.5,73.0,64.5,65.5,73.0,60.5,82.5,52.5,83.5,44.5" stroke="black" stroke-width="2" fill="none" />
<polyline points="81.5,44.0,73.5,50.0,65.5,50.0,72.5,51.5,80.0,43.5" stroke="black" stroke-width="2" fill="none" />
<polyline points="64.0,48.5,64.0,57.0,62.0,65.0,54.0,71.0,43.5,80.0,45.5,88.0,38.0,91.5" stroke="black" stroke-width="2" fill="none" />
<polyline points="40.5,86.0,49.0,85.5" stroke="black" stroke-width="2" fill="none" />
<polyline points="51.0,75.5,59.0,75.0" stroke="black" stroke-width="2" fill="none" />
<polyline points="59.0,69.0,67.0,68.5" stroke="black" stroke-width="2" fill="none" />
<polyline points="66.0,55.0,58.5,66.5,52.5,73.5,44.5,79.5,36.5,84.5" stroke="black" stroke-width="2" fill="none" />
<polyline points="35.5,84.0,36.0,91.5" stroke="black" stroke-width="2" fill="none" />
<polyline points="128.0,62.0,115.0,70.0,111.0,78.0,116.0,83.0,115.5,90.5,114.0,98.0,108.5,107.0,106.5,113.0,110.0,121.0,111.5,113.0,119.5,114.5,128.0,108.5,136.0,106.0,149.5,112.0,154.5,110.5,167.0,103.0,177.0,111.0,189.5,115.0,197.0,112.0" stroke="black" stroke-width="2" fill="none" />
<polyline points="142.0,92.5,137.0,86.0,135.0,78.0,131.0,70.0,129.5,62.0" stroke="black" stroke-width="2" fill="none" />
<polyline points="281.5,32.0,274.0,33.0,268.0,41.0,254.5,48.5,250.5,56.5,248.5,64.0,250.5,72.0,248.5,80.5,248.5,88.5,238.0,97.0,242.0,103.0,245.0,104.0,248.0,109.5,253.5,110.5,259.5,113.5,264.5,122.0,259.5,123.5,269.0,127.5,262.0,133.0,263.0,141.0,263.0,149.0,263.0,159.0,265.5,167.5,255.0,178.5,249.0,187.0,250.0,177.0" stroke="black" stroke-width="2" fill="none" />
<polyline points="283.0,33.5,292.0,41.5,293.5,49.5,289.0,57.0,273.0,65.0,272.5,73.0,276.5,81.0,272.0,88.5,280.0,79.5,283.0,69.5,294.5,64.5,298.0,61.5,302.5,55.0,303.5,49.0,313.5,51.0,320.5,43.0,326.5,48.5" stroke="black" stroke-width="2" fill="none" />
<polyline points="408.5,59.5,404.5,67.5,406.5,75.5,408.5,83.0,416.5,83.0" stroke="black" stroke-width="2" fill="none" />
<polyline points="510.0,84.0,509.0,88.0,510.0,92.5" stroke="black" stroke-width="2" fill="none" />
<polyline points="510.5,320.5,509.5,324.5,511.0,329.5" stroke="black" stroke-width="2" fill="none" />
<polyline points="465.0,533.5,461.5,541.5" stroke="black" stroke-width="2" fill="none" />
</svg>