<svg xmlns="http://www.w3.org/2000/svg" version="1.1"><polyline points="74.5,69.5,80.0,78.0,84.0,86.0,88.5,94.5,94.5,102.5,109.0,110.5,123.0,119.0,133.5,126.5,144.5,134.5,156.0,142.5,170.5,150.5,187.0,158.5" stroke="black" stroke-width="2" fill="none" />
<polyline points="188.0,157.0,180.5,164.0,172.5,171.0,164.5,178.0,156.5,185.0,148.0,192.0,140.0,199.5,131.0,206.5" stroke="black" stroke-width="2" fill="none" />
<polyline points="124.5,209.5,132.0,208.5,140.0,207.5" stroke="black" stroke-width="2" fill="none" />
<polyline points="142.0,202.0,149.5,202.0,157.0,202.0,165.0,202.0,172.5,202.0,180.5,202.0,188.5,201.0,196.5,200.5,204.5,200.0,213.0,199.0,221.0,198.5,229.0,198.0,236.5,197.0,244.5,196.0,252.5,196.0,259.5,195.5,267.0,194.5,274.5,194.0,282.0,193.5,289.5,192.5,297.0,192.0,305.5,191.5,314.0,190.5,322.5,189.0,330.0,188.0,338.5,187.0,346.5,186.5,355.0,186.0,363.5,185.5,372.5,185.0,381.0,184.5,388.5,183.5,396.0,183.5,404.0,183.0,412.0,182.0" stroke="black" stroke-width="2" fill="none" />
<polyline points="404.0,218.5,412.0,210.5,420.5,203.0,428.0,195.0,436.0,187.5,443.5,179.0,451.0,171.0" stroke="black" stroke-width="2" fill="none" />
<polyline points="450.5,162.0,458.5,161.5" stroke="black" stroke-width="2" fill="none" />
<polyline points="458.0,155.0,450.0,162.5,441.5,170.0,433.5,177.5,425.5,184.5,417.5,192.5,409.5,200.0,401.5,208.0,393.5,215.5,385.5,223.0" stroke="black" stroke-width="2" fill="none" />
<polyline points="371.0,228.0,379.5,220.0,388.0,212.5,395.5,205.5,403.5,198.0,411.5,190.5,419.0,183.5,427.0,176.0,435.0,168.5,443.5,161.0,451.5,153.5,459.0,146.0,467.0,138.0" stroke="black" stroke-width="2" fill="none" />
<polyline points="467.5,128.5,460.0,136.5,451.5,144.0,443.5,151.5,435.0,159.5,427.0,167.5,419.0,175.0,411.0,183.0,403.0,190.5,395.0,198.0,387.0,206.0,378.5,213.5,370.5,221.5,362.5,229.0" stroke="black" stroke-width="2" fill="none" />
<polyline points="346.5,237.0,354.5,229.5,362.5,222.0,370.5,214.5,378.5,207.0,386.5,199.5,395.0,191.5,403.0,183.5,411.5,176.0,419.5,167.5,427.0,160.0,434.0,152.5,441.5,144.5,449.5,137.0,457.5,129.5" stroke="black" stroke-width="2" fill="none" />
<polyline points="461.0,129.0,453.0,129.5,444.5,130.5" stroke="black" stroke-width="2" fill="none" />
<polyline points="445.0,123.5,436.5,131.5,428.5,139.0,421.0,146.5,413.0,154.0,405.5,161.5,397.0,168.5,388.5,176.0,380.0,183.5,372.0,191.0,363.5,198.0,356.0,206.0,348.0,213.5,340.5,221.0,333.0,229.0,325.5,237.0,317.5,245.0" stroke="black" stroke-width="2" fill="none" />
<polyline points="339.5,236.0,346.5,228.5,354.0,221.5,361.5,214.5,369.5,208.0,377.5,201.0,385.5,193.5,393.0,185.5,401.0,177.5,409.5,169.0,417.5,161.0,426.5,153.5,435.0,145.5,443.5,137.5,451.5,130.0,459.0,122.5" stroke="black" stroke-width="2" fill="none" />
<polyline points="461.0,126.5,468.0,134.0,469.0,141.5,465.0,149.5,461.0,157.0,458.0,165.0,453.5,173.0,449.5,181.0,444.0,189.0,437.0,197.0,428.0,205.0,418.5,212.5,405.0,220.5,390.0,228.5,372.5,236.5,349.5,244.5" stroke="black" stroke-width="2" fill="none" />
<polyline points="324.0,244.0,332.5,236.5,340.0,229.5,347.5,221.5,355.0,214.0,362.5,206.5,370.5,199.0,378.5,191.5,386.5,184.0,395.0,176.5,404.0,168.5,412.5,160.5,420.5,153.5,428.0,146.0,436.0,139.0,444.5,131.5,453.0,124.0" stroke="black" stroke-width="2" fill="none" />
<polyline points="444.0,122.5,425.0,130.5" stroke="black" stroke-width="2" fill="none" />
<polyline points="426.0,132.0,418.0,139.5,411.0,147.0,403.5,155.0,396.5,162.5,388.5,170.5,380.5,178.0,372.5,185.0,364.5,192.5,356.5,199.5,349.0,207.0,341.0,214.5,333.0,222.0,324.5,229.5,315.5,237.5,307.0,245.5,300.0,253.5" stroke="black" stroke-width="2" fill="none" />
<polyline points="292.5,252.5,301.0,245.0,309.0,237.0,316.5,229.5,324.5,222.0,332.0,215.0,340.0,207.0,347.5,199.5,355.0,191.5,363.0,183.5,370.5,176.0,378.0,168.5,386.0,161.0,393.5,153.0,401.5,145.5,409.5,138.5" stroke="black" stroke-width="2" fill="none" />
<polyline points="407.0,137.0,386.0,144.5,368.0,152.5,349.5,160.0" stroke="black" stroke-width="2" fill="none" />
<polyline points="349.0,156.5,356.5,156.0,364.0,156.0,372.0,156.0,379.5,156.0,387.5,155.5,395.5,155.5,403.5,154.5,411.0,153.5,419.5,153.0,427.5,152.5,435.5,152.5,443.5,152.0,451.0,152.0,459.0,151.0" stroke="black" stroke-width="2" fill="none" />
<polyline points="467.5,123.0,459.5,123.5,451.5,123.5,443.5,124.0,436.0,124.5,428.0,125.0" stroke="black" stroke-width="2" fill="none" />
<polyline points="420.5,135.5,428.5,135.0,436.0,134.5,443.5,134.0,451.5,133.5,459.0,133.0,467.5,133.0" stroke="black" stroke-width="2" fill="none" />
<polyline points="467.5,129.5,459.5,129.5,451.5,130.0,443.0,131.0,435.0,131.0,427.5,131.5,419.5,131.5,411.0,132.0,403.5,132.5" stroke="black" stroke-width="2" fill="none" />
<polyline points="402.5,139.0,395.0,146.5,386.5,154.0,378.5,161.5,370.5,169.0,362.5,176.5,355.0,184.0,347.5,191.5,340.5,199.5,333.0,208.0,325.0,215.5,317.0,223.0,309.0,230.0,301.0,237.5,293.0,245.0,284.5,252.5" stroke="black" stroke-width="2" fill="none" />
<polyline points="275.5,252.5,283.5,245.0,292.0,237.5,300.0,230.0,308.5,222.5,316.5,215.0,324.5,207.5,332.0,200.0,339.5,192.5,347.0,185.0,355.5,178.0,364.5,170.5,373.0,163.5,381.5,156.5,389.5,149.5" stroke="black" stroke-width="2" fill="none" />
<polyline points="387.5,143.5,395.5,143.0,404.0,142.5,412.0,141.5,420.5,140.5,428.5,140.0,436.5,139.0,444.0,138.0,451.5,137.5,459.0,137.0,467.0,137.0" stroke="black" stroke-width="2" fill="none" />
<polyline points="460.0,143.0,452.0,143.5,444.0,143.5,436.0,144.0,428.0,144.0,420.0,144.5,411.5,145.0,403.5,145.5,395.5,146.0" stroke="black" stroke-width="2" fill="none" />
<polyline points="380.0,148.0,372.0,155.5,363.5,163.0,355.5,170.5,348.0,178.0,340.0,185.5,331.5,193.0,323.0,200.5,315.5,207.5,307.5,215.0,299.5,222.5,292.0,230.5,284.0,238.5,276.0,246.0,267.5,253.5" stroke="black" stroke-width="2" fill="none" />
<polyline points="274.0,259.0,265.0,267.0,257.0,275.0,252.0,280.0,260.0,271.5,268.0,264.0,276.0,259.0,284.0,258.0,292.0,256.0,300.5,255.0,308.5,253.5,316.5,252.0,324.5,250.0,332.5,249.0,340.5,247.5,348.5,244.5,356.5,243.0,365.0,240.0,373.5,237.5,381.5,233.5,390.0,230.5,398.0,226.5,406.0,221.5,414.0,216.5,422.0,211.5,430.0,204.0,438.0,197.5,446.5,187.5,454.5,175.0,462.5,157.0,471.0,141.0" stroke="black" stroke-width="2" fill="none" />
<polyline points="458.5,147.0,450.5,148.0,443.5,148.0,436.0,148.5,428.5,150.0,421.0,151.0,413.0,152.0,405.5,152.5,397.5,153.5,389.0,154.5,380.5,155.0" stroke="black" stroke-width="2" fill="none" />
<polyline points="372.5,151.0,380.5,150.5,388.5,149.5,396.5,149.0,404.5,148.5,412.0,147.5,420.0,146.5,428.0,146.0,436.5,145.0,445.0,144.0,453.0,143.0,460.5,143.0,468.0,142.5" stroke="black" stroke-width="2" fill="none" />
<polyline points="363.0,154.5,354.5,161.5,346.5,169.0,338.5,176.5,330.5,184.5,323.0,192.5,314.5,200.5,306.5,208.5,298.5,216.5,290.0,223.5,282.0,231.0,274.0,238.5,266.5,246.0,258.5,253.5" stroke="black" stroke-width="2" fill="none" />
<polyline points="251.0,254.5,258.5,247.0,267.0,240.0,275.5,232.0,284.0,224.0,292.0,216.0,300.0,208.5,307.5,201.0,315.5,193.5,324.0,186.0,332.0,179.0,340.0,172.0,348.0,164.5" stroke="black" stroke-width="2" fill="none" />
<polyline points="340.0,164.0,331.5,171.5,323.5,179.0,315.5,187.0,307.5,194.5,299.5,202.5,291.5,210.0,284.0,217.0,275.5,224.5,267.5,232.0,259.0,240.0,251.5,247.0,243.5,254.0" stroke="black" stroke-width="2" fill="none" />
<polyline points="234.0,254.0,241.5,246.5,250.0,239.5,258.5,232.0,266.5,224.5,274.5,217.0,283.0,209.5,291.0,202.5,299.5,195.0,308.0,187.5,316.5,179.5,324.5,171.5" stroke="black" stroke-width="2" fill="none" />
<polyline points="323.0,165.0,331.5,164.5,339.5,164.0,347.5,163.5,355.0,162.5,363.0,162.5,371.0,162.0,378.5,161.5,386.5,161.0,394.5,160.0,402.5,159.0,410.5,159.0,418.5,159.0,426.5,159.0,434.5,158.5,442.5,158.0,451.0,157.5,459.0,156.5" stroke="black" stroke-width="2" fill="none" />
<polyline points="436.5,157.5,428.5,157.5,420.0,158.0,412.0,159.0,404.5,159.5,396.0,160.0,388.0,160.5,380.0,161.5,372.0,162.0,364.0,162.5" stroke="black" stroke-width="2" fill="none" />
<polyline points="339.0,168.5,347.0,168.0,355.0,168.0,363.5,168.5,371.5,168.5,379.0,168.0,387.0,167.5,395.0,167.0,403.0,166.5,411.5,166.0,419.0,166.0,427.0,165.5" stroke="black" stroke-width="2" fill="none" />
<polyline points="316.5,171.5,309.0,179.5,300.5,187.0,292.5,193.5,284.5,200.5,276.5,207.5,268.0,215.0,259.5,222.0,251.0,229.5,243.0,237.0,234.5,245.0,226.5,252.0" stroke="black" stroke-width="2" fill="none" />
<polyline points="218.5,254.0,226.5,246.5,234.5,239.0,242.5,232.0,250.5,225.0,259.0,217.5,266.5,210.0,275.0,202.5,282.5,195.0,290.0,187.5,298.0,179.5,306.0,171.5" stroke="black" stroke-width="2" fill="none" />
<polyline points="299.5,171.0,291.5,178.5,282.5,186.0,274.5,193.5,266.5,201.0,258.5,208.5,251.0,216.5,243.5,224.0,236.0,231.5,229.5,239.0,222.0,246.0,213.5,254.0" stroke="black" stroke-width="2" fill="none" />
<polyline points="203.0,254.0,211.5,246.5,220.0,239.0,228.5,231.5,236.0,224.0,243.0,217.0,251.0,210.0,258.5,202.5,266.0,195.0,274.0,187.0,281.5,179.0" stroke="black" stroke-width="2" fill="none" />
<polyline points="275.0,181.5,267.0,188.5,258.5,195.5,250.5,203.0,242.0,209.5,234.0,216.5,226.5,224.0,219.5,231.5,212.0,239.0,204.5,246.0" stroke="black" stroke-width="2" fill="none" />
<polyline points="196.0,244.5,203.5,237.5,211.0,230.5,219.0,223.5,227.0,216.5,235.0,209.0,242.5,202.0,250.0,194.5,257.5,187.0,266.0,179.5" stroke="black" stroke-width="2" fill="none" />
<polyline points="257.0,180.0,249.5,187.5,242.0,194.5,234.5,201.0,226.0,208.0,218.5,215.0,210.5,222.5,203.0,230.0,195.5,237.5,188.5,245.0" stroke="black" stroke-width="2" fill="none" />
<polyline points="181.5,247.5,188.5,239.5,196.0,232.0,203.0,224.0,210.5,216.5,218.5,208.5,226.5,201.0,234.5,193.5,242.5,186.0,251.0,178.5" stroke="black" stroke-width="2" fill="none" />
<polyline points="251.0,169.5,243.0,177.0,235.5,184.0,228.0,192.0,220.5,200.0,212.5,208.0,205.0,215.5,197.0,223.5,189.0,231.5,181.0,239.0,172.5,246.5" stroke="black" stroke-width="2" fill="none" />
<polyline points="179.0,242.5,187.5,241.0,195.5,240.0,204.0,239.0,211.5,238.5,219.5,238.0,228.0,237.0,235.5,236.5,243.5,236.0,251.5,235.5,259.5,235.0,267.5,234.5,276.0,235.0,284.5,235.0,292.5,235.0,301.0,235.0,308.5,234.5,316.5,233.5,324.5,233.0,332.5,232.0,340.5,231.5,348.5,231.5" stroke="black" stroke-width="2" fill="none" />
<polyline points="306.5,178.5,314.5,177.5,321.5,176.5,329.5,175.5,337.0,174.5,345.5,174.0,353.5,173.5,362.0,173.0,370.5,172.5,379.0,172.0,387.0,172.0,394.5,171.5,402.5,170.5,410.5,170.5,419.0,170.5,427.0,170.0" stroke="black" stroke-width="2" fill="none" />
<polyline points="244.0,169.5,236.5,177.0,228.5,184.5,220.0,192.0,212.0,200.0,204.5,208.0,196.5,215.5,188.5,223.5,180.5,231.0,172.0,239.0,164.0,246.5" stroke="black" stroke-width="2" fill="none" />
<polyline points="158.5,246.0,158.0,254.0,160.0,253.5" stroke="black" stroke-width="2" fill="none" />
<polyline points="155.5,243.5,147.5,251.5" stroke="black" stroke-width="2" fill="none" />
<polyline points="156.0,232.5,163.5,225.0,171.0,217.5,179.0,210.5,186.5,203.0,194.0,196.0,201.5,188.5,209.5,181.0,217.5,173.0" stroke="black" stroke-width="2" fill="none" />
<polyline points="210.5,173.0,202.5,180.5,195.5,188.0,188.0,195.5,180.0,203.0,172.5,210.5,165.0,217.5,157.0,224.5" stroke="black" stroke-width="2" fill="none" />
<polyline points="148.0,222.5,156.0,215.0,165.0,208.0,173.0,201.0,181.0,194.0,189.5,187.0,198.0,180.0,206.5,173.0" stroke="black" stroke-width="2" fill="none" />
<polyline points="205.0,165.5,196.5,172.5,188.5,179.5,180.5,186.0,172.0,193.0,164.5,200.0,156.0,207.5,147.5,215.0" stroke="black" stroke-width="2" fill="none" />
<polyline points="147.0,209.5,155.0,209.5,163.0,209.0,171.0,208.5,179.0,208.5,187.0,208.5,195.5,208.0,204.0,207.0,212.0,206.5,220.0,206.0,228.0,205.5,235.5,204.5,243.5,204.0,251.0,203.5,258.0,203.5,266.0,203.0,274.0,203.0,282.5,202.0,290.5,202.0,298.5,202.0,307.0,201.5,315.0,200.5,322.5,199.5,330.5,199.0,338.0,197.5,346.0,196.5,354.5,196.0,363.5,195.5,372.0,195.0,380.5,194.0,389.0,193.5,397.0,193.0,404.5,192.0" stroke="black" stroke-width="2" fill="none" />
<polyline points="236.5,170.0,228.5,178.0,221.0,186.0,213.5,193.5,206.0,201.5,197.5,209.0,190.0,216.5,181.5,223.5,173.0,231.0" stroke="black" stroke-width="2" fill="none" />
<polyline points="164.5,232.5,172.5,225.0,180.5,217.5,188.0,210.0,196.0,202.0,203.5,194.0,211.5,186.0,219.0,179.0,226.5,171.5" stroke="black" stroke-width="2" fill="none" />
<polyline points="195.5,164.5,187.0,171.5,178.5,179.0,170.5,186.0,163.0,193.5,155.0,200.0,147.5,208.0,139.5,215.0" stroke="black" stroke-width="2" fill="none" />
<polyline points="140.5,218.0,149.0,217.5,157.0,217.5" stroke="black" stroke-width="2" fill="none" />
<polyline points="147.5,226.5,155.5,226.0,163.0,225.5,170.5,225.0,178.5,224.5" stroke="black" stroke-width="2" fill="none" />
<polyline points="187.5,223.0,195.5,222.5,204.0,222.5,212.0,222.0,220.5,221.5,228.5,221.5,236.5,221.0,245.0,220.5,252.5,220.0,260.5,219.5,268.5,218.5,276.5,218.5,284.5,218.5,293.0,218.5,301.0,218.5,309.5,218.5,317.0,218.0,324.5,217.5,332.0,217.0,340.0,216.5,348.0,216.0,355.5,215.5,363.5,215.0,371.5,215.0,379.5,214.5,387.5,214.5" stroke="black" stroke-width="2" fill="none" />
<polyline points="283.5,255.0,275.0,256.0,266.5,257.0,258.5,257.5,250.0,258.0,242.0,258.5,234.0,259.0" stroke="black" stroke-width="2" fill="none" />
<polyline points="195.5,250.5,203.0,250.5,211.0,250.0,218.5,249.5,227.0,248.5,235.5,248.0,243.5,247.5,252.5,247.0,261.0,246.5,269.5,245.5,278.0,245.0,285.5,245.0,293.0,245.0,300.5,244.5,308.5,243.5,316.0,242.0,323.5,241.5" stroke="black" stroke-width="2" fill="none" />
<polyline points="364.0,223.0,356.0,224.0,348.0,224.5,340.0,224.5,331.5,225.0,323.5,225.0,315.0,225.5,307.5,226.5,299.5,227.0,292.0,227.0,284.5,227.5,276.0,228.5,268.0,229.0,260.0,229.0,251.5,229.5,243.5,230.0,235.5,230.5,227.0,230.5,219.0,231.5,211.0,232.0,203.0,233.0,195.5,234.0,187.5,234.5" stroke="black" stroke-width="2" fill="none" />
<polyline points="171.5,217.0,179.0,217.0,186.5,216.0,194.5,215.5,202.5,214.5,210.5,214.0,219.0,213.0,227.0,212.5,235.5,212.0,243.5,211.5,251.5,211.0,259.5,210.5,268.0,210.0,276.0,209.5,284.0,209.5,291.5,210.0,299.5,209.5,307.0,208.5,314.5,208.5,322.5,208.0,330.0,207.5,338.0,207.5,346.0,207.5,354.5,207.0,363.0,206.5,370.5,206.0,379.0,205.5,386.5,205.0" stroke="black" stroke-width="2" fill="none" />
<polyline points="187.5,164.5,179.5,172.0,171.0,179.0,162.5,186.0,154.5,193.5,146.0,200.5,137.5,208.0,129.5,215.5" stroke="black" stroke-width="2" fill="none" />
<polyline points="123.0,212.5,131.0,212.0,139.0,212.5,147.0,212.5,154.5,212.5,162.5,212.0,170.5,212.0,178.5,211.5,187.0,211.5,195.0,211.0,203.0,210.5,211.0,209.5,219.5,208.5,228.0,207.5,236.0,206.0,244.0,205.0,252.0,205.0,259.0,205.0,267.0,204.5,275.0,204.0,282.5,203.5,291.0,203.0,299.5,202.0,307.5,202.0,316.0,202.0,324.0,202.0,332.5,201.5,340.5,201.0,348.5,200.5,357.0,200.0,365.5,200.0,373.0,199.0,380.5,198.0,388.5,197.0,396.5,196.5,404.0,195.5,412.5,195.0" stroke="black" stroke-width="2" fill="none" />
<polyline points="196.0,169.5,188.0,170.0,180.0,171.0" stroke="black" stroke-width="2" fill="none" />
<polyline points="179.0,156.0,171.5,163.0,163.5,170.0,155.5,177.0,147.5,184.0,139.0,191.0,131.0,199.0,123.0,207.0" stroke="black" stroke-width="2" fill="none" />
<polyline points="124.5,200.0,132.0,193.0,140.0,185.0,147.5,177.0,155.0,169.0,163.0,162.0,170.5,154.0" stroke="black" stroke-width="2" fill="none" />
<polyline points="165.0,154.0,156.5,162.0,148.0,169.5,139.5,177.5,131.5,184.5,124.0,192.5,116.0,200.0" stroke="black" stroke-width="2" fill="none" />
<polyline points="114.0,202.5,122.0,202.0" stroke="black" stroke-width="2" fill="none" />
<polyline points="114.5,206.0,122.5,206.0,130.5,205.5,138.0,205.0,146.0,204.5,154.0,204.0,163.0,203.0,171.5,202.0,180.0,201.0,187.5,200.5,196.0,200.0,204.0,199.5,211.5,199.0,219.5,198.5,227.5,198.5,235.5,198.0,243.5,198.0,252.0,198.0,260.5,198.0,268.5,198.0,277.0,197.5,284.5,196.5,292.5,195.5,300.5,194.0,308.0,193.0,316.5,192.0,324.0,191.5,331.5,191.0,339.0,190.5,347.0,190.0,355.0,189.0,363.0,189.0,371.5,188.5,379.5,188.0,387.0,187.5,395.0,187.0,403.0,186.5,411.5,185.5,419.5,185.0,427.5,184.5" stroke="black" stroke-width="2" fill="none" />
<polyline points="164.5,148.5,156.5,155.5,148.5,163.5,140.0,171.5,132.0,179.0,124.0,186.5,116.5,194.0,109.0,201.0" stroke="black" stroke-width="2" fill="none" />
<polyline points="108.0,194.5,116.0,194.5,124.0,194.5,132.5,194.5,141.0,195.5,149.0,195.5,157.0,195.5,164.5,195.0,172.5,194.5,180.0,193.5,187.5,193.0,195.5,192.5,203.5,192.0,212.0,191.5,220.0,191.0,228.0,191.0,236.0,190.5,244.0,190.5,252.0,190.0,260.0,189.5,268.0,189.0,276.5,188.0,284.5,187.0,292.5,186.0,300.5,185.0,308.0,184.0,316.0,183.5,323.0,182.5,330.0,181.5,338.0,181.0,345.5,180.5,353.5,180.0,361.5,179.5,370.0,179.5,379.0,179.0,387.5,178.5,395.5,179.0,403.0,178.5,411.0,178.5,418.5,178.5,426.5,178.0,434.5,177.5" stroke="black" stroke-width="2" fill="none" />
<polyline points="178.5,232.5,171.0,233.0,163.0,233.5" stroke="black" stroke-width="2" fill="none" />
<polyline points="132.0,222.5,140.0,222.0,148.5,221.0,157.0,220.5,165.5,219.5,173.5,219.0,181.0,218.5,188.5,218.5,196.5,218.5,204.5,218.5,212.5,218.0,220.5,217.5,228.5,216.5,236.5,215.5,244.5,214.5,252.0,213.5,260.0,213.0,267.5,212.5,275.0,212.0,282.5,211.5,291.0,210.5,298.5,210.0,306.5,209.5,314.5,209.0,322.5,208.5,330.5,208.5,339.0,208.0,348.0,208.0,356.5,207.5,365.5,207.5,373.5,207.0,381.0,206.5,388.5,206.0,396.5,205.5,404.5,204.5" stroke="black" stroke-width="2" fill="none" />
<polyline points="155.0,149.0,147.0,156.5,139.0,163.5,130.5,170.5,121.5,177.5,112.5,185.0,105.0,192.0" stroke="black" stroke-width="2" fill="none" />
<polyline points="100.5,189.0,108.5,188.5,116.5,188.0,124.0,187.5,132.5,187.5,140.5,187.0,149.0,186.5,157.0,186.5,165.0,186.5,173.0,186.5,180.5,186.0,188.5,185.5,196.5,184.5,204.5,184.0,212.5,183.5,220.0,182.5,228.0,181.5,236.0,181.0,244.5,180.0,253.0,179.0,261.0,178.0,268.5,178.0,276.0,177.5,283.5,177.5,291.5,176.5,300.0,176.5,308.0,176.0,316.5,176.0,325.0,175.5,333.0,175.5,341.0,175.0,348.5,174.5,356.0,174.0,364.0,173.0,372.5,172.5,380.5,171.5,388.0,171.5,395.0,171.5,402.5,171.0,410.5,170.5,418.5,170.0,426.5,169.5,435.0,169.0,443.5,168.5" stroke="black" stroke-width="2" fill="none" />
<polyline points="154.5,138.0,146.5,146.0,138.5,154.0,130.5,162.0,122.5,169.5,114.5,177.0,107.0,184.5,99.0,191.5" stroke="black" stroke-width="2" fill="none" />
<polyline points="99.5,185.5,107.0,177.0,115.0,169.5,122.5,161.5,130.5,153.5,138.5,146.5,147.0,139.0" stroke="black" stroke-width="2" fill="none" />
<polyline points="141.0,138.0,132.5,146.0,124.0,154.5,115.5,162.0,107.5,169.5,99.0,177.0,92.0,184.5" stroke="black" stroke-width="2" fill="none" />
<polyline points="90.5,182.5,99.0,182.0,107.5,181.5,116.0,181.0,124.0,180.0,132.5,179.0,140.5,178.5,148.0,178.5,156.0,178.0,163.5,178.0,172.0,177.5,180.0,177.0,188.0,176.5,196.0,175.5,204.0,175.0,212.5,174.5,220.0,174.0,228.0,173.0,236.5,172.5,244.5,172.5,252.5,172.5,260.5,171.5,268.5,171.5,276.0,171.5,284.0,171.0,292.0,170.5,300.5,170.0,309.0,169.0,317.0,168.0,324.5,167.0,333.0,166.5,340.5,166.5,348.5,166.0,357.0,165.5,365.0,165.0,373.5,164.5,381.0,163.5,388.5,163.0,396.0,162.5,404.0,162.0,411.5,161.0,420.0,161.0,428.0,160.5,436.5,160.0,445.0,160.0,453.5,160.0" stroke="black" stroke-width="2" fill="none" />
<polyline points="142.0,132.0,133.5,140.0,125.0,148.0,116.5,155.5,108.5,162.5,100.0,169.0,91.5,176.5" stroke="black" stroke-width="2" fill="none" />
<polyline points="83.0,176.5,91.5,169.5,99.5,162.0,108.0,154.0,116.5,146.5,124.0,139.5,132.0,132.0" stroke="black" stroke-width="2" fill="none" />
<polyline points="132.5,121.5,124.5,129.5,116.5,137.5,109.0,145.5,101.0,153.5,93.5,161.5,85.0,169.0" stroke="black" stroke-width="2" fill="none" />
<polyline points="83.0,172.5,91.5,171.5,99.0,171.5,107.0,171.5,115.5,171.5,123.5,171.0,132.0,170.0,140.0,170.0,147.5,169.0,155.5,168.0,163.0,167.5,171.0,167.0,179.0,167.0,187.5,167.5,195.5,167.5,203.0,167.0,211.0,166.5,219.0,166.0,227.0,165.5,235.5,165.0,243.0,165.0,251.0,164.5,259.0,163.5,266.5,162.5,273.5,161.5,280.5,161.0,289.0,160.0,297.0,159.0,305.5,158.0,313.5,158.0,321.5,157.5,329.5,156.5,337.5,156.0,346.0,156.0,354.0,155.5,362.5,155.0,371.0,154.5,379.0,154.5,387.5,154.5,396.0,154.0,404.0,154.0,412.5,153.0,420.5,152.5,429.0,152.0,437.0,152.0,444.5,151.5,453.0,151.0" stroke="black" stroke-width="2" fill="none" />
<polyline points="419.5,176.0,411.5,177.0,404.0,177.0,396.0,177.5,388.5,178.0,380.5,178.5,372.5,178.5,365.0,179.0,357.0,179.5,349.0,179.5,341.0,179.5,332.5,180.0,324.5,180.0,316.0,180.0,307.5,180.0,299.0,181.0,291.0,181.5,283.5,182.0,276.5,183.0,269.0,184.0,261.0,185.0,253.0,186.0,245.5,186.5,237.0,187.0,229.0,188.0,220.5,189.0,212.5,189.5,204.5,190.0,196.5,190.5,188.0,190.0,179.5,189.5,171.5,190.0,164.0,190.5,156.0,191.0,148.5,192.0,141.0,192.5,132.5,193.0" stroke="black" stroke-width="2" fill="none" />
<polyline points="124.0,183.5,132.0,183.5,139.5,183.5,147.5,183.5,155.5,183.5,163.5,184.0,171.0,183.5,178.5,183.0,186.5,182.5,194.5,181.5,202.5,181.0,210.5,180.5,218.5,180.0,226.5,180.0,234.5,179.5,242.5,179.5,251.0,179.0,259.0,178.0,267.0,177.5,274.5,177.5,282.5,177.0,290.5,176.5,299.5,176.0,308.0,175.5,316.0,175.0,324.5,174.5,333.0,173.5,341.0,172.5,349.0,171.5,357.0,170.5,365.5,170.0,373.5,169.5,382.0,168.5,390.0,168.5,397.0,168.5,404.5,168.0,412.5,167.0,420.5,166.5,428.5,166.0" stroke="black" stroke-width="2" fill="none" />
<polyline points="236.5,171.0,228.5,172.0,220.5,172.5,212.5,173.0,204.5,173.5,196.5,174.0,188.5,174.5,180.0,174.5,171.5,175.0,163.5,175.5,155.5,175.5,147.0,176.0,138.5,176.0,130.0,176.0" stroke="black" stroke-width="2" fill="none" />
<polyline points="128.5,169.0,137.0,169.0,145.5,169.5,154.5,169.5" stroke="black" stroke-width="2" fill="none" />
<polyline points="146.5,158.5,138.5,159.0,130.5,159.5,123.0,160.5" stroke="black" stroke-width="2" fill="none" />
<polyline points="115.5,153.5,124.0,152.5,131.5,151.5" stroke="black" stroke-width="2" fill="none" />
<polyline points="117.0,167.0,109.0,167.5" stroke="black" stroke-width="2" fill="none" />
<polyline points="109.5,144.5,117.5,144.0,125.0,144.0,132.5,143.5" stroke="black" stroke-width="2" fill="none" />
<polyline points="123.5,122.0,115.5,129.5,108.0,138.0,100.5,146.0,92.5,154.0,85.0,162.0" stroke="black" stroke-width="2" fill="none" />
<polyline points="76.5,160.0,85.0,152.5,92.5,144.5,100.0,136.5,108.0,128.5,116.0,120.0,124.0,112.5" stroke="black" stroke-width="2" fill="none" />
<polyline points="115.5,114.0,107.5,121.5,100.0,129.0,92.0,136.5,84.0,144.5,75.5,153.0" stroke="black" stroke-width="2" fill="none" />
<polyline points="73.0,153.0,80.5,171.0,88.0,183.0,96.0,191.0,104.0,197.5,112.0,204.5,120.0,210.5,127.5,215.5,135.5,221.0,143.5,225.5,151.5,229.5,160.0,233.5,168.0,237.0,176.0,240.5,183.5,244.0" stroke="black" stroke-width="2" fill="none" />
<polyline points="123.0,220.0,114.5,220.5,106.5,220.5,98.5,220.5,91.0,221.0,83.5,221.5" stroke="black" stroke-width="2" fill="none" />
<polyline points="59.5,231.5,67.5,230.5,75.5,229.5,83.5,228.5,91.0,227.5,99.0,227.0,107.0,226.0,115.0,225.5,123.5,225.5,131.5,225.0,139.5,224.5,148.0,223.5,155.5,222.5,163.5,222.0,172.0,222.0,180.5,221.5,188.0,221.0,195.5,220.0,203.5,219.5,211.5,219.0,219.5,218.5,227.0,218.0,235.5,217.5,243.5,217.5,251.0,217.0,259.0,217.0,267.5,216.0,275.5,215.5,283.5,215.5,291.5,215.5,299.5,215.5,307.5,215.0,315.0,214.0,322.5,213.0,330.5,212.5,338.0,211.5,345.5,211.0,353.5,210.5,361.5,210.0,370.0,209.5,378.0,209.0,386.0,208.5" stroke="black" stroke-width="2" fill="none" />
<polyline points="108.0,115.0,100.0,122.5,92.5,130.5,84.0,138.5,76.0,146.0" stroke="black" stroke-width="2" fill="none" />
<polyline points="75.5,147.0,83.5,146.0" stroke="black" stroke-width="2" fill="none" />
<polyline points="76.5,150.0,84.5,149.5,93.5,149.0,101.5,148.5,109.0,148.0,117.0,147.0,124.5,146.5,132.0,146.0,140.0,145.5,148.0,145.5,155.5,145.5,163.5,145.0,171.0,144.0" stroke="black" stroke-width="2" fill="none" />
<polyline points="108.0,108.5,100.0,115.5,92.0,123.0,83.5,130.0,74.5,138.0" stroke="black" stroke-width="2" fill="none" />
<polyline points="75.0,138.0,83.5,138.0,92.0,137.5,100.5,137.0,108.0,136.5,116.0,135.5" stroke="black" stroke-width="2" fill="none" />
<polyline points="100.0,108.5,91.5,115.5,83.5,123.0,75.0,130.5" stroke="black" stroke-width="2" fill="none" />
<polyline points="75.0,129.0,83.0,128.5,91.0,128.5,99.5,128.0,108.0,128.0,115.5,127.5" stroke="black" stroke-width="2" fill="none" />
<polyline points="92.0,109.0,84.0,116.5,76.0,124.0" stroke="black" stroke-width="2" fill="none" />
<polyline points="73.5,123.5,82.0,122.5,91.0,122.0,99.5,121.0,107.5,120.0,115.5,119.5" stroke="black" stroke-width="2" fill="none" />
<polyline points="93.0,101.5,85.0,109.0,76.5,116.0" stroke="black" stroke-width="2" fill="none" />
<polyline points="74.0,114.5,82.5,114.0,90.0,112.5,98.5,111.5" stroke="black" stroke-width="2" fill="none" />
<polyline points="92.5,93.0,84.5,100.5,76.5,107.5" stroke="black" stroke-width="2" fill="none" />
<polyline points="73.5,109.5,81.5,108.5,90.0,108.0,98.5,107.5,107.0,106.5,115.0,106.5" stroke="black" stroke-width="2" fill="none" />
<polyline points="84.5,92.5,76.5,100.0,69.0,107.0" stroke="black" stroke-width="2" fill="none" />
<polyline points="67.5,101.0,75.0,100.5,83.0,99.5,90.5,99.0,97.5,98.0" stroke="black" stroke-width="2" fill="none" />
<polyline points="84.5,84.0,76.5,91.5,68.5,99.0" stroke="black" stroke-width="2" fill="none" />
<polyline points="67.5,95.5,75.5,96.0,83.5,96.0" stroke="black" stroke-width="2" fill="none" />
<polyline points="90.0,102.5,82.0,103.0,74.5,104.0" stroke="black" stroke-width="2" fill="none" />
<polyline points="68.5,93.0,76.5,92.5,83.5,92.0,91.0,91.5" stroke="black" stroke-width="2" fill="none" />
<polyline points="82.5,76.5,75.0,84.0,67.5,92.0" stroke="black" stroke-width="2" fill="none" />
<polyline points="68.5,89.0,76.5,89.0,84.5,88.0" stroke="black" stroke-width="2" fill="none" />
<polyline points="75.0,77.5,67.0,84.5,59.5,91.5" stroke="black" stroke-width="2" fill="none" />
<polyline points="61.0,86.0,68.5,85.5,76.5,84.5,84.5,84.0" stroke="black" stroke-width="2" fill="none" />
<polyline points="66.0,76.0,57.5,83.5" stroke="black" stroke-width="2" fill="none" />
<polyline points="55.5,83.0,63.5,93.0,71.5,112.0" stroke="black" stroke-width="2" fill="none" />
<polyline points="73.0,119.0,81.0,119.0,89.5,118.0,98.0,117.5,106.5,117.0,115.5,116.0,123.0,116.0" stroke="black" stroke-width="2" fill="none" />
<polyline points="148.0,130.0,139.5,130.5,131.5,130.5,123.0,131.0,115.0,131.0,107.5,131.0,99.0,131.5,90.5,132.0,82.5,132.5,75.0,133.0" stroke="black" stroke-width="2" fill="none" />
<polyline points="77.0,127.5,85.0,127.0,92.5,126.0,100.0,125.0,107.0,123.5,114.5,122.0,122.5,121.5,130.0,121.0,138.0,120.5" stroke="black" stroke-width="2" fill="none" />
<polyline points="195.0,151.0,186.5,152.0,178.5,152.5,170.0,153.0,162.0,153.5,154.0,154.0,146.0,155.0,138.5,155.0,131.0,155.0,123.0,155.0,115.0,155.5,107.5,156.0,99.5,157.0,92.0,157.0,84.0,157.5,76.5,158.0" stroke="black" stroke-width="2" fill="none" />
<polyline points="76.5,155.5,84.5,155.0" stroke="black" stroke-width="2" fill="none" />
<polyline points="77.0,166.0,85.0,165.5,92.0,164.5,99.5,164.0,106.5,163.5,114.0,163.0,122.0,162.5,130.0,163.0,138.5,162.5,146.5,162.0,154.5,161.5,162.5,160.5,169.5,159.5,177.5,158.5,185.0,157.5,193.5,157.0,201.5,156.5,210.0,156.0,218.5,155.5" stroke="black" stroke-width="2" fill="none" />
<polyline points="306.5,246.5,298.5,247.0,291.0,247.5,283.0,248.5,274.5,249.0,266.5,249.5,258.5,250.0,250.5,250.0,242.5,250.0,234.5,250.0,226.5,251.0,218.5,252.0,210.5,252.5,203.0,253.0,195.0,253.5,187.0,253.5,179.5,254.5,171.5,255.0,163.5,255.5,155.0,256.0,147.0,257.0,139.5,257.5,131.0,257.5,122.5,257.5,114.0,257.5,106.5,258.0,98.5,258.5,90.5,259.0,82.5,259.5,74.0,260.0" stroke="black" stroke-width="2" fill="none" />
<polyline points="57.5,251.5,65.5,251.0,73.5,250.5,81.5,250.0,89.5,249.5,98.0,249.0,106.0,248.5,113.5,248.0,122.0,248.0,130.5,247.5,139.0,247.5,146.5,246.5,154.5,246.0,162.5,245.5,170.5,245.5,178.5,245.5,186.5,245.0,195.5,245.0,204.0,245.0,212.5,244.5,220.5,244.5,229.0,243.5,237.0,243.0,245.0,242.5,253.0,242.0,261.0,241.0,269.0,241.0,277.5,241.0,285.5,240.5,294.0,240.0,302.5,240.0,310.0,239.0,317.5,238.0,325.0,237.0" stroke="black" stroke-width="2" fill="none" />
<polyline points="157.0,135.5,148.5,136.0,140.5,136.5,132.5,137.0,124.0,137.0,116.0,137.5,107.5,138.0,99.5,138.5,91.5,139.5,83.5,140.0,75.0,140.0,67.0,140.5" stroke="black" stroke-width="2" fill="none" />
<polyline points="59.0,80.5,67.0,80.5,75.5,80.0" stroke="black" stroke-width="2" fill="none" />
<polyline points="74.5,67.5,67.0,68.0" stroke="black" stroke-width="2" fill="none" />
<polyline points="58.0,74.5,55.0,82.5,61.0,91.0,65.0,99.0,68.5,107.0,71.5,115.0,72.0,123.0,71.5,130.5,71.0,138.0,71.5,146.0,73.0,154.0,76.0,162.0,80.0,170.0,85.5,178.5,92.5,187.0,100.5,195.5,110.0,204.0,119.5,212.0,131.5,220.0,145.5,228.0,162.0,236.5" stroke="black" stroke-width="2" fill="none" />
<polyline points="61.0,240.0,69.0,239.5,77.0,238.5,84.5,237.5,92.0,237.0,99.5,237.0,106.5,236.0,114.0,235.5,122.0,235.0,130.0,234.0,138.0,233.5,146.0,233.0,154.5,232.5,162.5,231.5,171.5,231.0,179.5,230.5,188.0,229.0,196.0,228.0,204.0,227.0,212.0,226.0,220.5,225.5,228.5,225.0,236.0,224.5,243.5,224.0,251.5,223.5,259.0,223.0,267.5,223.0,275.5,223.5,283.0,223.5,291.5,223.5,299.5,223.5,307.0,222.5,314.5,222.0,322.5,221.0,331.0,220.5,339.0,219.0,347.5,219.0,355.5,218.0,363.5,217.0" stroke="black" stroke-width="2" fill="none" />
<polyline points="348.0,226.5,340.5,227.0,332.0,228.0,324.5,229.0,316.5,230.5,308.5,231.5,301.0,232.5,292.5,233.0,284.5,233.0,276.0,233.0,267.5,233.0,259.5,233.0,251.5,233.5,243.5,233.5,235.5,234.0,228.0,234.5,220.0,235.0,211.5,235.5,204.0,236.0,195.5,237.0,187.0,238.0,178.0,239.0,170.0,239.5,162.0,240.0,154.5,240.5,146.5,241.0,138.5,241.0,131.0,242.0,123.0,242.0,115.0,242.5,107.0,243.0,98.5,243.0,91.0,243.5,83.5,244.5,75.5,245.0,67.5,245.0,59.0,245.5" stroke="black" stroke-width="2" fill="none" />
<polyline points="53.5,79.0,61.5,74.0,69.5,69.5,77.5,71.5,86.0,87.0,94.0,99.5,102.0,105.5,110.5,110.0,118.5,114.0,126.5,120.0,134.5,126.0,142.5,132.0,150.0,138.5,158.0,143.5,166.0,149.0,174.0,153.5,182.0,158.0,189.5,161.0,197.5,163.5,205.5,166.5,213.5,168.5,221.5,170.5,229.5,172.5,237.5,173.5,245.5,175.0,253.5,176.0,262.0,176.0,270.0,176.0,278.0,176.0,285.5,175.0,293.5,175.0,301.5,173.0,310.0,172.0,318.5,170.0,326.5,168.0,334.5,166.0,343.0,163.0,351.0,159.5,359.0,156.0,367.0,152.0,375.0,147.5,383.5,144.5,391.5,140.5,399.5,137.5,407.0,135.0,415.0,133.0,422.5,131.0,431.0,127.0,439.0,124.0,447.0,121.5,455.0,121.5,463.0,124.5,471.0,135.5,464.0,143.5" stroke="black" stroke-width="2" fill="none" />
<polyline points="82.5,75.0,74.0,75.0,65.5,75.0,57.0,75.0" stroke="black" stroke-width="2" fill="none" />
</svg>