<svg xmlns="http://www.w3.org/2000/svg" version="1.1"><polyline points="282.5,30.0,294.0,40.5,294.5,48.5,293.5,56.0,286.0,65.0,282.5,73.0,285.0,74.0,282.0,82.0,284.0,85.0,277.0,90.5,267.0,95.5,259.5,97.5,266.5,105.5,268.5,109.0,269.5,117.5,276.5,118.5,275.5,126.0,276.0,128.0,273.0,136.0,268.5,140.0,268.0,148.0,268.5,156.5,270.0,163.5,275.0,168.5,274.5,177.0,276.5,185.0,274.5,194.5,272.5,202.5,268.5,210.5,264.0,218.5,259.0,229.0,264.0,227.5,266.5,222.5,274.5,219.5,277.0,216.0" stroke="black" stroke-width="2" fill="none" />
<polyline points="274.5,211.5,282.5,211.0" stroke="black" stroke-width="2" fill="none" />
<polyline points="275.5,219.5,268.5,220.5,261.0,221.0,253.0,221.5,245.0,222.0" stroke="black" stroke-width="2" fill="none" />
<polyline points="248.0,224.5,256.0,223.5,257.5,225.5,265.5,218.5" stroke="black" stroke-width="2" fill="none" />
<polyline points="270.0,225.5,271.0,233.5,272.5,242.0,273.5,250.0,274.5,258.0,275.5,266.5,275.5,274.5,277.0,282.5,277.0,291.0,276.5,299.0,278.0,307.0,277.5,315.0,277.5,322.5,277.5,330.5,277.5,338.5,277.0,346.5,277.0,354.5,277.0,362.5,275.5,370.5,276.0,378.0,275.5,386.5,274.5,394.5,274.5,402.5,273.5,410.0,272.5,418.0,271.5,426.0,272.0,434.0,271.5,442.5,270.5,451.0,269.5,459.5,268.5,467.5,267.5,475.5,266.5,483.0" stroke="black" stroke-width="2" fill="none" />
<polyline points="268.0,480.0,276.5,479.0" stroke="black" stroke-width="2" fill="none" />
<polyline points="277.0,469.5,269.0,470.0" stroke="black" stroke-width="2" fill="none" />
<polyline points="269.0,463.5,277.5,462.5" stroke="black" stroke-width="2" fill="none" />
<polyline points="275.5,438.5,284.0,438.0" stroke="black" stroke-width="2" fill="none" />
<polyline points="283.0,429.0,275.5,429.5" stroke="black" stroke-width="2" fill="none" />
<polyline points="281.0,428.5,289.0,435.5,297.0,434.5" stroke="black" stroke-width="2" fill="none" />
<polyline points="293.5,427.5,296.0,418.5,296.0,420.5,295.5,423.5" stroke="black" stroke-width="2" fill="none" />
<polyline points="291.0,420.0,299.5,417.0" stroke="black" stroke-width="2" fill="none" />
<polyline points="295.5,416.5,291.0,424.5,296.5,421.0,304.5,425.0,301.5,433.0" stroke="black" stroke-width="2" fill="none" />
<polyline points="292.5,437.5,289.5,433.5,288.5,427.0" stroke="black" stroke-width="2" fill="none" />
<polyline points="282.5,422.0,274.5,422.0" stroke="black" stroke-width="2" fill="none" />
<polyline points="274.0,413.5,281.5,413.0" stroke="black" stroke-width="2" fill="none" />
<polyline points="282.5,414.5,290.5,408.5,298.0,407.0,306.0,410.0" stroke="black" stroke-width="2" fill="none" />
<polyline points="304.0,410.0,306.5,418.0,309.5,425.5" stroke="black" stroke-width="2" fill="none" />
<polyline points="324.0,438.0,332.0,437.5" stroke="black" stroke-width="2" fill="none" />
<polyline points="327.5,439.0,327.5,447.5,329.0,456.0,329.0,464.0" stroke="black" stroke-width="2" fill="none" />
<polyline points="331.5,468.5,323.5,468.5" stroke="black" stroke-width="2" fill="none" />
<polyline points="322.5,464.0,331.0,463.5" stroke="black" stroke-width="2" fill="none" />
<polyline points="332.5,453.5,324.5,454.0" stroke="black" stroke-width="2" fill="none" />
<polyline points="324.5,446.5,332.5,446.0" stroke="black" stroke-width="2" fill="none" />
<polyline points="332.0,475.0,324.0,475.0" stroke="black" stroke-width="2" fill="none" />
<polyline points="330.0,475.5,330.5,483.5" stroke="black" stroke-width="2" fill="none" />
<polyline points="333.0,512.0,341.0,512.0" stroke="black" stroke-width="2" fill="none" />
<polyline points="341.5,517.5,349.5,517.0,357.0,517.0" stroke="black" stroke-width="2" fill="none" />
<polyline points="347.5,517.0,339.5,524.0" stroke="black" stroke-width="2" fill="none" />
<polyline points="339.0,518.5,347.0,518.5,349.0,515.0,357.5,516.0,365.5,516.0,374.0,516.0,382.5,515.5,390.5,515.0,398.5,514.5,407.0,514.5,415.0,515.0,423.0,515.0,430.5,515.0,438.5,515.5,446.5,515.5,454.0,516.0,462.0,516.0,470.0,516.0,478.0,516.0,486.0,516.0,494.0,516.0,502.0,516.5,510.0,516.5" stroke="black" stroke-width="2" fill="none" />
<polyline points="498.5,540.5,490.0,540.0,482.5,540.0,474.5,538.5,467.0,538.5,455.0,539.5,447.0,539.5,439.0,540.0,429.5,540.0,421.0,540.5,410.0,542.5,415.0,539.5,414.5,526.0,417.0,525.0,412.0,519.0,404.0,521.0" stroke="black" stroke-width="2" fill="none" />
<polyline points="405.0,520.0,403.5,528.0,403.5,539.0,406.5,533.5,417.0,535.0,425.0,535.0,433.0,535.5,442.0,534.5,450.5,535.0,458.5,533.0,466.5,534.0,474.5,535.0,482.5,534.5,490.0,535.5,498.0,535.5" stroke="black" stroke-width="2" fill="none" />
<polyline points="506.5,511.0,498.0,511.0,490.0,510.5,482.0,510.5,474.0,510.5,465.5,511.0,457.5,511.0,450.0,511.0,442.0,511.0,434.0,511.0,426.0,511.0,418.0,511.0,410.5,510.5,402.5,510.5,394.0,510.5,386.0,510.5,378.0,511.0,370.5,511.0,362.5,511.5,354.5,511.5,346.5,511.5,338.5,511.5,330.0,511.5,322.5,511.5,314.5,511.5,306.5,511.5,298.5,511.5,290.5,511.5,282.5,511.5,274.5,511.5,266.0,511.5,258.0,511.5,250.0,511.5,242.0,511.5,234.0,511.5,226.0,511.5,218.5,512.0,210.5,512.0,202.5,512.0,194.5,512.0,186.5,512.5,178.5,512.5,171.0,512.5,163.0,512.5,154.5,512.5,146.5,512.5,138.5,512.0,130.5,511.5,122.5,511.5,114.5,511.5,106.5,511.5,99.0,511.5,91.5,511.5,83.5,511.5,75.5,511.5,67.5,512.0,59.5,512.0,51.5,511.5,43.5,512.0,35.0,513.0,26.5,513.0,18.5,513.0,10.0,513.0,2.5,511.5" stroke="black" stroke-width="2" fill="none" />
<polyline points="1.5,515.5,8.5,516.5,9.0,524.5,9.0,533.0,11.5,541.0" stroke="black" stroke-width="2" fill="none" />
<polyline points="9.5,539.5,17.5,543.0,25.5,543.5,33.5,539.5,46.5,535.0,53.5,542.5,61.5,542.5,69.0,542.0,77.0,539.0,81.0,535.0,89.0,535.0,97.0,529.0,105.5,530.0,113.5,530.0" stroke="black" stroke-width="2" fill="none" />
<polyline points="114.0,529.0,106.5,530.0,98.5,530.5,91.0,531.0,83.0,531.0,75.5,532.0,68.0,532.5,60.0,533.0,52.0,533.5,44.0,534.5" stroke="black" stroke-width="2" fill="none" />
<polyline points="50.0,533.5,58.0,536.5,65.5,536.0,73.5,536.0,82.0,533.0" stroke="black" stroke-width="2" fill="none" />
<polyline points="84.5,525.0,92.5,522.5" stroke="black" stroke-width="2" fill="none" />
<polyline points="91.5,517.0,99.5,516.5" stroke="black" stroke-width="2" fill="none" />
<polyline points="85.0,525.0,77.0,525.5" stroke="black" stroke-width="2" fill="none" />
<polyline points="76.0,515.0,68.0,514.5,60.5,514.5,52.5,514.5,43.5,514.5,34.5,514.5,25.5,515.0,17.5,515.0,9.5,515.5" stroke="black" stroke-width="2" fill="none" />
<polyline points="9.5,521.5,17.5,520.5" stroke="black" stroke-width="2" fill="none" />
<polyline points="16.5,524.0,25.0,521.0,14.5,524.5,16.0,533.0,21.0,526.5,27.0,521.5,28.5,530.0" stroke="black" stroke-width="2" fill="none" />
<polyline points="36.0,531.5,27.5,539.0" stroke="black" stroke-width="2" fill="none" />
<polyline points="20.5,539.5,28.0,532.5,36.0,524.5" stroke="black" stroke-width="2" fill="none" />
<polyline points="39.0,528.5,47.0,531.5,55.5,531.0,63.5,530.5,72.0,530.0,80.0,529.0,88.5,531.0,93.0,525.0,101.0,526.0" stroke="black" stroke-width="2" fill="none" />
<polyline points="95.0,536.0,103.0,536.0,111.0,533.0" stroke="black" stroke-width="2" fill="none" />
<polyline points="50.5,523.0,42.0,523.0,33.0,523.5,25.0,523.5,17.0,524.0,9.0,524.0" stroke="black" stroke-width="2" fill="none" />
<polyline points="12.5,523.0,20.5,515.5" stroke="black" stroke-width="2" fill="none" />
<polyline points="25.0,514.5,17.0,522.0,9.5,530.0" stroke="black" stroke-width="2" fill="none" />
<polyline points="9.5,533.0,17.0,532.5,25.0,532.0,33.5,531.5" stroke="black" stroke-width="2" fill="none" />
<polyline points="27.0,540.0,19.0,541.0" stroke="black" stroke-width="2" fill="none" />
<polyline points="18.5,535.0,26.0,535.0,33.5,535.0" stroke="black" stroke-width="2" fill="none" />
<polyline points="43.5,525.5,45.0,521.5,40.5,530.5,40.0,538.5,46.5,542.5,45.5,539.5,53.5,540.5,60.5,540.5,72.5,543.5,81.0,543.5,89.0,543.5,98.0,543.5,108.5,543.5,111.5,536.5,119.5,543.5,127.5,542.5,135.5,543.0,143.0,543.0,151.0,543.0,159.0,543.5" stroke="black" stroke-width="2" fill="none" />
<polyline points="170.5,475.5,178.5,475.5" stroke="black" stroke-width="2" fill="none" />
<polyline points="179.5,468.5,171.0,469.0" stroke="black" stroke-width="2" fill="none" />
<polyline points="172.5,460.0,180.5,459.5" stroke="black" stroke-width="2" fill="none" />
<polyline points="180.0,453.0,172.0,453.5" stroke="black" stroke-width="2" fill="none" />
<polyline points="172.0,437.5,180.0,437.0" stroke="black" stroke-width="2" fill="none" />
<polyline points="178.0,428.0,170.5,428.5" stroke="black" stroke-width="2" fill="none" />
<polyline points="169.5,420.0,178.0,419.5" stroke="black" stroke-width="2" fill="none" />
<polyline points="185.0,413.0,177.5,413.5,169.5,414.0" stroke="black" stroke-width="2" fill="none" />
<polyline points="170.5,406.5,178.0,405.5,186.0,404.5,194.5,404.0" stroke="black" stroke-width="2" fill="none" />
<polyline points="192.5,412.5,200.0,404.5,202.5,396.0" stroke="black" stroke-width="2" fill="none" />
<polyline points="197.5,395.5,189.5,403.5,181.5,408.0,185.5,408.5,180.5,420.5,193.0,412.5,201.0,405.0" stroke="black" stroke-width="2" fill="none" />
<polyline points="178.0,397.5,170.0,398.5" stroke="black" stroke-width="2" fill="none" />
<polyline points="170.5,391.5,179.0,391.0" stroke="black" stroke-width="2" fill="none" />
<polyline points="176.5,389.0,176.5,397.0,176.5,410.0,179.5,413.5,184.5,402.0,185.5,408.5,196.5,397.5" stroke="black" stroke-width="2" fill="none" />
<polyline points="221.5,387.5,229.0,387.0" stroke="black" stroke-width="2" fill="none" />
<polyline points="227.0,381.5,219.0,382.5" stroke="black" stroke-width="2" fill="none" />
<polyline points="219.5,374.5,227.0,374.0" stroke="black" stroke-width="2" fill="none" />
<polyline points="226.5,365.5,218.5,366.0" stroke="black" stroke-width="2" fill="none" />
<polyline points="219.0,357.5,227.0,357.0" stroke="black" stroke-width="2" fill="none" />
<polyline points="218.5,341.5,210.0,342.0" stroke="black" stroke-width="2" fill="none" />
<polyline points="212.0,331.5,220.0,331.0" stroke="black" stroke-width="2" fill="none" />
<polyline points="220.5,325.5,212.5,326.5" stroke="black" stroke-width="2" fill="none" />
<polyline points="213.0,320.5,221.0,319.5" stroke="black" stroke-width="2" fill="none" />
<polyline points="220.5,311.5,212.0,312.0" stroke="black" stroke-width="2" fill="none" />
<polyline points="211.0,283.5,202.5,284.0" stroke="black" stroke-width="2" fill="none" />
<polyline points="204.5,282.0,213.0,274.0,221.0,266.0" stroke="black" stroke-width="2" fill="none" />
<polyline points="220.0,274.5,212.0,275.0,204.0,275.5,196.0,276.0,187.5,276.5,180.0,277.0" stroke="black" stroke-width="2" fill="none" />
<polyline points="181.5,284.5,189.0,284.5" stroke="black" stroke-width="2" fill="none" />
<polyline points="184.5,285.0,192.5,286.5,200.5,284.5" stroke="black" stroke-width="2" fill="none" />
<polyline points="188.5,290.5,180.5,290.5" stroke="black" stroke-width="2" fill="none" />
<polyline points="185.5,293.5,187.5,293.0,191.0,296.0,192.5,304.0,194.5,304.5,192.5,312.5" stroke="black" stroke-width="2" fill="none" />
<polyline points="189.5,316.0,181.0,316.0" stroke="black" stroke-width="2" fill="none" />
<polyline points="179.0,327.0,187.0,326.5" stroke="black" stroke-width="2" fill="none" />
<polyline points="185.0,334.5,177.5,335.5" stroke="black" stroke-width="2" fill="none" />
<polyline points="171.0,310.0,179.0,310.0,187.5,310.0" stroke="black" stroke-width="2" fill="none" />
<polyline points="190.5,299.5,182.5,299.5" stroke="black" stroke-width="2" fill="none" />
<polyline points="184.5,298.5,192.5,302.5,187.5,309.5" stroke="black" stroke-width="2" fill="none" />
<polyline points="181.0,311.5,174.0,306.0,182.0,298.0,174.0,303.5" stroke="black" stroke-width="2" fill="none" />
<polyline points="170.0,299.5,171.0,302.5,174.0,310.5,177.5,311.5,175.0,319.5,177.0,328.0,176.5,335.5,176.5,343.5,175.5,352.0,175.5,360.0,174.5,368.0,174.5,376.0,173.0,384.0,173.0,392.0,173.5,400.0,172.5,408.0,172.0,415.5,172.0,423.5,162.0,431.5,154.0,437.5,154.5,445.5,159.0,446.5,167.0,434.5,169.5,434.5,175.5,438.5,175.5,447.0,175.5,455.0,176.5,463.0,177.0,471.0,177.0,478.5" stroke="black" stroke-width="2" fill="none" />
<polyline points="165.0,438.0,157.5,438.5" stroke="black" stroke-width="2" fill="none" />
<polyline points="153.5,436.5,161.5,431.5,169.5,426.5,173.5,433.5,174.0,441.5,174.0,449.5,174.5,457.5,174.5,465.5,175.5,473.5,175.5,481.5" stroke="black" stroke-width="2" fill="none" />
<polyline points="236.0,477.5,244.0,477.5" stroke="black" stroke-width="2" fill="none" />
<polyline points="245.5,470.5,237.5,470.5" stroke="black" stroke-width="2" fill="none" />
<polyline points="235.0,460.5,243.5,460.0" stroke="black" stroke-width="2" fill="none" />
<polyline points="236.0,444.0,237.0,452.0,240.0,463.0,240.5,471.0,240.0,479.0,240.5,487.5" stroke="black" stroke-width="2" fill="none" />
<polyline points="236.5,436.0,228.5,436.5" stroke="black" stroke-width="2" fill="none" />
<polyline points="228.0,427.5,236.0,427.5" stroke="black" stroke-width="2" fill="none" />
<polyline points="234.0,420.0,225.5,420.5" stroke="black" stroke-width="2" fill="none" />
<polyline points="226.5,414.0,234.0,414.0" stroke="black" stroke-width="2" fill="none" />
<polyline points="234.0,405.5,226.0,406.5" stroke="black" stroke-width="2" fill="none" />
<polyline points="227.5,396.5,236.0,396.5" stroke="black" stroke-width="2" fill="none" />
<polyline points="223.5,394.0,224.5,402.0,225.5,411.0,227.0,416.0,228.0,424.0,231.0,430.5,230.0,438.5,232.0,443.0,231.0,451.0,232.0,459.0,233.0,469.0,234.0,477.0,235.0,485.0" stroke="black" stroke-width="2" fill="none" />
<polyline points="273.5,483.5,275.0,475.5,276.0,468.0,277.0,460.0,278.5,452.5,279.0,444.5,280.0,436.5,281.0,429.0,281.0,420.5,282.0,412.5,282.0,404.5,283.0,396.5,283.0,388.5,284.0,380.0,284.5,372.0,284.0,364.0,285.0,356.5,284.5,348.5,284.5,341.0,284.5,333.5,283.5,325.0,291.5,317.0,298.5,308.5,302.0,300.5,299.0,297.5,307.0,287.5,315.5,282.5,316.5,279.5,308.0,286.0,300.0,286.0" stroke="black" stroke-width="2" fill="none" />
<polyline points="301.0,285.5,305.0,293.5,307.0,292.0" stroke="black" stroke-width="2" fill="none" />
<polyline points="307.0,283.5,315.5,283.5,323.5,283.0" stroke="black" stroke-width="2" fill="none" />
<polyline points="320.0,280.5,318.5,289.0,310.5,296.5" stroke="black" stroke-width="2" fill="none" />
<polyline points="314.5,294.0,307.0,295.0,299.0,295.5" stroke="black" stroke-width="2" fill="none" />
<polyline points="296.5,302.0,288.0,308.0,285.0,309.0,292.0,301.5" stroke="black" stroke-width="2" fill="none" />
<polyline points="298.0,306.5,290.0,308.0,282.0,309.0,274.5,310.0" stroke="black" stroke-width="2" fill="none" />
<polyline points="274.0,316.0,281.5,315.5,290.0,315.0" stroke="black" stroke-width="2" fill="none" />
<polyline points="283.5,324.5,275.0,325.0" stroke="black" stroke-width="2" fill="none" />
<polyline points="273.5,327.5,271.0,323.5,272.5,319.5" stroke="black" stroke-width="2" fill="none" />
<polyline points="276.5,302.5,284.5,301.5" stroke="black" stroke-width="2" fill="none" />
<polyline points="280.0,302.5,280.0,310.5,279.5,318.5,279.5,331.0,279.5,338.5,279.5,346.0,279.5,354.0,279.5,362.0,279.5,370.0,278.5,378.0,278.5,386.0,278.5,394.0,276.0,401.5,275.5,409.5,276.0,417.5,275.5,426.0,274.5,434.0,273.5,442.0,272.5,450.0,272.5,458.5,270.5,466.5,270.5,474.5,268.5,482.5" stroke="black" stroke-width="2" fill="none" />
<polyline points="322.5,484.5,322.5,477.0,323.5,469.0,323.5,460.5,323.0,452.5,324.0,444.0,325.0,435.5,325.0,427.5,326.5,420.0,327.5,412.0,327.5,404.0,329.5,396.0,329.5,388.0,330.5,380.0,333.0,371.5,334.0,364.0,335.5,356.0,336.5,347.5,338.0,339.5,338.5,332.0,339.5,324.0,341.5,316.5,343.5,308.5,345.0,301.0,346.5,293.5,346.5,285.5,344.0,277.5,345.0,266.5,352.0,260.5,348.0,253.0,351.5,244.5,357.0,237.5,357.0,229.0,354.5,220.5,354.0,212.0,362.0,205.0,362.5,200.0,366.0,192.0,373.5,184.5,376.5,176.5,375.0,175.5,376.0,168.0,378.0,160.0,381.0,152.0,383.0,144.0,382.0,148.0,381.0,146.0" stroke="black" stroke-width="2" fill="none" />
<polyline points="375.0,147.5,374.0,155.5,372.5,157.5,372.5,165.0,366.0,171.0,362.0,180.5,357.5,188.5,355.0,200.5,344.5,208.0,355.5,205.0" stroke="black" stroke-width="2" fill="none" />
<polyline points="354.0,212.0,345.5,212.0" stroke="black" stroke-width="2" fill="none" />
<polyline points="347.5,205.0,355.5,204.5,363.0,203.5" stroke="black" stroke-width="2" fill="none" />
<polyline points="364.0,188.5,371.5,188.0" stroke="black" stroke-width="2" fill="none" />
<polyline points="363.5,179.5,371.5,179.0,379.5,178.5" stroke="black" stroke-width="2" fill="none" />
<polyline points="379.5,167.5,371.5,168.0" stroke="black" stroke-width="2" fill="none" />
<polyline points="380.0,171.5,372.0,173.0,363.5,173.5" stroke="black" stroke-width="2" fill="none" />
<polyline points="362.5,177.0,354.5,178.0" stroke="black" stroke-width="2" fill="none" />
<polyline points="354.0,177.5,353.0,185.0,344.0,197.0,352.0,195.0,364.5,184.5" stroke="black" stroke-width="2" fill="none" />
<polyline points="346.0,174.0,338.5,181.0" stroke="black" stroke-width="2" fill="none" />
<polyline points="332.0,178.5,340.0,171.0,348.5,163.0,356.5,155.5" stroke="black" stroke-width="2" fill="none" />
<polyline points="346.0,157.0,338.0,164.0,330.0,171.0,322.0,178.5" stroke="black" stroke-width="2" fill="none" />
<polyline points="323.0,172.0,330.5,171.0,338.5,170.0,346.0,169.0" stroke="black" stroke-width="2" fill="none" />
<polyline points="348.0,170.0,339.5,170.5,331.5,170.5,323.5,171.0,315.0,172.0" stroke="black" stroke-width="2" fill="none" />
<polyline points="323.0,171.0,330.5,164.0,338.0,156.0,345.5,148.5" stroke="black" stroke-width="2" fill="none" />
<polyline points="345.0,144.5,341.0,142.0,340.0,133.5,335.0,128.0,327.0,126.0,318.5,127.5,310.5,134.5" stroke="black" stroke-width="2" fill="none" />
<polyline points="307.5,132.0,315.5,124.0,323.5,123.5,335.5,121.5,343.5,123.0,347.0,128.0,353.0,131.5,361.0,131.5,368.5,133.5,374.5,134.5,377.5,140.5,378.5,146.5,380.5,139.0,388.5,142.5,396.5,147.5,399.5,150.5" stroke="black" stroke-width="2" fill="none" />
<polyline points="405.0,139.5,397.5,140.0,389.5,141.0,381.5,141.5,373.5,141.5,365.5,141.5" stroke="black" stroke-width="2" fill="none" />
<polyline points="360.5,143.5,368.5,139.0,371.5,147.0,368.5,153.5,363.0,157.5" stroke="black" stroke-width="2" fill="none" />
<polyline points="366.5,150.5,374.5,150.0,382.5,150.0,390.0,149.0,397.0,148.0,404.5,147.5,412.5,147.0" stroke="black" stroke-width="2" fill="none" />
<polyline points="415.5,141.5,423.5,139.0,431.5,145.0,431.5,151.0,439.5,161.5,429.5,163.5,437.5,163.0,445.5,165.0,453.0,171.0" stroke="black" stroke-width="2" fill="none" />
<polyline points="462.0,164.5,469.5,164.0" stroke="black" stroke-width="2" fill="none" />
<polyline points="469.0,156.5,461.0,157.0" stroke="black" stroke-width="2" fill="none" />
<polyline points="450.5,162.0,442.5,162.5,435.0,163.0,427.0,163.5,419.5,164.0,411.5,165.0" stroke="black" stroke-width="2" fill="none" />
<polyline points="406.0,172.5,398.0,192.5,390.0,201.5" stroke="black" stroke-width="2" fill="none" />
<polyline points="393.5,199.5,401.5,199.0,410.0,198.0" stroke="black" stroke-width="2" fill="none" />
<polyline points="404.5,190.0,412.0,189.0,419.5,188.0,427.0,187.5" stroke="black" stroke-width="2" fill="none" />
<polyline points="425.5,193.5,431.5,183.5,438.0,189.5,442.0,192.0,450.5,199.5" stroke="black" stroke-width="2" fill="none" />
<polyline points="444.5,203.5,436.0,204.5,428.0,205.0,419.5,205.5" stroke="black" stroke-width="2" fill="none" />
<polyline points="420.0,200.0,428.5,199.5" stroke="black" stroke-width="2" fill="none" />
<polyline points="435.0,199.0,435.5,207.0,434.0,215.0" stroke="black" stroke-width="2" fill="none" />
<polyline points="427.5,213.0,436.0,212.5,444.5,212.0" stroke="black" stroke-width="2" fill="none" />
<polyline points="444.0,221.0,436.0,221.5" stroke="black" stroke-width="2" fill="none" />
<polyline points="437.5,198.0,446.0,197.0,454.0,196.5,462.0,195.5" stroke="black" stroke-width="2" fill="none" />
<polyline points="452.5,188.0,445.5,188.5,438.0,188.5" stroke="black" stroke-width="2" fill="none" />
<polyline points="436.0,192.5,436.0,200.5,436.0,208.5,435.5,216.5" stroke="black" stroke-width="2" fill="none" />
<polyline points="442.0,198.5,448.0,190.0,457.0,198.0" stroke="black" stroke-width="2" fill="none" />
<polyline points="452.5,181.0,445.0,181.5,437.0,181.5" stroke="black" stroke-width="2" fill="none" />
<polyline points="433.0,178.0,435.0,185.5,444.5,188.0,443.0,196.0,441.0,204.5,440.0,212.0,439.0,220.0" stroke="black" stroke-width="2" fill="none" />
<polyline points="431.5,206.5,433.5,198.0,430.0,186.0,422.0,197.0" stroke="black" stroke-width="2" fill="none" />
<polyline points="427.5,180.0,419.5,180.5,411.0,181.0,403.5,181.0" stroke="black" stroke-width="2" fill="none" />
<polyline points="401.5,172.5,410.0,172.0,418.0,171.0,425.5,170.0,433.0,169.5,441.0,169.0,449.5,168.5" stroke="black" stroke-width="2" fill="none" />
<polyline points="446.0,157.5,438.0,158.0" stroke="black" stroke-width="2" fill="none" />
<polyline points="427.0,154.0,419.0,154.0,410.5,154.5,402.0,155.0,394.0,155.5,386.0,156.0" stroke="black" stroke-width="2" fill="none" />
<polyline points="389.5,158.0,397.5,161.5,405.5,160.5,414.0,159.5,428.0,168.0,431.0,177.0,439.0,175.0,441.5,169.0,445.0,174.0,452.5,179.0" stroke="black" stroke-width="2" fill="none" />
<polyline points="460.0,168.0,456.5,160.5,457.0,156.5,460.0,148.0,449.0,143.0,441.0,142.0,441.5,142.0" stroke="black" stroke-width="2" fill="none" />
<polyline points="444.0,140.0,452.0,132.0" stroke="black" stroke-width="2" fill="none" />
<polyline points="451.0,124.0,443.0,131.5,435.0,138.5" stroke="black" stroke-width="2" fill="none" />
<polyline points="436.0,138.5,444.0,138.0" stroke="black" stroke-width="2" fill="none" />
<polyline points="443.5,138.5,435.0,138.5,427.0,138.5" stroke="black" stroke-width="2" fill="none" />
<polyline points="427.0,137.0,435.0,129.5,443.0,122.0,451.5,114.5" stroke="black" stroke-width="2" fill="none" />
<polyline points="443.5,115.0,436.0,122.0,428.0,129.5" stroke="black" stroke-width="2" fill="none" />
<polyline points="428.0,129.5,436.0,129.0,443.5,128.0" stroke="black" stroke-width="2" fill="none" />
<polyline points="435.0,115.0,427.5,122.5,419.5,130.0" stroke="black" stroke-width="2" fill="none" />
<polyline points="418.0,127.5,426.5,127.0,435.0,127.0,443.5,126.5,452.0,125.0,460.5,124.5" stroke="black" stroke-width="2" fill="none" />
<polyline points="464.0,123.5,454.5,131.5" stroke="black" stroke-width="2" fill="none" />
<polyline points="451.0,133.0,443.5,133.5,435.5,134.0,427.5,134.0,419.5,134.5" stroke="black" stroke-width="2" fill="none" />
<polyline points="426.0,144.5,433.5,151.5" stroke="black" stroke-width="2" fill="none" />
<polyline points="447.0,145.0,455.0,149.0" stroke="black" stroke-width="2" fill="none" />
<polyline points="450.0,143.5,458.0,146.5,466.0,153.5,474.0,147.5" stroke="black" stroke-width="2" fill="none" />
<polyline points="478.5,149.0,486.0,148.5" stroke="black" stroke-width="2" fill="none" />
<polyline points="473.5,152.5,473.5,160.5" stroke="black" stroke-width="2" fill="none" />
<polyline points="454.5,195.0,446.5,188.0,442.0,179.0,434.5,176.0" stroke="black" stroke-width="2" fill="none" />
<polyline points="431.5,176.0,440.0,180.0,448.0,181.0" stroke="black" stroke-width="2" fill="none" />
<polyline points="443.5,171.0,436.0,171.0,428.0,170.0" stroke="black" stroke-width="2" fill="none" />
<polyline points="420.5,162.0,419.5,170.0,423.0,179.5,418.0,186.5,420.5,189.0,417.5,197.5,420.0,206.0,422.0,211.5,429.0,213.0" stroke="black" stroke-width="2" fill="none" />
<polyline points="402.5,212.5,394.5,212.5" stroke="black" stroke-width="2" fill="none" />
<polyline points="394.5,205.5,402.5,205.0" stroke="black" stroke-width="2" fill="none" />
<polyline points="394.0,219.0,386.0,219.5" stroke="black" stroke-width="2" fill="none" />
<polyline points="386.0,227.0,394.0,227.0" stroke="black" stroke-width="2" fill="none" />
<polyline points="395.0,235.5,387.0,236.0" stroke="black" stroke-width="2" fill="none" />
<polyline points="388.0,261.0,379.5,261.0,371.5,261.5" stroke="black" stroke-width="2" fill="none" />
<polyline points="371.5,260.5,366.5,268.5,367.0,276.5,362.5,278.0,363.5,278.0,372.0,273.5,380.0,270.0" stroke="black" stroke-width="2" fill="none" />
<polyline points="394.0,274.5,386.0,275.0,378.5,275.0,371.0,275.0,363.0,274.5,355.5,274.5,347.5,275.0" stroke="black" stroke-width="2" fill="none" />
<polyline points="346.0,283.5,354.5,283.0,363.0,282.5,371.5,282.0,379.5,281.5,387.5,281.0,395.0,281.0" stroke="black" stroke-width="2" fill="none" />
<polyline points="387.0,291.5,378.5,292.0" stroke="black" stroke-width="2" fill="none" />
<polyline points="381.5,296.5,380.5,304.0,380.0,312.0,380.0,318.0,380.0,326.0,377.0,334.0" stroke="black" stroke-width="2" fill="none" />
<polyline points="379.5,329.0,379.5,337.0,379.5,345.0,379.5,353.0,378.5,361.0,378.5,369.5,378.5,378.0,378.5,386.5,378.5,394.5,378.5,402.5,379.5,410.5,379.5,418.5,380.0,426.5,380.0,434.5,381.5,442.0,379.5,450.0,379.0,458.0,379.0,465.5,380.0,473.5,381.0,482.5" stroke="black" stroke-width="2" fill="none" />
<polyline points="388.0,441.5,397.0,433.5,406.0,426.0,413.0,420.0,405.0,427.5,397.0,434.0,389.0,439.5" stroke="black" stroke-width="2" fill="none" />
<polyline points="394.5,436.5,402.5,436.0" stroke="black" stroke-width="2" fill="none" />
<polyline points="404.0,428.0,412.0,427.5" stroke="black" stroke-width="2" fill="none" />
<polyline points="409.5,423.5,417.5,422.5" stroke="black" stroke-width="2" fill="none" />
<polyline points="419.0,413.0,427.0,412.5" stroke="black" stroke-width="2" fill="none" />
<polyline points="421.0,404.5,429.5,404.5,437.0,404.0" stroke="black" stroke-width="2" fill="none" />
<polyline points="434.0,407.0,426.5,415.5,425.5,416.5,433.5,409.0,441.0,401.5" stroke="black" stroke-width="2" fill="none" />
<polyline points="378.5,414.0,370.5,414.5" stroke="black" stroke-width="2" fill="none" />
<polyline points="371.5,407.0,380.0,406.0" stroke="black" stroke-width="2" fill="none" />
<polyline points="378.5,416.5,378.0,424.5,378.0,433.0,378.0,441.0,381.0,449.5,381.5,457.5,382.0,465.5,382.0,473.5,383.0,481.5" stroke="black" stroke-width="2" fill="none" />
<polyline points="412.0,518.5,420.0,518.0" stroke="black" stroke-width="2" fill="none" />
<polyline points="420.5,524.5,412.5,524.5" stroke="black" stroke-width="2" fill="none" />
<polyline points="406.5,528.0,414.5,528.0,419.0,521.0,427.0,521.0,435.5,521.0" stroke="black" stroke-width="2" fill="none" />
<polyline points="440.0,525.5,432.0,525.5,424.5,524.5" stroke="black" stroke-width="2" fill="none" />
<polyline points="420.5,531.0,412.5,531.5,405.0,532.0" stroke="black" stroke-width="2" fill="none" />
<polyline points="376.0,486.0,375.5,478.0,374.5,470.0,374.0,462.0,374.0,454.0,372.5,446.5,372.0,439.0,372.0,431.0,371.0,423.0,371.0,415.0,371.0,407.0,371.0,399.0,370.5,391.0,371.0,382.5,371.5,374.5,371.5,366.5,372.5,358.0,372.5,349.5,373.0,341.5,374.5,334.0,374.5,326.0,376.0,318.0,376.0,310.0,376.5,302.0,377.0,294.0,382.0,290.0,384.5,283.0,376.5,284.5,368.0,287.5,360.5,285.5,358.5,274.5,362.5,266.5,361.5,271.5" stroke="black" stroke-width="2" fill="none" />
<polyline points="354.0,259.5,346.0,260.0,338.0,260.5,330.0,261.0,321.5,262.0" stroke="black" stroke-width="2" fill="none" />
<polyline points="321.0,255.5,329.5,255.0" stroke="black" stroke-width="2" fill="none" />
<polyline points="342.5,253.5,350.5,253.0,358.0,253.0" stroke="black" stroke-width="2" fill="none" />
<polyline points="349.0,260.0,351.0,267.5" stroke="black" stroke-width="2" fill="none" />
<polyline points="349.5,273.5,341.5,266.0,334.5,262.0,333.0,254.0,336.5,249.0,331.0,241.5,332.0,234.0,336.5,226.0,335.5,227.0" stroke="black" stroke-width="2" fill="none" />
<polyline points="339.5,222.5,339.5,230.5,336.0,238.0,332.5,247.0,332.5,251.0,341.0,260.5,351.0,270.0,364.5,265.5,370.0,259.5" stroke="black" stroke-width="2" fill="none" />
<polyline points="362.0,235.0,354.5,236.0,346.5,236.5" stroke="black" stroke-width="2" fill="none" />
<polyline points="364.0,242.5,355.5,243.0,348.0,243.0,340.0,243.0,332.0,243.5,324.5,244.0,316.0,245.0" stroke="black" stroke-width="2" fill="none" />
<polyline points="312.5,242.5,318.5,240.5,324.0,246.0,320.0,259.0,328.0,259.0,328.0,271.0,336.0,271.0,343.5,274.0" stroke="black" stroke-width="2" fill="none" />
<polyline points="340.0,272.0,332.0,270.0" stroke="black" stroke-width="2" fill="none" />
<polyline points="331.5,271.0,339.5,270.5,347.5,269.5,355.5,269.0,363.5,269.0,371.5,268.5,380.0,268.0,388.0,267.5" stroke="black" stroke-width="2" fill="none" />
<polyline points="388.0,298.5,380.0,298.5" stroke="black" stroke-width="2" fill="none" />
<polyline points="399.5,301.5,407.5,293.5,415.5,291.0,423.5,292.5,431.5,304.5" stroke="black" stroke-width="2" fill="none" />
<polyline points="423.5,311.0,423.0,303.0,425.5,298.5,413.5,304.5" stroke="black" stroke-width="2" fill="none" />
<polyline points="408.5,304.0,416.5,300.0,419.5,303.5,422.0,311.5" stroke="black" stroke-width="2" fill="none" />
<polyline points="429.5,314.0,432.5,306.0,430.5,300.5,426.5,294.5,419.5,293.5,411.5,293.5" stroke="black" stroke-width="2" fill="none" />
<polyline points="409.0,293.5,401.0,301.5,400.0,309.5,407.5,318.0,410.5,321.0,419.0,319.0" stroke="black" stroke-width="2" fill="none" />
<polyline points="413.5,316.5,406.0,314.5,403.0,314.5,400.0,307.0,401.0,299.0,409.0,290.5,402.0,301.5" stroke="black" stroke-width="2" fill="none" />
<polyline points="405.0,299.0,413.0,294.5,421.0,295.5" stroke="black" stroke-width="2" fill="none" />
<polyline points="420.5,304.5,412.5,302.0,410.5,309.0,407.5,307.5,412.5,299.5" stroke="black" stroke-width="2" fill="none" />
<polyline points="406.0,297.5,403.0,305.5,405.0,313.5,408.5,315.5,416.5,314.0" stroke="black" stroke-width="2" fill="none" />
<polyline points="379.5,348.5,372.0,348.5" stroke="black" stroke-width="2" fill="none" />
<polyline points="375.5,352.0,375.5,360.0,376.0,368.0,376.0,375.5,376.0,383.5,376.0,391.5,376.5,400.0,376.5,408.5,376.0,417.5,376.0,426.0,376.0,434.0,376.0,442.0,377.0,453.5,377.0,461.5,378.0,469.5,377.5,477.0,378.0,485.0" stroke="black" stroke-width="2" fill="none" />
<polyline points="340.5,413.5,333.0,414.0" stroke="black" stroke-width="2" fill="none" />
<polyline points="333.5,403.5,341.0,403.5" stroke="black" stroke-width="2" fill="none" />
<polyline points="339.5,397.0,331.0,397.5" stroke="black" stroke-width="2" fill="none" />
<polyline points="330.5,391.0,339.0,390.5" stroke="black" stroke-width="2" fill="none" />
<polyline points="339.5,379.5,331.5,380.0" stroke="black" stroke-width="2" fill="none" />
<polyline points="331.0,372.5,339.0,371.5" stroke="black" stroke-width="2" fill="none" />
<polyline points="335.0,369.5,336.0,378.0,333.0,382.5,334.0,390.5,333.5,400.0,331.0,405.5,330.5,414.0,331.5,422.0,329.5,424.0,330.5,431.5,328.5,435.0,329.5,443.0,326.5,456.5,326.5,466.0,325.0,475.0,325.0,483.0" stroke="black" stroke-width="2" fill="none" />
<polyline points="305.5,428.5,305.5,421.0,303.5,414.0,295.5,412.0,287.5,417.0" stroke="black" stroke-width="2" fill="none" />
<polyline points="283.0,418.5,291.0,409.5,299.0,409.0,306.5,413.5,309.5,414.5,312.0,420.0,311.0,428.0" stroke="black" stroke-width="2" fill="none" />
<polyline points="304.5,434.0,296.5,437.0,291.5,434.5,284.0,426.5,284.0,418.5,291.0,410.5" stroke="black" stroke-width="2" fill="none" />
<polyline points="294.5,408.0,291.5,414.0,287.0,422.0,289.0,429.5,294.5,433.0,302.5,429.0" stroke="black" stroke-width="2" fill="none" />
<polyline points="282.0,403.5,273.5,403.5" stroke="black" stroke-width="2" fill="none" />
<polyline points="274.0,396.5,282.0,396.0" stroke="black" stroke-width="2" fill="none" />
<polyline points="282.0,389.0,274.0,389.5" stroke="black" stroke-width="2" fill="none" />
<polyline points="275.0,381.0,283.5,380.5" stroke="black" stroke-width="2" fill="none" />
<polyline points="285.0,373.0,277.0,373.5" stroke="black" stroke-width="2" fill="none" />
<polyline points="276.5,365.5,284.5,364.5" stroke="black" stroke-width="2" fill="none" />
<polyline points="283.0,356.0,275.0,357.0" stroke="black" stroke-width="2" fill="none" />
<polyline points="331.5,366.0,339.5,365.5" stroke="black" stroke-width="2" fill="none" />
<polyline points="340.5,348.5,348.5,348.0" stroke="black" stroke-width="2" fill="none" />
<polyline points="348.5,340.5,341.0,341.0" stroke="black" stroke-width="2" fill="none" />
<polyline points="340.0,332.5,347.5,332.0" stroke="black" stroke-width="2" fill="none" />
<polyline points="349.0,325.5,340.5,326.0" stroke="black" stroke-width="2" fill="none" />
<polyline points="348.5,309.5,356.5,309.0" stroke="black" stroke-width="2" fill="none" />
<polyline points="355.5,300.0,347.5,300.5" stroke="black" stroke-width="2" fill="none" />
<polyline points="346.5,293.5,354.0,293.0" stroke="black" stroke-width="2" fill="none" />
<polyline points="373.5,341.5,380.5,340.5" stroke="black" stroke-width="2" fill="none" />
<polyline points="378.0,357.0,370.5,357.5" stroke="black" stroke-width="2" fill="none" />
<polyline points="371.5,364.0,379.0,364.0" stroke="black" stroke-width="2" fill="none" />
<polyline points="378.0,373.5,369.5,373.5" stroke="black" stroke-width="2" fill="none" />
<polyline points="371.0,381.0,379.5,380.5" stroke="black" stroke-width="2" fill="none" />
<polyline points="380.0,389.5,372.0,389.5" stroke="black" stroke-width="2" fill="none" />
<polyline points="283.5,291.5,275.5,292.0" stroke="black" stroke-width="2" fill="none" />
<polyline points="276.5,285.5,284.5,284.5" stroke="black" stroke-width="2" fill="none" />
<polyline points="283.0,278.0,275.0,278.5" stroke="black" stroke-width="2" fill="none" />
<polyline points="276.5,271.5,284.5,271.0" stroke="black" stroke-width="2" fill="none" />
<polyline points="281.5,274.0,281.5,282.0,282.0,290.0,282.0,298.0,283.0,305.5,283.0,313.5,286.0,320.0,294.0,312.0,302.0,304.5,308.0,299.0,315.5,291.0" stroke="black" stroke-width="2" fill="none" />
<polyline points="283.5,261.0,275.5,261.5" stroke="black" stroke-width="2" fill="none" />
<polyline points="278.0,251.5,286.0,251.5" stroke="black" stroke-width="2" fill="none" />
<polyline points="283.0,244.0,275.0,244.5" stroke="black" stroke-width="2" fill="none" />
<polyline points="273.5,236.0,281.5,235.5" stroke="black" stroke-width="2" fill="none" />
<polyline points="275.0,229.0,267.0,229.5" stroke="black" stroke-width="2" fill="none" />
<polyline points="242.0,243.5,234.0,244.0" stroke="black" stroke-width="2" fill="none" />
<polyline points="230.5,242.0,241.0,234.0,242.5,226.5,244.0,219.5,236.0,225.0,228.0,223.0,219.5,221.5" stroke="black" stroke-width="2" fill="none" />
<polyline points="212.0,214.0,219.5,213.5,227.5,212.5" stroke="black" stroke-width="2" fill="none" />
<polyline points="229.5,204.5,237.0,204.0,244.5,203.0" stroke="black" stroke-width="2" fill="none" />
<polyline points="236.5,201.5,244.5,194.0" stroke="black" stroke-width="2" fill="none" />
<polyline points="244.5,186.0,237.0,194.0,229.0,201.5" stroke="black" stroke-width="2" fill="none" />
<polyline points="229.0,198.5,237.0,198.0,244.5,198.0" stroke="black" stroke-width="2" fill="none" />
<polyline points="236.0,186.5,228.5,194.5" stroke="black" stroke-width="2" fill="none" />
<polyline points="233.5,193.5,225.5,193.5,218.0,194.0" stroke="black" stroke-width="2" fill="none" />
<polyline points="221.5,194.0,230.0,187.0,237.5,179.5" stroke="black" stroke-width="2" fill="none" />
<polyline points="229.5,179.0,221.0,186.5,213.0,194.0" stroke="black" stroke-width="2" fill="none" />
<polyline points="219.0,197.5,227.0,197.0,235.0,196.5,243.0,196.0,251.5,195.0" stroke="black" stroke-width="2" fill="none" />
<polyline points="252.0,185.0,243.0,185.5,234.0,186.0,225.5,186.5,217.0,187.0,209.0,188.0" stroke="black" stroke-width="2" fill="none" />
<polyline points="217.5,183.0,226.0,182.5,235.0,182.0,243.5,181.5" stroke="black" stroke-width="2" fill="none" />
<polyline points="248.0,176.5,239.5,177.0,231.5,173.5,223.5,172.5" stroke="black" stroke-width="2" fill="none" />
<polyline points="222.5,165.5,231.5,157.5,222.5,166.0,222.0,174.0,232.0,186.0,238.0,191.5,239.0,199.5,235.0,212.0,233.0,208.5,241.0,205.5,244.0,205.5,246.0,196.5,254.0,197.0,262.0,191.0,270.0,189.0,278.0,184.5,285.0,179.0,293.0,178.0,300.0,181.0,313.5,181.5" stroke="black" stroke-width="2" fill="none" />
<polyline points="313.5,172.0,321.0,165.0,329.0,157.0,337.0,149.0" stroke="black" stroke-width="2" fill="none" />
<polyline points="341.0,151.5,343.0,159.5,341.0,168.5,329.5,178.5,329.5,182.0,336.5,181.0,344.5,174.5,344.5,166.5" stroke="black" stroke-width="2" fill="none" />
<polyline points="345.0,164.0,340.0,172.0,342.0,180.0,343.5,188.0" stroke="black" stroke-width="2" fill="none" />
<polyline points="342.0,198.5,350.0,198.0" stroke="black" stroke-width="2" fill="none" />
<polyline points="346.0,207.0,345.0,207.0,336.0,199.0,336.0,204.0,328.0,210.5,320.0,206.0,312.0,205.5,304.5,198.5" stroke="black" stroke-width="2" fill="none" />
<polyline points="307.5,196.5,300.0,197.0" stroke="black" stroke-width="2" fill="none" />
<polyline points="291.5,188.5,299.5,188.0,307.5,187.0,315.5,186.5,323.5,186.5" stroke="black" stroke-width="2" fill="none" />
<polyline points="316.0,179.5,308.0,180.5,299.5,181.0,291.5,181.5,283.5,182.0,275.0,182.5,267.0,183.0" stroke="black" stroke-width="2" fill="none" />
<polyline points="265.0,187.0,256.0,195.0" stroke="black" stroke-width="2" fill="none" />
<polyline points="265.5,192.5,257.5,198.5,249.5,205.5,255.5,200.0,265.5,192.0" stroke="black" stroke-width="2" fill="none" />
<polyline points="267.0,193.0,269.0,201.0,262.0,209.5,259.0,218.0" stroke="black" stroke-width="2" fill="none" />
<polyline points="236.5,227.0,237.5,235.0" stroke="black" stroke-width="2" fill="none" />
<polyline points="239.0,253.0,238.5,251.0,236.5,256.0,228.5,261.0,223.5,268.5,215.5,272.5,217.0,263.0,223.0,255.0,230.5,253.0,237.5,244.0,233.0,241.0,225.5,244.5,217.5,243.5" stroke="black" stroke-width="2" fill="none" />
<polyline points="219.5,239.5,211.5,240.0" stroke="black" stroke-width="2" fill="none" />
<polyline points="208.5,238.0,201.0,231.5" stroke="black" stroke-width="2" fill="none" />
<polyline points="199.0,224.0,202.0,232.0,208.0,240.0,206.5,248.0,206.5,255.5,206.0,263.5,208.0,267.0,216.5,276.5,225.0,275.5,235.0,268.5,241.0,269.5,239.5,265.0,241.5,260.5,249.5,256.5,250.0,254.0,257.5,253.0" stroke="black" stroke-width="2" fill="none" />
<polyline points="259.5,252.5,251.0,253.0,243.5,253.5,235.5,254.5,227.5,255.0,220.0,255.5" stroke="black" stroke-width="2" fill="none" />
<polyline points="224.5,251.5,217.5,260.0,220.0,267.5,228.0,261.5" stroke="black" stroke-width="2" fill="none" />
<polyline points="226.5,257.0,221.5,264.5,224.5,273.0,232.0,269.0,236.5,262.0,246.5,263.5,254.0,265.5" stroke="black" stroke-width="2" fill="none" />
<polyline points="250.5,258.5,259.0,259.0" stroke="black" stroke-width="2" fill="none" />
<polyline points="260.0,255.5,252.0,256.0,245.0,256.0,237.0,256.5,229.5,257.5,221.5,258.0,213.5,258.5,205.0,258.5,197.0,258.5,189.0,259.0,181.0,260.0" stroke="black" stroke-width="2" fill="none" />
<polyline points="180.0,252.0,187.5,251.5,196.0,251.5" stroke="black" stroke-width="2" fill="none" />
<polyline points="189.5,250.5,192.0,254.0,195.0,261.5,198.0,261.5,198.5,269.5,203.5,277.5,206.5,283.5,217.0,280.0,225.0,280.0,233.0,279.5,241.0,272.5" stroke="black" stroke-width="2" fill="none" />
<polyline points="234.5,275.0,231.0,271.0,234.5,263.0,239.5,262.0,237.5,262.0" stroke="black" stroke-width="2" fill="none" />
<polyline points="244.5,261.5,236.5,262.0,228.5,263.5,220.5,264.5,212.5,266.0,204.0,267.0,195.5,267.5,187.0,268.5,178.0,269.0,169.5,269.5,161.5,270.5" stroke="black" stroke-width="2" fill="none" />
<polyline points="163.0,270.5,164.0,267.5,172.5,268.5,179.5,275.5,183.5,273.5,192.0,275.0,200.0,277.0" stroke="black" stroke-width="2" fill="none" />
<polyline points="213.0,278.5,221.0,278.0,229.5,276.0" stroke="black" stroke-width="2" fill="none" />
<polyline points="228.5,256.0,223.0,256.0,228.0,261.5,236.5,253.5" stroke="black" stroke-width="2" fill="none" />
<polyline points="187.5,244.5,179.5,244.5" stroke="black" stroke-width="2" fill="none" />
<polyline points="176.5,239.5,185.0,239.0" stroke="black" stroke-width="2" fill="none" />
<polyline points="181.0,231.0,188.5,230.5" stroke="black" stroke-width="2" fill="none" />
<polyline points="181.5,221.5,189.5,221.0,197.0,220.0,204.5,219.5" stroke="black" stroke-width="2" fill="none" />
<polyline points="215.5,212.5,207.5,209.5,199.5,198.5" stroke="black" stroke-width="2" fill="none" />
<polyline points="199.5,197.0,207.5,195.5" stroke="black" stroke-width="2" fill="none" />
<polyline points="202.5,198.0,194.5,198.5" stroke="black" stroke-width="2" fill="none" />
<polyline points="194.0,196.0,202.0,208.0" stroke="black" stroke-width="2" fill="none" />
<polyline points="214.0,193.0,207.0,192.5,210.0,188.5,215.0,180.5,211.5,173.0,211.5,165.5,202.5,157.5" stroke="black" stroke-width="2" fill="none" />
<polyline points="207.5,159.5,215.5,154.5,224.0,153.5,224.5,157.0,219.5,164.5,219.5,172.0,218.5,179.0,226.0,181.0,234.0,181.0" stroke="black" stroke-width="2" fill="none" />
<polyline points="225.0,200.0,221.5,202.0,219.5,210.5,221.5,219.5,219.5,218.5,227.5,215.5,235.5,216.0,243.5,215.0,247.5,223.0,255.5,217.5" stroke="black" stroke-width="2" fill="none" />
<polyline points="267.5,190.5,275.0,189.5" stroke="black" stroke-width="2" fill="none" />
<polyline points="279.0,186.5,279.0,195.0,281.5,203.0,278.5,213.5,282.0,217.5,281.0,219.0" stroke="black" stroke-width="2" fill="none" />
<polyline points="280.0,195.5,287.5,198.5,295.5,200.5,303.5,201.0,311.5,208.0,319.5,208.0,327.0,213.0,334.5,206.0,342.5,201.5" stroke="black" stroke-width="2" fill="none" />
<polyline points="336.0,206.0,327.0,214.0" stroke="black" stroke-width="2" fill="none" />
<polyline points="328.0,210.0,333.0,202.0" stroke="black" stroke-width="2" fill="none" />
<polyline points="323.5,228.5,314.5,228.5,306.5,228.5" stroke="black" stroke-width="2" fill="none" />
<polyline points="309.5,228.0,315.5,226.5,328.5,234.5,329.5,247.5,325.0,251.0,333.5,244.0,347.0,240.5,354.0,236.0,352.5,249.5,347.0,257.5,348.0,265.5,350.0,273.5,355.0,284.5,362.5,286.0,364.5,293.0,372.5,291.0,376.0,284.5,368.5,292.5" stroke="black" stroke-width="2" fill="none" />
<polyline points="340.0,235.0,332.0,235.0,323.5,235.5,315.5,236.0" stroke="black" stroke-width="2" fill="none" />
<polyline points="317.5,232.5,318.5,238.0,326.5,239.0" stroke="black" stroke-width="2" fill="none" />
<polyline points="328.0,239.0,320.0,232.0,312.0,229.0" stroke="black" stroke-width="2" fill="none" />
<polyline points="310.5,230.5,317.5,233.5,325.0,236.5,327.5,243.5,333.5,239.5" stroke="black" stroke-width="2" fill="none" />
<polyline points="335.0,262.5,327.0,253.0,324.5,255.0,316.5,251.5,319.0,248.0,311.0,245.5" stroke="black" stroke-width="2" fill="none" />
<polyline points="308.0,224.0,316.0,225.5,324.0,230.5,332.0,235.0,342.0,235.0,341.0,243.5,341.5,257.5,354.5,253.5,357.5,256.5,356.5,264.5,360.0,267.0,355.5,275.0,353.5,283.0,353.5,291.0,362.0,289.5,362.0,282.5,369.5,282.5,372.0,278.5,380.0,279.0,388.0,278.0,396.0,279.0" stroke="black" stroke-width="2" fill="none" />
<polyline points="423.0,209.0,421.5,204.5,424.5,196.5,424.0,191.0,419.5,187.0,413.5,191.5,412.5,183.5,411.5,184.0,415.5,177.0" stroke="black" stroke-width="2" fill="none" />
<polyline points="379.5,156.5,372.0,157.0" stroke="black" stroke-width="2" fill="none" />
<polyline points="356.5,164.5,348.0,164.5,339.0,165.0,331.0,165.0,323.0,165.5,314.5,166.0,307.0,167.0" stroke="black" stroke-width="2" fill="none" />
<polyline points="309.0,165.0,317.0,168.0" stroke="black" stroke-width="2" fill="none" />
<polyline points="314.0,164.5,322.5,157.0,331.0,149.5" stroke="black" stroke-width="2" fill="none" />
<polyline points="331.0,142.5,339.5,141.5,348.0,141.0" stroke="black" stroke-width="2" fill="none" />
<polyline points="356.5,146.0,348.0,146.0,339.5,147.0,331.5,147.5,323.0,148.0,315.0,148.5" stroke="black" stroke-width="2" fill="none" />
<polyline points="308.0,156.5,315.5,156.0,323.5,156.0,332.0,156.0,341.0,154.5,349.0,154.5,357.0,154.0" stroke="black" stroke-width="2" fill="none" />
<polyline points="347.5,160.5,340.0,161.0,332.0,162.5,324.5,163.5" stroke="black" stroke-width="2" fill="none" />
<polyline points="328.5,148.5,320.0,151.5,308.0,140.0" stroke="black" stroke-width="2" fill="none" />
<polyline points="298.0,140.0,290.0,140.5,282.0,141.0" stroke="black" stroke-width="2" fill="none" />
<polyline points="281.0,135.5,289.0,137.5" stroke="black" stroke-width="2" fill="none" />
<polyline points="285.5,130.0,288.5,127.0,290.5,137.0,284.5,143.0,292.0,142.0,306.0,150.0,315.0,146.0,323.5,143.0,331.5,141.0,336.5,151.0,341.5,153.5,351.5,150.0,355.5,159.0,363.5,160.5" stroke="black" stroke-width="2" fill="none" />
<polyline points="371.0,139.5,379.0,133.5,380.0,131.0,387.0,139.0,391.5,146.0,388.5,160.0,392.5,156.0,401.0,155.0" stroke="black" stroke-width="2" fill="none" />
<polyline points="399.0,137.5,407.0,134.5,415.0,143.0,419.0,151.0,417.0,159.0,416.5,170.0,417.0,177.5,415.0,181.5,409.0,186.5,411.5,194.5,405.5,202.5,410.5,196.5,407.0,181.5,415.5,164.0,418.5,159.0,425.5,161.0,433.0,160.5,437.0,158.5,448.0,162.5,456.0,163.5,464.0,169.0,472.5,167.5" stroke="black" stroke-width="2" fill="none" />
<polyline points="453.0,115.5,444.5,116.5,436.5,117.5,428.5,118.5,420.5,119.5" stroke="black" stroke-width="2" fill="none" />
<polyline points="420.0,121.0,428.0,113.5,436.0,106.5" stroke="black" stroke-width="2" fill="none" />
<polyline points="443.5,107.0,435.0,108.0,427.0,109.0" stroke="black" stroke-width="2" fill="none" />
<polyline points="422.5,110.5,422.5,118.0,423.0,130.5,430.0,133.5" stroke="black" stroke-width="2" fill="none" />
<polyline points="425.5,121.5,433.5,121.0" stroke="black" stroke-width="2" fill="none" />
<polyline points="429.0,115.0,420.5,118.0,412.5,114.0,404.5,110.5,397.0,116.5" stroke="black" stroke-width="2" fill="none" />
<polyline points="394.0,119.0,402.0,118.5" stroke="black" stroke-width="2" fill="none" />
<polyline points="401.5,126.5,393.5,127.5" stroke="black" stroke-width="2" fill="none" />
<polyline points="391.0,135.0,394.0,133.0,401.5,143.0,406.5,146.0,414.5,153.0,425.0,153.5,432.5,154.0" stroke="black" stroke-width="2" fill="none" />
<polyline points="399.0,153.0,391.0,154.0,383.0,154.0,375.0,152.0,367.0,152.5,359.5,160.5,353.5,166.5,344.0,164.0,336.0,173.0,328.5,175.0,327.5,180.5,319.0,171.5,314.0,160.5,314.0,152.0,321.5,146.0,332.5,139.5,337.5,135.5,333.0,127.5,328.0,123.0,335.0,121.0,333.0,115.5,329.0,112.5,332.0,104.0,338.0,104.0,339.0,96.0,345.0,88.5,345.0,80.5,338.0,68.0,330.0,58.5,332.5,50.5,320.5,51.5,312.5,58.5,310.0,63.0" stroke="black" stroke-width="2" fill="none" />
<polyline points="307.5,61.0,299.5,69.0,291.0,76.5,283.0,83.5" stroke="black" stroke-width="2" fill="none" />
<polyline points="284.0,83.0,292.0,82.5,300.5,82.0,308.5,81.0" stroke="black" stroke-width="2" fill="none" />
<polyline points="313.5,76.5,305.5,84.0,297.5,91.5" stroke="black" stroke-width="2" fill="none" />
<polyline points="296.0,95.0,296.5,103.0,296.5,110.5,298.5,118.5,301.5,128.5,301.5,136.5,303.0,144.0,301.0,148.0,298.5,153.0,292.5,161.0,292.0,169.0,291.5,176.0,304.5,185.0,297.5,193.0,301.5,201.5" stroke="black" stroke-width="2" fill="none" />
<polyline points="294.5,188.0,290.0,194.0,294.0,187.0,290.0,185.0" stroke="black" stroke-width="2" fill="none" />
<polyline points="284.5,181.0,285.5,189.0,290.5,197.0" stroke="black" stroke-width="2" fill="none" />
<polyline points="300.0,175.5,308.0,180.5,316.0,181.0" stroke="black" stroke-width="2" fill="none" />
<polyline points="316.5,176.0,304.5,178.5,298.0,180.5,298.0,172.5,294.5,164.5,294.5,163.0" stroke="black" stroke-width="2" fill="none" />
<polyline points="296.5,158.5,304.0,156.0,312.0,157.0,324.0,154.0,332.0,150.0" stroke="black" stroke-width="2" fill="none" />
<polyline points="333.0,124.5,340.5,123.5" stroke="black" stroke-width="2" fill="none" />
<polyline points="348.5,126.5,357.0,125.5,364.5,125.0,372.5,125.0" stroke="black" stroke-width="2" fill="none" />
<polyline points="372.0,132.0,380.0,131.5,387.5,131.0,395.0,131.0,403.0,131.0" stroke="black" stroke-width="2" fill="none" />
<polyline points="406.0,133.0,413.0,141.0,415.5,149.0,423.5,153.5,426.5,168.0,421.0,174.0,426.0,177.5,429.5,185.5,427.5,193.5,426.5,201.5,427.0,210.0,429.0,215.0,431.5,222.5,433.5,225.5" stroke="black" stroke-width="2" fill="none" />
<polyline points="372.0,138.0,379.5,130.5" stroke="black" stroke-width="2" fill="none" />
<polyline points="366.0,131.5,368.0,139.5,363.0,147.5,362.0,155.5,352.0,156.0,358.5,163.0,366.0,163.5,372.0,167.0" stroke="black" stroke-width="2" fill="none" />
<polyline points="343.0,188.5,335.5,190.0,327.5,190.0,319.5,187.0,312.0,183.0,302.0,184.0,294.0,183.0,291.0,180.0,286.0,172.0,283.0,163.5,286.0,155.5,290.5,147.5,293.5,140.5,297.0,139.0,290.0,133.0,282.0,132.0,277.0,130.0,269.0,129.0,260.5,130.0,252.5,128.5,244.5,126.5,243.0,121.0,245.0,113.5,243.0,113.0,235.5,112.0,228.0,108.0" stroke="black" stroke-width="2" fill="none" />
<polyline points="226.5,105.5,234.5,103.0,237.5,107.0,245.5,107.0,253.5,113.0,255.5,122.0" stroke="black" stroke-width="2" fill="none" />
<polyline points="257.0,118.5,265.0,124.5" stroke="black" stroke-width="2" fill="none" />
<polyline points="266.0,130.0,273.5,123.0" stroke="black" stroke-width="2" fill="none" />
<polyline points="275.0,123.0,282.5,117.0,293.5,121.0,301.5,120.5,305.5,118.5,313.5,117.5,321.0,117.5" stroke="black" stroke-width="2" fill="none" />
<polyline points="324.0,116.5,332.0,116.0,340.5,116.0" stroke="black" stroke-width="2" fill="none" />
<polyline points="340.0,109.0,332.0,109.5" stroke="black" stroke-width="2" fill="none" />
<polyline points="332.5,102.5,340.0,102.0" stroke="black" stroke-width="2" fill="none" />
<polyline points="330.0,91.0,322.0,91.0,314.5,91.5,306.5,91.5,298.5,92.0,290.0,92.0" stroke="black" stroke-width="2" fill="none" />
<polyline points="290.0,90.5,297.5,83.0,305.5,75.5,313.5,68.0" stroke="black" stroke-width="2" fill="none" />
<polyline points="307.5,70.0,299.0,77.0,290.5,84.5,282.0,91.5" stroke="black" stroke-width="2" fill="none" />
<polyline points="288.0,88.5,279.5,91.0,275.5,96.0,268.0,97.0,260.0,95.0" stroke="black" stroke-width="2" fill="none" />
<polyline points="260.5,86.0,253.0,86.5" stroke="black" stroke-width="2" fill="none" />
<polyline points="249.0,92.0,257.0,86.0,265.0,88.0,273.0,85.0" stroke="black" stroke-width="2" fill="none" />
<polyline points="277.0,85.0,284.5,84.5,292.5,84.0,300.0,83.5,307.5,82.5,315.0,82.0" stroke="black" stroke-width="2" fill="none" />
<polyline points="315.0,85.0,307.0,92.5" stroke="black" stroke-width="2" fill="none" />
<polyline points="302.0,94.5,297.5,102.5,299.5,110.5,302.5,118.5,298.0,127.0" stroke="black" stroke-width="2" fill="none" />
<polyline points="293.0,122.0,284.5,129.0" stroke="black" stroke-width="2" fill="none" />
<polyline points="287.0,127.5,295.0,126.5" stroke="black" stroke-width="2" fill="none" />
<polyline points="299.0,132.0,291.0,133.0,283.0,133.5,275.0,133.5,267.5,134.5" stroke="black" stroke-width="2" fill="none" />
<polyline points="268.5,137.0,276.5,130.0" stroke="black" stroke-width="2" fill="none" />
<polyline points="270.0,138.0,277.0,141.0,283.5,152.5,282.5,160.5,280.0,169.0,284.0,176.5,281.5,184.5,282.5,193.0,283.0,195.0,284.5,202.5,275.5,207.5,271.5,215.5,276.0,229.0,277.0,237.0,278.0,244.5,278.0,249.0,279.0,256.5,279.5,264.5,280.0,271.0,278.0,279.0,277.0,287.0,279.0,293.0,278.0,302.0,278.5,310.0,279.0,321.5,279.0,329.5,279.0,337.5,279.5,345.0,280.0,353.0,280.0,360.5,280.0,368.5,279.0,377.5,278.5,386.5,277.5,395.0,279.0,404.0,278.5,412.5,277.5,421.0,276.0,430.5,275.0,438.5,274.0,447.0,273.5,455.0,273.5,463.0,272.0,471.0,271.0,478.5,270.5,486.5,270.0,487.5" stroke="black" stroke-width="2" fill="none" />
<polyline points="178.0,381.5,169.5,382.0" stroke="black" stroke-width="2" fill="none" />
<polyline points="131.0,395.5,123.0,396.5" stroke="black" stroke-width="2" fill="none" />
<polyline points="122.0,388.0,130.5,388.0" stroke="black" stroke-width="2" fill="none" />
<polyline points="131.0,379.5,123.0,379.5" stroke="black" stroke-width="2" fill="none" />
<polyline points="122.5,372.0,131.0,371.5" stroke="black" stroke-width="2" fill="none" />
<polyline points="123.5,368.0,123.5,376.0,124.0,384.5,123.0,392.5,123.0,400.5,122.0,408.5,122.5,417.0,122.0,425.5,122.0,434.0,122.0,441.5,120.5,449.5,121.0,457.5,120.5,465.5,120.0,473.5,119.5,481.5,120.5,489.5" stroke="black" stroke-width="2" fill="none" />
<polyline points="76.0,421.0,68.0,421.5" stroke="black" stroke-width="2" fill="none" />
<polyline points="73.5,420.0,65.5,414.5,57.5,412.5" stroke="black" stroke-width="2" fill="none" />
<polyline points="56.0,411.5,49.5,419.0,48.5,426.5,54.0,426.5,60.5,421.5,64.5,420.5" stroke="black" stroke-width="2" fill="none" />
<polyline points="63.5,412.0,72.0,420.0,71.5,428.5" stroke="black" stroke-width="2" fill="none" />
<polyline points="65.5,429.0,65.5,429.5,57.5,433.5,50.0,424.5" stroke="black" stroke-width="2" fill="none" />
<polyline points="49.0,422.0,57.0,413.0,46.0,415.0,45.0,423.0,46.0,431.5" stroke="black" stroke-width="2" fill="none" />
<polyline points="45.0,429.5,53.5,437.5" stroke="black" stroke-width="2" fill="none" />
<polyline points="47.5,427.0,56.0,435.0,64.0,436.0,72.0,433.0" stroke="black" stroke-width="2" fill="none" />
<polyline points="69.0,429.0,68.0,421.0,65.0,412.5,57.0,412.5,49.5,416.5" stroke="black" stroke-width="2" fill="none" />
<polyline points="51.0,413.0,48.0,421.0,50.0,429.0" stroke="black" stroke-width="2" fill="none" />
<polyline points="45.5,417.0,53.5,408.0,61.5,406.5,69.5,408.0,76.0,417.0,76.0,425.0" stroke="black" stroke-width="2" fill="none" />
<polyline points="124.5,363.5,132.5,363.0" stroke="black" stroke-width="2" fill="none" />
<polyline points="132.0,355.5,124.5,356.5" stroke="black" stroke-width="2" fill="none" />
<polyline points="122.5,349.0,131.0,348.0" stroke="black" stroke-width="2" fill="none" />
<polyline points="131.0,340.0,122.5,340.0" stroke="black" stroke-width="2" fill="none" />
<polyline points="123.5,334.0,131.5,333.5" stroke="black" stroke-width="2" fill="none" />
<polyline points="133.0,326.0,125.0,326.5" stroke="black" stroke-width="2" fill="none" />
<polyline points="123.0,318.0,131.0,317.5" stroke="black" stroke-width="2" fill="none" />
<polyline points="130.0,307.5,122.0,308.0" stroke="black" stroke-width="2" fill="none" />
<polyline points="117.0,300.5,109.0,308.0" stroke="black" stroke-width="2" fill="none" />
<polyline points="115.0,310.5,107.0,311.0,99.0,311.5" stroke="black" stroke-width="2" fill="none" />
<polyline points="98.0,305.5,106.0,304.5,109.0,308.5,110.5,314.5,111.0,315.0" stroke="black" stroke-width="2" fill="none" />
<polyline points="112.5,304.0,104.5,302.0" stroke="black" stroke-width="2" fill="none" />
<polyline points="104.5,298.0,112.5,299.0" stroke="black" stroke-width="2" fill="none" />
<polyline points="105.5,298.0,98.0,305.5" stroke="black" stroke-width="2" fill="none" />
<polyline points="85.5,303.5,93.5,302.5,101.5,301.5,109.0,300.5,116.5,299.5,124.5,298.0,132.0,297.5,140.0,296.5" stroke="black" stroke-width="2" fill="none" />
<polyline points="140.5,292.0,132.0,299.5" stroke="black" stroke-width="2" fill="none" />
<polyline points="131.5,283.5,139.0,283.0,147.0,283.0,155.0,283.0" stroke="black" stroke-width="2" fill="none" />
<polyline points="154.5,275.0,146.5,274.5,138.0,275.0,130.0,275.0" stroke="black" stroke-width="2" fill="none" />
<polyline points="130.0,269.5,138.0,269.0,146.0,268.0,154.0,267.5" stroke="black" stroke-width="2" fill="none" />
<polyline points="148.0,260.0,154.0,258.0,151.5,259.5,143.0,261.0,145.0,263.0,140.5,271.0,133.5,274.5,134.0,282.5,133.5,292.5,139.5,291.5" stroke="black" stroke-width="2" fill="none" />
<polyline points="147.5,288.5,139.5,289.5,132.0,290.0,124.0,291.5,116.0,292.0,107.5,293.0,99.5,294.0,91.5,295.0,84.0,295.5" stroke="black" stroke-width="2" fill="none" />
<polyline points="76.0,292.0,68.0,292.5" stroke="black" stroke-width="2" fill="none" />
<polyline points="67.5,286.5,75.5,286.0,83.5,285.0" stroke="black" stroke-width="2" fill="none" />
<polyline points="83.0,280.5,80.5,288.5,73.0,296.5,77.0,302.5,80.5,298.5,83.5,299.0,92.0,300.5,99.5,297.5,108.0,295.0" stroke="black" stroke-width="2" fill="none" />
<polyline points="118.0,305.5,108.0,306.0,100.0,311.0,97.5,306.0,95.5,309.0,91.5,304.0,98.5,296.0,90.5,302.0,82.0,301.0,74.0,300.0" stroke="black" stroke-width="2" fill="none" />
<polyline points="67.5,300.5,59.5,301.0" stroke="black" stroke-width="2" fill="none" />
<polyline points="55.0,303.5,63.0,295.5,65.0,284.5,72.5,285.5,80.0,278.0" stroke="black" stroke-width="2" fill="none" />
<polyline points="79.5,279.0,68.5,286.5,62.5,296.0,64.5,299.5,62.0,307.5,54.0,316.0,45.0,319.0,45.0,323.0,53.0,315.0,60.5,309.0,68.0,302.0,75.5,293.0,83.5,286.0,89.5,291.5,98.0,292.0,106.0,292.0,114.0,292.5,123.0,297.5,134.5,297.0,142.5,293.0,150.5,289.0" stroke="black" stroke-width="2" fill="none" />
<polyline points="152.5,277.5,150.0,284.0,146.0,288.0,149.5,280.0,146.5,279.5,153.0,276.5,156.0,268.5,158.0,260.5,159.0,253.0,154.0,256.0" stroke="black" stroke-width="2" fill="none" />
<polyline points="149.0,253.0,157.5,252.5,165.5,251.5" stroke="black" stroke-width="2" fill="none" />
<polyline points="172.0,257.0,180.0,256.0" stroke="black" stroke-width="2" fill="none" />
<polyline points="171.5,258.0,180.5,265.5,186.0,270.5,183.5,280.0,180.5,282.5,177.0,290.5,169.0,293.5,164.0,301.0,164.0,309.0,168.0,316.5,172.5,318.5,186.0,315.5,194.0,311.0" stroke="black" stroke-width="2" fill="none" />
<polyline points="189.5,311.0,190.5,303.5,177.5,295.5,169.0,299.5" stroke="black" stroke-width="2" fill="none" />
<polyline points="164.0,300.0,172.0,292.0,174.5,299.5,165.5,299.5,164.5,307.5,170.0,316.0,179.0,321.0,180.0,329.5,178.5,333.5,181.5,342.5,181.5,350.5,182.0,359.0,181.0,367.0,181.0,374.5,180.5,382.5,179.0,390.0,178.5,398.0,178.5,406.0,178.5,414.0,173.5,427.0,169.5,435.0,171.5,439.0,171.5,447.0,171.5,455.0,171.0,463.0,171.0,471.0,171.0,479.0,171.5,487.0" stroke="black" stroke-width="2" fill="none" />
<polyline points="180.0,488.0,180.0,482.0,180.0,474.0,180.0,466.0,180.0,457.5,180.0,449.5,178.5,441.5,178.5,433.5,179.0,426.0,179.0,422.0,176.0,421.0,175.0,413.0,175.0,405.0,174.5,397.0,174.5,389.5,176.5,384.5,176.0,377.0,178.0,372.5,178.0,365.0,177.5,357.0,180.0,352.0,180.0,343.5,183.0,336.0,182.5,328.0,183.5,320.0,181.5,314.5,184.5,306.5,185.0,299.0,185.5,291.0,179.5,279.0,171.5,278.0" stroke="black" stroke-width="2" fill="none" />
<polyline points="167.0,277.0,175.0,275.0,177.0,273.5,185.5,267.5,190.5,280.5" stroke="black" stroke-width="2" fill="none" />
<polyline points="163.0,261.5,155.0,262.5,147.0,263.0,139.0,263.5,131.0,263.5" stroke="black" stroke-width="2" fill="none" />
<polyline points="134.0,262.0,142.0,255.0,137.0,259.5,137.0,265.5,137.0,274.0,136.0,279.0,134.0,288.5,136.5,295.5,131.5,304.0,130.5,314.0,130.0,322.5,129.5,330.0,128.5,338.0,128.5,346.0,127.5,353.5,127.5,361.5,127.0,369.5,127.0,377.5,127.0,385.5,126.5,394.0,125.5,402.0,125.5,410.0,126.0,418.0,125.5,425.5,124.5,433.5,124.5,441.0,124.5,449.0,124.5,457.0,124.5,465.0,124.5,473.0,124.5,481.0" stroke="black" stroke-width="2" fill="none" />
<polyline points="122.5,482.0,122.5,474.0,122.5,466.0,122.5,458.5,124.0,450.5,124.0,442.5,124.5,434.0,124.5,426.0,124.0,418.5,125.5,410.5,125.5,402.5,125.5,394.5,126.5,385.5,125.5,374.5,125.5,366.5,124.0,358.5,123.5,350.0,125.5,349.0,124.5,341.0,124.0,332.5,126.0,331.5,125.0,323.5,127.0,319.5,126.5,311.5,127.0,304.0,128.0,296.5,125.5,295.0,127.0,287.0,127.5,279.5,128.5,271.5,128.5,263.5,129.5,255.0,129.5,247.5,129.5,240.0,129.0,232.0,128.0,224.0,126.0,216.0,131.0,209.5,131.5,198.0,128.5,196.0,127.0,203.0,119.0,204.0,116.0,209.0,108.0,212.5,100.0,218.5,94.5,222.5,105.5,221.0,106.0,213.0,115.0,205.0,116.5,205.5,126.5,200.5,133.5,193.0,135.5,185.0,139.5,177.0,144.5,168.5,147.5,158.5,150.0,150.0,152.0,142.5,150.5,130.0,150.5,122.0,154.5,114.5,144.5,106.5" stroke="black" stroke-width="2" fill="none" />
<polyline points="146.5,104.0,154.0,103.5,161.5,103.0" stroke="black" stroke-width="2" fill="none" />
<polyline points="165.0,106.0,173.0,98.5" stroke="black" stroke-width="2" fill="none" />
<polyline points="174.0,91.0,165.5,98.5,157.5,105.5" stroke="black" stroke-width="2" fill="none" />
<polyline points="148.0,104.5,156.0,97.0,164.0,89.0,172.0,81.0" stroke="black" stroke-width="2" fill="none" />
<polyline points="164.0,82.0,156.0,90.0,147.5,97.5,139.0,105.0" stroke="black" stroke-width="2" fill="none" />
<polyline points="138.0,103.0,146.0,102.0,154.5,101.5,162.5,101.0,170.5,100.0" stroke="black" stroke-width="2" fill="none" />
<polyline points="164.0,108.0,155.5,108.5,147.5,108.5" stroke="black" stroke-width="2" fill="none" />
<polyline points="146.0,97.5,154.0,96.5,162.0,96.5,170.5,96.0" stroke="black" stroke-width="2" fill="none" />
<polyline points="161.5,87.0,153.0,87.5,145.5,88.5" stroke="black" stroke-width="2" fill="none" />
<polyline points="138.5,90.0,146.5,82.5,154.5,75.5" stroke="black" stroke-width="2" fill="none" />
<polyline points="160.5,79.0,168.5,83.0" stroke="black" stroke-width="2" fill="none" />
<polyline points="163.5,73.5,155.5,81.5,147.5,89.5,139.5,97.5" stroke="black" stroke-width="2" fill="none" />
<polyline points="137.5,92.0,145.5,91.5,154.0,91.5,162.0,91.5,170.0,91.5,178.0,91.0" stroke="black" stroke-width="2" fill="none" />
<polyline points="202.5,94.0,210.5,93.5" stroke="black" stroke-width="2" fill="none" />
<polyline points="222.5,94.5,231.0,94.5,239.0,96.5,247.5,93.5,253.5,103.5,255.5,105.0,255.0,118.0,254.5,123.0,251.5,123.5" stroke="black" stroke-width="2" fill="none" />
<polyline points="249.0,122.5,257.0,125.5,265.5,126.0" stroke="black" stroke-width="2" fill="none" />
<polyline points="252.5,127.0,260.5,126.0,268.5,125.0,276.5,124.0,285.0,122.5,292.5,121.5,300.5,121.0,308.0,120.5" stroke="black" stroke-width="2" fill="none" />
<polyline points="313.5,124.0,307.0,131.5,308.5,140.0,310.5,147.5,311.0,157.0,309.5,160.0,309.5,168.0,311.0,176.0,318.0,181.0,309.0,187.0,310.0,189.5,306.0,197.0,300.0,194.0,308.0,202.0" stroke="black" stroke-width="2" fill="none" />
<polyline points="307.5,224.0,311.5,232.0,310.0,240.5,313.0,248.5,322.0,255.5,319.5,261.5,326.0,270.0,330.5,263.0,339.0,267.0" stroke="black" stroke-width="2" fill="none" />
<polyline points="393.0,282.5,389.5,287.0,387.5,284.0,379.5,284.0,385.5,272.0,386.5,264.0,387.5,256.5,389.5,248.5,390.5,240.5,393.0,232.5,395.0,225.0,397.0,217.0,399.5,209.5,402.0,201.5,404.0,193.5,408.0,186.0,410.0,177.5,414.0,169.5,422.0,158.5,410.0,152.5,406.0,145.5,400.0,137.0,403.5,128.0,400.0,120.0,399.0,115.5,403.5,108.5,404.5,101.0,397.5,100.5" stroke="black" stroke-width="2" fill="none" />
<polyline points="396.0,99.5,393.5,107.5,395.5,109.5,403.5,108.0,414.5,109.5,422.5,109.5,427.5,105.0,435.0,107.0,440.0,115.0,447.5,107.0,455.0,98.0,458.5,101.5,467.0,107.5,475.0,112.5" stroke="black" stroke-width="2" fill="none" />
<polyline points="474.5,110.0,479.5,117.5,480.0,125.0,480.0,133.0,483.5,140.5,478.5,148.5,480.5,156.5,475.5,164.5" stroke="black" stroke-width="2" fill="none" />
<polyline points="451.5,183.5,444.0,175.5,448.5,170.5,444.5,161.5,437.5,153.0,436.0,144.5,430.0,138.5,419.0,137.0,417.0,127.0,414.0,119.0,409.0,111.0,412.0,108.5,407.5,100.5,412.0,92.5,403.0,79.5,399.5,72.0,399.5,64.0,406.5,56.0,401.0,66.0" stroke="black" stroke-width="2" fill="none" />
<polyline points="398.0,65.5,406.5,57.5,415.0,55.5,423.0,57.5,431.5,69.0,432.0,71.0,429.0,79.0" stroke="black" stroke-width="2" fill="none" />
<polyline points="425.5,83.0,434.0,82.5" stroke="black" stroke-width="2" fill="none" />
<polyline points="433.5,89.0,441.5,84.0,449.5,87.0,457.5,93.5" stroke="black" stroke-width="2" fill="none" />
<polyline points="451.5,87.0,456.5,95.0,450.5,103.5,447.5,110.0,450.0,114.5,457.0,124.5,465.0,120.5,473.0,121.5" stroke="black" stroke-width="2" fill="none" />
<polyline points="455.5,102.5,452.0,110.0,449.0,118.0,445.0,127.0,443.5,134.5,434.5,141.5,428.5,143.0,437.0,151.5,445.0,158.5,453.0,159.5,459.5,160.5,470.0,153.0,479.0,147.5" stroke="black" stroke-width="2" fill="none" />
<polyline points="510.0,93.0,509.0,87.5,510.0,83.5" stroke="black" stroke-width="2" fill="none" />
<polyline points="451.0,85.5,459.0,93.5,462.5,101.5,466.0,110.0,475.0,109.5,476.0,117.5,478.0,125.5,471.0,126.5,476.0,134.0,478.0,142.0,473.0,148.5,465.0,153.5,464.5,162.5,467.5,163.0,478.0,159.0" stroke="black" stroke-width="2" fill="none" />
<polyline points="436.0,111.5,427.0,112.0,435.5,116.0,433.5,104.0,433.0,96.0,429.0,88.0" stroke="black" stroke-width="2" fill="none" />
<polyline points="427.5,87.5,420.0,87.5,412.0,90.0" stroke="black" stroke-width="2" fill="none" />
<polyline points="411.0,92.0,403.5,92.5,395.5,92.5" stroke="black" stroke-width="2" fill="none" />
<polyline points="389.5,100.5,397.5,93.0,405.0,89.0,412.5,86.5,420.5,80.0,429.0,76.0" stroke="black" stroke-width="2" fill="none" />
<polyline points="421.5,70.0,423.0,66.0,415.0,61.5,407.0,62.5" stroke="black" stroke-width="2" fill="none" />
<polyline points="408.5,60.0,405.0,68.0,407.0,76.0,409.0,83.0,416.5,83.5" stroke="black" stroke-width="2" fill="none" />
<polyline points="425.5,73.0,425.5,65.0,413.0,56.5,412.0,57.5,404.0,61.5" stroke="black" stroke-width="2" fill="none" />
<polyline points="408.0,58.0,416.5,56.0,424.5,59.0" stroke="black" stroke-width="2" fill="none" />
<polyline points="425.0,62.0,414.5,64.0,409.5,73.0,411.5,72.0,408.0,70.0,412.0,62.5" stroke="black" stroke-width="2" fill="none" />
<polyline points="409.5,57.5,402.5,65.5,401.5,73.5,409.5,81.5,409.0,81.5,416.5,81.0,425.5,84.5,433.5,81.5,441.5,77.5,449.5,83.0,457.5,88.0,465.0,103.0,473.5,107.0" stroke="black" stroke-width="2" fill="none" />
<polyline points="451.0,137.5,442.5,139.5,430.5,141.0,422.0,137.5,421.5,133.0,414.0,135.0,406.5,131.5,396.0,122.0,391.0,131.0,383.5,130.0,376.0,127.5,368.5,125.0,360.5,124.0,352.5,121.0,343.5,119.0,335.5,116.5,329.0,119.5,321.0,120.0,313.0,121.0,304.5,126.0,293.0,131.0,288.0,124.0,282.5,119.5,277.5,133.0,275.5,140.5,279.5,135.5,279.0,123.5,279.0,120.0,284.0,116.0,286.5,110.0,288.5,102.0,294.5,94.0,294.5,88.5,288.5,86.5" stroke="black" stroke-width="2" fill="none" />
<polyline points="287.0,87.0,285.0,94.5,283.0,102.5,276.0,110.0,284.0,113.0,292.0,96.0,301.0,96.0,309.5,93.5,317.5,96.5,325.5,93.5" stroke="black" stroke-width="2" fill="none" />
<polyline points="317.0,96.5,329.0,104.5,323.0,112.5,325.0,109.0,331.5,111.0" stroke="black" stroke-width="2" fill="none" />
<polyline points="337.5,105.0,337.0,96.5,329.0,96.5,340.5,91.0,342.0,82.5,342.0,74.0,340.0,66.0,341.0,61.5,333.0,56.5" stroke="black" stroke-width="2" fill="none" />
<polyline points="332.5,60.5,340.0,60.5" stroke="black" stroke-width="2" fill="none" />
<polyline points="337.5,73.0,330.0,72.5" stroke="black" stroke-width="2" fill="none" />
<polyline points="317.0,60.5,309.0,61.0,300.0,61.0,291.5,61.5,283.0,61.5" stroke="black" stroke-width="2" fill="none" />
<polyline points="281.5,59.0,289.0,56.0" stroke="black" stroke-width="2" fill="none" />
<polyline points="300.0,59.5,291.5,67.0,283.5,74.0" stroke="black" stroke-width="2" fill="none" />
<polyline points="291.5,73.5,299.0,72.5,307.0,72.0" stroke="black" stroke-width="2" fill="none" />
<polyline points="314.5,66.5,306.5,67.5,299.0,68.5,291.5,69.5,283.5,71.0,275.0,71.5" stroke="black" stroke-width="2" fill="none" />
<polyline points="276.0,77.5,283.5,76.5,291.5,76.0,299.5,75.5,307.5,75.0,315.0,74.5,323.0,73.5" stroke="black" stroke-width="2" fill="none" />
<polyline points="316.0,54.0,308.0,54.5" stroke="black" stroke-width="2" fill="none" />
<polyline points="305.0,58.0,313.0,48.0,313.5,47.0,310.5,55.0,313.5,64.5,317.5,73.0,315.5,71.0,323.0,69.0,333.5,62.5" stroke="black" stroke-width="2" fill="none" />
<polyline points="338.0,70.5,329.5,73.0,321.5,77.5,316.5,83.5,304.0,89.0,308.0,81.5,309.5,72.5,302.5,65.5,304.0,57.5,313.0,56.0,316.5,46.5,315.5,38.0,310.0,37.0,302.0,34.0,294.5,36.0,287.0,31.5,279.5,29.5,271.5,36.5,263.0,42.0,255.0,47.0" stroke="black" stroke-width="2" fill="none" />
<polyline points="253.0,56.0,260.0,45.0,256.0,53.5,252.5,61.5,253.0,75.0,253.0,83.5,252.0,89.5,257.0,93.0,253.0,93.0,255.5,100.5,263.5,108.5,265.0,116.5,266.0,118.0" stroke="black" stroke-width="2" fill="none" />
<polyline points="245.0,117.0,253.5,117.0,261.5,116.5,269.0,116.0,276.0,115.0,284.0,114.0,291.5,113.5" stroke="black" stroke-width="2" fill="none" />
<polyline points="291.0,88.5,299.5,87.5,307.5,87.0" stroke="black" stroke-width="2" fill="none" />
<polyline points="290.0,63.0,282.5,64.5,274.5,60.5,266.5,54.5" stroke="black" stroke-width="2" fill="none" />
<polyline points="265.0,54.5,270.0,62.5,268.5,68.0" stroke="black" stroke-width="2" fill="none" />
<polyline points="261.0,67.0,252.5,70.0" stroke="black" stroke-width="2" fill="none" />
<polyline points="252.5,67.0,260.5,63.0,269.0,65.0,276.5,70.5" stroke="black" stroke-width="2" fill="none" />
<polyline points="269.0,91.0,260.5,91.5,252.0,92.5,244.0,93.0" stroke="black" stroke-width="2" fill="none" />
<polyline points="236.0,92.0,228.0,92.5" stroke="black" stroke-width="2" fill="none" />
<polyline points="223.0,94.5,231.0,96.5,239.0,99.0,245.5,98.0,254.0,102.0,254.0,110.0,262.5,114.0" stroke="black" stroke-width="2" fill="none" />
<polyline points="268.5,107.5,260.5,108.5,252.5,108.5,244.0,109.0,235.5,109.5" stroke="black" stroke-width="2" fill="none" />
<polyline points="237.5,101.0,245.5,100.5,253.0,100.0,260.5,99.0,268.0,98.5" stroke="black" stroke-width="2" fill="none" />
<polyline points="287.0,92.5,285.0,98.5,277.5,110.0,269.5,108.0,261.0,99.0,257.0,102.0,250.5,104.0,242.5,102.0" stroke="black" stroke-width="2" fill="none" />
<polyline points="245.0,116.5,253.0,119.5,253.5,125.0,261.5,128.0" stroke="black" stroke-width="2" fill="none" />
<polyline points="265.5,141.5,274.0,142.0" stroke="black" stroke-width="2" fill="none" />
<polyline points="284.5,152.0,292.5,147.0,301.0,146.0" stroke="black" stroke-width="2" fill="none" />
<polyline points="300.0,152.0,292.0,158.0" stroke="black" stroke-width="2" fill="none" />
<polyline points="291.0,172.0,299.0,171.5" stroke="black" stroke-width="2" fill="none" />
<polyline points="300.5,174.5,307.5,178.5" stroke="black" stroke-width="2" fill="none" />
<polyline points="306.5,173.5,299.0,172.5,289.0,174.5,280.5,171.5" stroke="black" stroke-width="2" fill="none" />
<polyline points="274.5,174.5,267.0,175.0" stroke="black" stroke-width="2" fill="none" />
<polyline points="264.5,176.5,257.5,184.5,251.0,192.5" stroke="black" stroke-width="2" fill="none" />
<polyline points="233.5,213.5,229.5,204.5,218.5,204.0,215.5,199.0,218.0,189.5,220.0,181.5,215.5,173.5,212.0,165.0" stroke="black" stroke-width="2" fill="none" />
<polyline points="211.0,157.0,202.5,157.5,194.5,158.0" stroke="black" stroke-width="2" fill="none" />
<polyline points="192.0,164.0,200.0,163.0,202.0,161.0,210.0,161.0,222.5,159.0,233.0,152.5,241.5,152.5,249.0,156.0,257.5,156.0" stroke="black" stroke-width="2" fill="none" />
<polyline points="253.0,159.0,252.5,167.0,251.5,175.0,245.5,183.0,244.5,195.5,240.0,208.5,248.0,212.5,256.0,216.0,256.0,221.5,264.5,209.5,268.5,212.5,276.0,209.5" stroke="black" stroke-width="2" fill="none" />
<polyline points="236.5,235.5,228.0,240.5,220.0,238.0,212.0,235.0,204.5,227.5,194.5,222.5,186.5,221.5,175.0,207.5" stroke="black" stroke-width="2" fill="none" />
<polyline points="178.0,205.5,188.0,212.5,194.0,216.0,202.0,217.0,210.0,215.5" stroke="black" stroke-width="2" fill="none" />
<polyline points="192.0,186.5,195.0,194.5,199.5,201.0,205.5,209.5,209.5,220.0,210.5,221.0,212.0,222.5,220.0,224.5,228.0,225.5,235.5,228.5,244.0,230.5,252.0,231.5" stroke="black" stroke-width="2" fill="none" />
<polyline points="265.0,171.5,257.0,177.0,249.0,189.0,244.5,179.0,249.5,171.0,249.5,163.0,243.5,155.5" stroke="black" stroke-width="2" fill="none" />
<polyline points="225.0,147.5,217.0,147.5,209.0,147.5" stroke="black" stroke-width="2" fill="none" />
<polyline points="216.0,147.5,207.0,156.5,202.0,165.0,196.0,173.0,190.5,178.0,193.5,186.0,191.0,193.5,196.5,201.5,202.0,209.5,201.0,217.5,200.0,222.0,204.0,229.0,213.0,238.0,211.5,246.0,210.5,253.5,210.0,261.5,209.0,270.0,217.5,272.5,212.0,284.5,212.0,292.5,213.0,300.5,213.5,308.0,214.5,315.5,215.5,323.5,216.0,332.0,217.5,340.0,219.5,348.0,220.5,356.5,223.0,365.0,222.0,373.5,223.5,378.5,224.0,383.5,227.0,386.5,228.0,394.0,230.0,402.0,231.0,410.0,232.5,418.0,234.0,426.0,236.0,434.0,237.0,442.0,238.0,450.5,239.5,458.0,237.0,466.0,237.5,474.0,237.0,482.0,237.5,490.0" stroke="black" stroke-width="2" fill="none" />
<polyline points="171.0,312.5,163.0,309.0" stroke="black" stroke-width="2" fill="none" />
<polyline points="163.0,303.0,171.0,292.0,173.0,296.5,168.5,305.0,170.0,313.0,171.5,317.0" stroke="black" stroke-width="2" fill="none" />
<polyline points="150.0,290.0,153.0,282.5,152.5,268.5,146.5,274.5" stroke="black" stroke-width="2" fill="none" />
<polyline points="141.0,281.0,141.0,272.0,142.0,264.5,149.0,258.5,151.0,251.5,159.0,248.5" stroke="black" stroke-width="2" fill="none" />
<polyline points="138.5,254.5,130.5,255.5" stroke="black" stroke-width="2" fill="none" />
<polyline points="134.5,246.0,142.5,245.5" stroke="black" stroke-width="2" fill="none" />
<polyline points="140.5,236.5,133.0,237.5" stroke="black" stroke-width="2" fill="none" />
<polyline points="132.0,235.5,133.5,243.5" stroke="black" stroke-width="2" fill="none" />
<polyline points="130.0,228.5,137.5,227.5" stroke="black" stroke-width="2" fill="none" />
<polyline points="139.5,220.0,131.0,220.0" stroke="black" stroke-width="2" fill="none" />
<polyline points="130.0,212.5,122.0,213.0" stroke="black" stroke-width="2" fill="none" />
<polyline points="116.0,212.5,108.0,213.0" stroke="black" stroke-width="2" fill="none" />
<polyline points="109.0,204.0,116.5,203.5,124.5,203.0,132.0,203.0" stroke="black" stroke-width="2" fill="none" />
<polyline points="123.5,203.5,120.5,212.0" stroke="black" stroke-width="2" fill="none" />
<polyline points="118.0,187.5,126.5,180.0" stroke="black" stroke-width="2" fill="none" />
<polyline points="124.5,172.5,117.0,180.0,109.0,187.5,101.5,195.0,93.5,202.0" stroke="black" stroke-width="2" fill="none" />
<polyline points="84.5,201.0,92.0,193.5,100.5,185.5,109.0,178.5,117.0,171.0" stroke="black" stroke-width="2" fill="none" />
<polyline points="119.5,168.5,120.0,176.0,116.0,186.5,106.0,194.5,107.0,196.5,112.0,203.0,101.5,211.0,90.5,213.0,98.5,209.5,106.5,204.5" stroke="black" stroke-width="2" fill="none" />
<polyline points="106.5,191.5,98.5,192.0,90.0,192.5" stroke="black" stroke-width="2" fill="none" />
<polyline points="83.0,196.5,90.5,196.5,98.5,195.5,107.0,194.5,115.5,194.0,124.0,193.5,132.0,192.0,139.5,191.5" stroke="black" stroke-width="2" fill="none" />
<polyline points="147.5,189.5,139.5,196.5,131.5,201.5,121.0,195.5,123.0,187.0,131.0,185.0,133.5,177.0,134.5,180.0" stroke="black" stroke-width="2" fill="none" />
<polyline points="133.5,174.0,141.5,173.5" stroke="black" stroke-width="2" fill="none" />
<polyline points="141.5,174.0,149.5,175.0" stroke="black" stroke-width="2" fill="none" />
<polyline points="154.5,164.0,146.5,164.5,138.5,165.0" stroke="black" stroke-width="2" fill="none" />
<polyline points="139.5,155.5,147.5,155.5" stroke="black" stroke-width="2" fill="none" />
<polyline points="139.5,147.5,148.0,147.0,155.5,146.5" stroke="black" stroke-width="2" fill="none" />
<polyline points="156.0,141.0,148.0,141.0,139.5,141.5" stroke="black" stroke-width="2" fill="none" />
<polyline points="140.0,133.5,132.0,134.0" stroke="black" stroke-width="2" fill="none" />
<polyline points="139.5,130.0,133.0,138.0,139.5,133.0,146.5,138.0,156.0,140.0" stroke="black" stroke-width="2" fill="none" />
<polyline points="150.0,134.0,141.5,136.0,141.0,140.0,135.0,143.0,134.0,137.0,126.0,134.0,124.0,128.5,121.0,120.5,127.0,113.0,140.0,105.0,136.0,108.0,128.0,112.0,120.5,118.0" stroke="black" stroke-width="2" fill="none" />
<polyline points="123.0,122.5,115.0,123.0" stroke="black" stroke-width="2" fill="none" />
<polyline points="108.5,118.0,116.5,117.5,124.0,117.0" stroke="black" stroke-width="2" fill="none" />
<polyline points="116.5,134.5,108.5,135.5,101.0,139.5" stroke="black" stroke-width="2" fill="none" />
<polyline points="101.0,141.5,109.0,140.5,116.5,143.5,124.5,147.5,132.5,150.5" stroke="black" stroke-width="2" fill="none" />
<polyline points="122.0,147.0,114.0,148.0" stroke="black" stroke-width="2" fill="none" />
<polyline points="113.0,150.5,118.0,152.5,115.5,160.5,112.0,168.5,113.0,176.5" stroke="black" stroke-width="2" fill="none" />
<polyline points="106.5,170.0,98.0,177.5,90.0,184.5,81.5,192.5" stroke="black" stroke-width="2" fill="none" />
<polyline points="82.0,185.0,90.0,177.5,98.0,170.5" stroke="black" stroke-width="2" fill="none" />
<polyline points="91.5,166.0,99.5,166.0,107.5,165.5,115.5,164.5" stroke="black" stroke-width="2" fill="none" />
<polyline points="114.0,156.5,122.0,153.0,130.0,154.0,137.5,156.5" stroke="black" stroke-width="2" fill="none" />
<polyline points="145.0,147.5,143.0,160.5,136.0,167.5,135.0,170.5,129.0,179.5,120.5,191.0,112.5,193.0,105.5,189.0,97.5,196.0,88.5,195.5,87.5,187.5,89.0,188.5,89.0,186.5,92.5,181.5,101.5,175.5,99.5,168.0,95.5,163.5,91.5,155.5,98.5,148.5,91.5,145.5,84.0,145.5,76.5,148.5,68.5,153.5" stroke="black" stroke-width="2" fill="none" />
<polyline points="69.0,155.0,77.5,156.0,85.5,153.0,94.0,153.5" stroke="black" stroke-width="2" fill="none" />
<polyline points="90.0,149.5,98.5,149.0" stroke="black" stroke-width="2" fill="none" />
<polyline points="91.0,142.5,98.5,141.5,107.0,140.5" stroke="black" stroke-width="2" fill="none" />
<polyline points="111.0,143.0,111.5,151.0,111.5,159.0,108.5,169.5,111.5,174.5,118.0,181.5,129.0,169.5,137.0,162.5" stroke="black" stroke-width="2" fill="none" />
<polyline points="132.5,173.0,125.5,181.0,121.0,188.5" stroke="black" stroke-width="2" fill="none" />
<polyline points="114.0,184.5,106.0,185.0,98.5,185.5" stroke="black" stroke-width="2" fill="none" />
<polyline points="88.5,183.5,89.5,179.5,94.5,179.5,103.0,175.5" stroke="black" stroke-width="2" fill="none" />
<polyline points="89.5,173.0,97.5,172.5,106.5,172.0,114.5,171.5,123.0,170.0" stroke="black" stroke-width="2" fill="none" />
<polyline points="124.0,177.5,116.0,178.5,108.0,179.0,100.0,180.0,92.0,180.5,83.5,181.5" stroke="black" stroke-width="2" fill="none" />
<polyline points="60.5,180.5,53.0,181.0" stroke="black" stroke-width="2" fill="none" />
<polyline points="52.0,180.5,49.0,188.5,50.5,196.5,51.0,205.0,50.0,212.5,54.5,220.5" stroke="black" stroke-width="2" fill="none" />
<polyline points="60.5,218.5,52.5,209.5" stroke="black" stroke-width="2" fill="none" />
<polyline points="52.5,208.0,60.0,209.0,67.5,214.0" stroke="black" stroke-width="2" fill="none" />
<polyline points="68.0,214.5,75.5,213.5,84.0,213.0,91.5,212.5" stroke="black" stroke-width="2" fill="none" />
<polyline points="91.5,204.0,83.5,205.5" stroke="black" stroke-width="2" fill="none" />
<polyline points="83.0,206.0,91.5,205.5,99.5,205.0" stroke="black" stroke-width="2" fill="none" />
<polyline points="108.0,220.0,100.0,221.0,92.0,221.5,83.5,222.5" stroke="black" stroke-width="2" fill="none" />
<polyline points="75.5,223.5,67.5,223.5" stroke="black" stroke-width="2" fill="none" />
<polyline points="72.0,215.5,77.0,211.5,81.0,201.5,70.0,198.5,72.0,193.5,71.5,185.0,74.5,180.5,66.0,172.5,60.0,170.5" stroke="black" stroke-width="2" fill="none" />
<polyline points="61.0,173.0,52.5,173.0" stroke="black" stroke-width="2" fill="none" />
<polyline points="56.0,173.5,64.0,173.5,71.5,173.5,83.5,178.5,91.5,170.5,104.5,170.5" stroke="black" stroke-width="2" fill="none" />
<polyline points="114.0,184.0,106.0,185.0,98.5,186.0,90.5,186.5,82.5,187.0,75.0,187.5,67.5,188.0,59.5,188.5" stroke="black" stroke-width="2" fill="none" />
<polyline points="59.0,196.0,51.0,196.0,42.5,196.5" stroke="black" stroke-width="2" fill="none" />
<polyline points="46.0,191.0,54.0,194.0,58.0,187.0,60.0,184.0" stroke="black" stroke-width="2" fill="none" />
<polyline points="57.0,176.5,65.0,177.5,73.5,183.5" stroke="black" stroke-width="2" fill="none" />
<polyline points="65.5,198.5,57.0,200.5" stroke="black" stroke-width="2" fill="none" />
<polyline points="59.5,203.5,51.5,203.5" stroke="black" stroke-width="2" fill="none" />
<polyline points="49.5,214.5,57.5,222.5,65.5,225.5,73.5,222.0,81.5,221.0" stroke="black" stroke-width="2" fill="none" />
<polyline points="80.0,207.5,88.0,208.5,96.5,206.0,102.5,196.0,110.5,193.5,118.0,187.5" stroke="black" stroke-width="2" fill="none" />
<polyline points="153.0,200.0,161.0,195.0" stroke="black" stroke-width="2" fill="none" />
<polyline points="162.5,199.0,170.5,198.0,179.5,197.0" stroke="black" stroke-width="2" fill="none" />
<polyline points="177.0,197.0,180.0,205.0,179.5,211.5,187.5,218.5,183.5,220.5,185.0,228.5,185.5,236.0,186.0,244.0,186.0,252.0,186.5,260.0,187.5,263.0,192.5,266.0,201.0,270.0,203.0,273.5,205.0,276.5,206.0,289.5,207.5,298.0,207.5,306.5,209.0,315.5,211.0,324.0,212.0,332.0,213.0,340.0,215.0,347.5,216.0,355.5,217.0,363.5,218.5,371.0,221.0,379.0,220.5,387.0,222.5,394.5,224.5,403.0,225.5,411.0,226.5,418.5,227.5,426.5,229.0,434.0,230.0,441.5,230.5,449.5,231.5,457.0,232.5,465.0,232.0,473.0,232.0,481.0,231.0,489.0" stroke="black" stroke-width="2" fill="none" />
<polyline points="96.0,519.5,88.0,519.5,78.5,525.5,70.5,525.5,62.0,526.5,54.0,525.5,46.0,525.5" stroke="black" stroke-width="2" fill="none" />
<polyline points="40.5,519.5,48.5,520.5,57.0,521.5,65.0,519.5,73.5,520.0,81.5,519.0,84.0,521.0,92.0,523.5,98.0,530.5,91.0,541.5,92.0,539.5,99.5,540.5,107.5,539.5,115.5,540.5,123.5,539.5,131.0,539.0,138.5,540.0,146.5,540.0,154.0,540.0,162.0,538.5" stroke="black" stroke-width="2" fill="none" />
<polyline points="36.5,515.5,44.0,515.5,52.0,515.0,60.0,515.0,68.0,515.0,76.0,515.5,84.5,515.5,92.5,515.5,101.0,515.5,109.0,515.0,117.0,515.0,125.0,515.0,133.0,515.0,141.0,515.0,148.5,514.5,156.5,514.5,164.0,514.5,172.0,514.5,179.5,514.5,187.5,515.0,196.0,515.0,204.0,514.5,212.0,515.0,220.0,515.0,228.5,515.5,236.5,515.5,244.0,515.5,251.5,515.5,259.0,516.0,266.5,516.5,274.5,516.5,282.5,516.5,291.0,515.5,299.5,515.0,307.5,514.5,315.5,514.0,323.5,514.0,331.0,515.0,341.0,527.0,345.5,528.0" stroke="black" stroke-width="2" fill="none" />
<polyline points="461.0,543.0,464.0,534.5" stroke="black" stroke-width="2" fill="none" />
<polyline points="511.5,329.0,510.0,324.5,511.0,320.5" stroke="black" stroke-width="2" fill="none" />
<polyline points="387.5,269.5,378.5,266.5,371.5,271.5,376.0,274.0,372.0,270.0,381.5,262.5,383.5,254.5,384.0,246.5,386.5,238.5,387.5,230.5,389.5,225.0,392.0,217.0,390.5,209.0,391.5,201.0,398.5,194.0,401.5,186.0,404.5,178.0,408.5,170.0,412.5,161.5,405.5,156.5,399.0,155.0,401.0,148.0,399.0,145.0,393.0,139.0,391.0,136.0,396.5,128.0,393.5,119.5,392.5,112.0,390.5,104.5,394.5,96.5,399.5,95.5,391.5,102.5" stroke="black" stroke-width="2" fill="none" />
<polyline points="403.0,68.5,411.0,78.5,419.0,75.5,423.5,67.5,422.5,75.5" stroke="black" stroke-width="2" fill="none" />
<polyline points="442.0,77.0,443.0,85.0,433.0,89.0,436.0,96.5,436.0,104.5,439.0,107.5,439.5,115.0,441.5,115.0,451.5,120.0,452.0,128.0,451.0,133.0,459.5,126.0,467.5,123.0,475.5,132.5" stroke="black" stroke-width="2" fill="none" />
<polyline points="368.5,190.0,358.0,201.0,361.0,198.0,362.0,190.0,367.0,182.0,361.0,181.0,350.0,193.0,342.0,191.5,341.5,195.0,337.5,193.5,330.0,194.5,322.0,196.5,314.5,191.0,307.5,188.0,303.0,194.5,296.0,190.5,292.0,195.5,290.5,197.5,281.5,189.0,271.0,178.0,270.0,175.0,261.5,178.0,253.0,188.5,245.0,195.5,240.5,190.5,232.0,187.5,224.5,187.5,216.5,184.5,211.0,189.0,203.5,192.0,195.5,193.0,188.5,183.5,180.5,189.0,172.5,186.0,168.0,203.0,160.0,211.0,155.0,210.0,155.0,202.0,163.0,196.0,171.5,189.0,178.5,182.0,177.5,173.5,175.0,165.0,173.0,157.0,171.0,149.0,168.5,142.5,165.0,134.0,178.0,127.0,178.0,124.0,182.0,116.5,179.0,108.5,170.0,101.5,174.0,93.0,175.0,85.0,186.0,76.5,194.0,73.5,194.5,65.5,191.0,63.5,188.0,55.5,176.0,49.5,171.0,48.5,163.0,47.5,155.5,44.5,147.5,51.0,139.5,54.0,132.0,58.0" stroke="black" stroke-width="2" fill="none" />
<polyline points="131.5,58.5,123.0,59.0,115.0,59.0" stroke="black" stroke-width="2" fill="none" />
<polyline points="115.0,69.5,107.0,70.0" stroke="black" stroke-width="2" fill="none" />
<polyline points="113.0,73.5,121.5,65.0,129.0,62.0,133.5,64.0,135.0,72.0,140.5,80.0,143.0,76.0,151.0,72.5" stroke="black" stroke-width="2" fill="none" />
<polyline points="138.5,75.5,146.5,75.5,154.5,75.5,162.5,75.5,170.5,74.5" stroke="black" stroke-width="2" fill="none" />
<polyline points="166.5,66.5,177.5,59.0,189.5,67.0,189.5,75.5,189.5,80.5,196.5,84.5,197.5,86.5,199.5,94.5" stroke="black" stroke-width="2" fill="none" />
<polyline points="195.5,118.5,187.5,118.5" stroke="black" stroke-width="2" fill="none" />
<polyline points="185.5,121.5,193.0,118.5" stroke="black" stroke-width="2" fill="none" />
<polyline points="192.0,123.5,212.0,126.5,208.0,124.5" stroke="black" stroke-width="2" fill="none" />
<polyline points="218.0,123.5,209.5,123.5,201.5,123.5,193.5,124.0,185.0,124.5,177.0,125.5" stroke="black" stroke-width="2" fill="none" />
<polyline points="172.0,133.0,180.0,133.0,188.0,132.5,195.5,132.0,204.0,131.0,211.5,131.0,220.0,130.5,228.0,130.0" stroke="black" stroke-width="2" fill="none" />
<polyline points="223.5,129.5,220.5,130.5,215.0,125.0,206.0,128.0,204.0,135.0,195.5,135.5,187.0,133.0,188.0,125.5,195.0,117.5,196.5,111.5,200.5,103.5,201.0,95.5,206.0,84.0,206.0,76.0,198.0,68.0,193.5,60.5,191.5,56.5,183.5,53.5,175.5,55.5,164.5,60.5,158.0,67.5,158.0,60.0,156.5,56.0,148.5,51.0" stroke="black" stroke-width="2" fill="none" />
<polyline points="152.5,48.5,153.5,50.0,155.5,57.5,155.5,65.5,149.5,70.0,151.0,80.0,142.0,85.0,138.0,86.0,144.5,85.0,148.5,78.0,160.0,73.0,164.0,84.0,176.0,78.0,174.0,67.0,182.5,62.0,182.0,65.5,185.5,73.5,176.0,82.0,184.5,75.0" stroke="black" stroke-width="2" fill="none" />
<polyline points="179.5,81.0,170.5,81.0,163.0,81.5,155.0,81.5,147.5,82.0,140.0,83.0,132.0,83.5" stroke="black" stroke-width="2" fill="none" />
<polyline points="130.5,87.0,122.5,81.5,114.5,84.5" stroke="black" stroke-width="2" fill="none" />
<polyline points="113.5,83.0,105.5,83.5,97.5,84.0" stroke="black" stroke-width="2" fill="none" />
<polyline points="101.5,80.0,109.5,65.5,117.5,62.5,126.0,58.0,134.0,52.5,141.5,48.5,150.5,42.0,158.5,41.0,166.0,40.0,173.0,42.0,181.0,50.0,189.0,52.0,197.5,57.5,205.5,68.5" stroke="black" stroke-width="2" fill="none" />
<polyline points="203.5,60.5,196.0,61.0" stroke="black" stroke-width="2" fill="none" />
<polyline points="201.0,59.5,203.0,67.5,211.0,74.5,210.5,82.5,208.5,91.0,206.0,99.0,202.0,108.0,200.5,116.0,202.0,128.0,208.0,134.5" stroke="black" stroke-width="2" fill="none" />
<polyline points="211.0,138.0,203.0,138.5,195.5,140.0,187.5,140.5,180.0,141.0,172.0,141.5" stroke="black" stroke-width="2" fill="none" />
<polyline points="171.0,139.0,179.0,142.5,187.5,145.5" stroke="black" stroke-width="2" fill="none" />
<polyline points="178.5,149.5,170.5,149.5" stroke="black" stroke-width="2" fill="none" />
<polyline points="171.0,158.0,179.0,157.5" stroke="black" stroke-width="2" fill="none" />
<polyline points="178.5,164.5,186.5,164.5,194.5,164.5,203.0,164.5" stroke="black" stroke-width="2" fill="none" />
<polyline points="196.5,171.5,189.0,171.5,181.5,172.0" stroke="black" stroke-width="2" fill="none" />
<polyline points="181.0,168.5,188.5,167.0,194.5,169.0,195.5,159.0,203.5,153.5,211.5,151.5,220.0,148.5,228.0,150.5,229.0,158.5,236.5,156.0,244.5,158.0,253.5,161.0,262.0,160.0,268.5,167.5,273.5,168.5,282.5,150.0,290.5,145.0" stroke="black" stroke-width="2" fill="none" />
<polyline points="312.5,142.0,310.0,134.0,314.0,125.5" stroke="black" stroke-width="2" fill="none" />
<polyline points="349.0,125.5,348.0,133.5,348.0,141.5,334.0,147.5,337.0,150.5,322.5,155.5,318.5,163.0,319.5,173.0,320.0,182.5" stroke="black" stroke-width="2" fill="none" />
<polyline points="351.5,131.5,351.0,139.5,349.0,147.5,345.0,156.0,353.0,166.5,347.0,174.5,345.5,182.0,347.5,189.5,342.5,195.0,344.5,199.5,348.0,209.5,349.0,217.5,350.5,226.0,351.5,234.5,345.5,243.0,345.5,248.0,339.0,251.5,337.0,257.5,341.0,264.5,347.5,273.5,350.0,278.5,349.0,286.5,351.5,293.5,349.5,301.0,348.5,308.5,346.5,316.0,345.5,324.0,343.5,332.0,342.5,340.0,340.5,348.0,339.5,356.0,336.5,364.0,339.0,364.5,338.5,372.5,338.0,380.5,336.5,389.0,335.5,397.0,335.5,405.0,334.5,413.0,333.5,421.5,332.5,429.5,332.5,437.5,331.5,445.5,332.0,453.5,331.5,462.0,331.5,470.0,328.0,478.0,328.5,486.0" stroke="black" stroke-width="2" fill="none" />
<polyline points="140.0,287.0,138.5,281.0,144.5,273.0,152.5,265.0,147.0,270.5,139.0,279.5" stroke="black" stroke-width="2" fill="none" />
<polyline points="157.5,206.5,165.5,206.0" stroke="black" stroke-width="2" fill="none" />
<polyline points="171.5,190.5,180.0,190.0" stroke="black" stroke-width="2" fill="none" />
<polyline points="181.0,182.0,188.5,181.0" stroke="black" stroke-width="2" fill="none" />
<polyline points="191.0,176.5,199.0,169.5,202.0,164.5,210.0,165.5" stroke="black" stroke-width="2" fill="none" />
<polyline points="200.5,152.0,193.5,160.5,190.0,173.0,186.0,181.0,173.5,196.0,163.0,204.0" stroke="black" stroke-width="2" fill="none" />
<polyline points="185.5,141.0,178.0,135.0" stroke="black" stroke-width="2" fill="none" />
<polyline points="180.5,134.5,191.5,142.5" stroke="black" stroke-width="2" fill="none" />
<polyline points="182.5,135.5,190.5,137.5,199.0,140.5,207.0,136.5" stroke="black" stroke-width="2" fill="none" />
<polyline points="204.0,132.5,196.0,131.0,188.0,130.0" stroke="black" stroke-width="2" fill="none" />
<polyline points="175.0,137.5,174.0,142.0,177.0,150.0,178.5,158.0,180.5,166.0,182.5,174.0,183.5,182.0,181.5,189.5,175.5,197.5,175.0,206.0,178.0,214.0,181.5,222.0,181.0,230.0,181.5,238.5,181.5,246.5,181.5,254.5,179.5,262.0,187.0,260.0,191.0,265.0,199.0,259.5,201.0,266.5,212.0,272.0,212.0,263.5,220.0,253.5,228.5,250.0,236.0,246.5,244.5,245.0,250.5,248.0,258.5,249.0,266.5,249.5" stroke="black" stroke-width="2" fill="none" />
<polyline points="212.0,136.5,223.0,128.0" stroke="black" stroke-width="2" fill="none" />
<polyline points="200.5,103.0,192.5,112.0,184.5,112.0,176.5,105.5,168.5,108.5,161.0,111.5,153.0,121.5" stroke="black" stroke-width="2" fill="none" />
<polyline points="149.5,133.0,158.0,133.0,165.5,132.0" stroke="black" stroke-width="2" fill="none" />
<polyline points="171.5,149.5,164.5,134.0,156.0,136.0,151.5,137.0,152.5,127.0,152.0,119.0,157.0,111.5,164.0,103.5,164.0,95.5,169.0,84.0,159.0,83.0,148.5,80.0,161.0,76.5,162.0,68.5,165.0,60.0,171.0,52.0,163.0,44.0" stroke="black" stroke-width="2" fill="none" />
<polyline points="164.0,47.0,172.0,46.0,180.0,45.5" stroke="black" stroke-width="2" fill="none" />
<polyline points="181.5,55.5,189.0,61.0,187.0,73.0" stroke="black" stroke-width="2" fill="none" />
<polyline points="180.5,66.5,179.0,64.0,176.0,68.0,175.0,71.5,178.0,63.5" stroke="black" stroke-width="2" fill="none" />
<polyline points="174.5,63.0,172.5,71.0,172.0,66.0,179.5,57.5,187.5,62.5,199.5,69.5,205.5,73.5" stroke="black" stroke-width="2" fill="none" />
<polyline points="187.5,53.0,180.0,53.5,172.0,54.0" stroke="black" stroke-width="2" fill="none" />
<polyline points="165.0,65.0,174.0,59.0,169.0,60.0,165.5,68.0,164.5,75.5,168.0,82.5,172.0,90.0,180.0,85.5,184.0,79.5,189.5,82.0,197.5,80.5,201.5,90.5" stroke="black" stroke-width="2" fill="none" />
<polyline points="184.5,115.0,184.5,123.0,183.5,133.0,179.5,138.0,189.0,139.0,193.0,144.0,196.5,143.0,205.0,144.5,213.5,138.5,221.5,134.5" stroke="black" stroke-width="2" fill="none" />
<polyline points="214.5,121.5,206.5,122.0,198.5,126.0,190.5,127.5,186.0,131.5,178.0,135.5,172.0,134.5,164.0,131.5,155.5,128.5,144.0,130.5,136.0,133.0,128.0,132.0,120.0,130.0,115.0,122.0,102.0,116.0,104.5,108.0,104.5,100.0,100.5,92.0,101.5,84.0,106.0,77.5,106.0,84.5" stroke="black" stroke-width="2" fill="none" />
<polyline points="103.0,89.0,104.0,99.5,112.5,102.5,120.5,106.0,129.0,106.0,137.5,104.0,148.5,104.0,156.0,105.0,164.0,101.0" stroke="black" stroke-width="2" fill="none" />
<polyline points="135.0,84.0,127.0,79.5,119.0,77.0,111.0,82.0" stroke="black" stroke-width="2" fill="none" />
<polyline points="114.0,75.0,105.5,75.0,97.5,75.0" stroke="black" stroke-width="2" fill="none" />
<polyline points="118.0,76.5,111.0,84.5,111.0,86.5,110.5,92.5,116.5,98.5,124.5,101.5,132.0,101.0" stroke="black" stroke-width="2" fill="none" />
<polyline points="115.5,92.5,107.5,93.5" stroke="black" stroke-width="2" fill="none" />
<polyline points="124.0,80.5,133.0,88.5,135.5,97.0" stroke="black" stroke-width="2" fill="none" />
<polyline points="134.0,86.0,123.0,77.5" stroke="black" stroke-width="2" fill="none" />
<polyline points="128.0,61.0,115.0,69.0,110.5,76.5,115.5,81.5,114.0,89.5,113.0,97.5,106.5,107.0,104.5,113.0,108.5,121.0,111.0,113.0,119.0,115.0,127.0,108.5,135.0,105.5,147.5,111.5,152.5,110.5,165.5,103.0,175.5,110.5,189.0,114.5,197.0,111.5" stroke="black" stroke-width="2" fill="none" />
<polyline points="147.5,137.5,141.5,145.5,142.0,158.5,137.0,166.5,140.0,169.0,148.0,180.0,144.0,188.0,137.0,196.0,140.0,193.0,148.0,184.0" stroke="black" stroke-width="2" fill="none" />
<polyline points="113.5,162.5,104.5,164.5,96.5,164.5,88.5,160.5,82.5,157.5,75.0,158.5,67.0,160.5" stroke="black" stroke-width="2" fill="none" />
<polyline points="67.5,162.5,59.5,163.5" stroke="black" stroke-width="2" fill="none" />
<polyline points="65.5,157.0,65.5,152.0,73.5,146.5,81.0,143.5,89.0,140.5,97.0,137.0,105.0,131.5,113.5,131.0" stroke="black" stroke-width="2" fill="none" />
<polyline points="112.5,139.5,125.5,144.5,132.5,151.0,135.5,159.5,132.5,167.5,124.5,176.0,121.0,183.0,115.0,184.5,102.0,192.5,91.0,198.0,85.0,201.0,89.0,212.0,86.0,221.5,94.0,224.5,99.0,224.0,107.0,220.0,115.0,216.0,120.0,214.0" stroke="black" stroke-width="2" fill="none" />
<polyline points="80.0,190.0,73.5,193.5,69.5,192.5,66.5,193.0,58.5,198.0,66.5,192.5,61.5,192.0,58.0,184.0,52.5,178.0,59.0,171.5,65.0,163.5,60.0,164.5,52.0,177.0,44.0,187.0" stroke="black" stroke-width="2" fill="none" />
<polyline points="49.5,188.5,53.5,196.5,56.5,205.0,64.5,210.5,73.0,210.5,80.5,206.0,88.5,199.0" stroke="black" stroke-width="2" fill="none" />
<polyline points="60.5,220.5,52.5,212.0,55.5,202.0,57.5,193.5,56.0,185.5,53.0,177.5" stroke="black" stroke-width="2" fill="none" />
<polyline points="65.5,182.5,57.5,180.5,52.5,175.5,44.5,188.5,42.5,195.5,41.5,187.5,44.5,180.0,52.5,171.5,57.5,163.5,61.5,155.5,68.0,147.0,80.0,145.5" stroke="black" stroke-width="2" fill="none" />
<polyline points="89.0,145.0,89.0,152.5,88.5,162.5,90.0,170.0,83.0,177.0,80.0,185.0,78.0,193.0,65.5,197.5,55.0,206.5,61.5,215.0,63.0,221.0,73.0,215.0,79.0,212.5,83.0,218.5,90.5,216.5,98.5,212.5,106.5,208.0,107.5,198.0" stroke="black" stroke-width="2" fill="none" />
<polyline points="120.5,149.0,112.5,143.5,104.5,143.5,97.0,142.5,96.0,139.5,104.0,132.0" stroke="black" stroke-width="2" fill="none" />
<polyline points="62.5,77.5,54.5,78.0" stroke="black" stroke-width="2" fill="none" />
<polyline points="60.5,68.0,68.0,67.0" stroke="black" stroke-width="2" fill="none" />
<polyline points="69.0,60.5,76.5,60.5" stroke="black" stroke-width="2" fill="none" />
<polyline points="83.0,52.0,75.0,52.5,67.5,52.5" stroke="black" stroke-width="2" fill="none" />
<polyline points="65.5,55.5,57.0,66.0,50.5,72.5,42.5,78.0,34.5,83.0" stroke="black" stroke-width="2" fill="none" />
<polyline points="36.5,84.5,36.0,92.5" stroke="black" stroke-width="2" fill="none" />
<polyline points="43.5,85.0,51.5,84.5" stroke="black" stroke-width="2" fill="none" />
<polyline points="37.0,91.0,45.0,87.0,43.0,79.0,54.0,70.0,62.0,64.5,65.0,56.5,65.0,48.5" stroke="black" stroke-width="2" fill="none" />
<polyline points="78.5,43.0,71.5,50.5,64.5,48.5,72.5,49.0,81.0,43.0" stroke="black" stroke-width="2" fill="none" />
<polyline points="82.5,42.5,81.0,51.0,72.0,59.0,63.5,64.5,60.0,72.5,51.0,80.5,46.0,84.5,48.0,85.0,56.5,76.0,65.0,68.5,71.0,63.5,79.0,55.5" stroke="black" stroke-width="2" fill="none" />
<polyline points="130.0,61.0,131.0,69.0,135.0,77.5,136.5,85.5,141.5,92.5" stroke="black" stroke-width="2" fill="none" />
<polyline points="142.0,50.5,132.0,52.5,119.0,60.5,108.0,68.5,99.0,77.5,104.5,82.5,103.5,90.5,109.0,98.5,117.0,105.0,113.0,118.0,112.0,119.5,120.0,127.5,126.0,135.5,134.0,143.5,136.0,151.5,147.5,148.5,146.5,157.0,144.5,157.0,149.0,165.5,150.5,173.5,154.0,173.5,153.0,181.5,150.5,189.5,135.0,201.0,132.0,208.5,133.5,216.5,133.5,224.5,133.5,232.5,133.0,240.5,133.0,248.5,133.0,256.5,131.0,264.5,131.0,272.5,130.5,281.0,130.5,289.0,130.0,297.0,129.0,305.0,124.5,310.0,123.5,317.5,123.5,326.0,122.5,333.5,122.5,342.0,121.5,349.5,121.5,357.5,120.5,365.0,120.5,372.5,119.5,380.5,119.0,388.0,119.0,396.0,118.0,404.0,118.0,412.0,118.0,420.0,118.5,428.0,117.5,436.0,117.5,444.0,117.5,452.0,117.5,460.0,117.0,468.0,117.0,476.0,117.0,484.5" stroke="black" stroke-width="2" fill="none" />
<polyline points="35.0,514.0,27.0,521.5,19.0,529.0,11.0,537.0" stroke="black" stroke-width="2" fill="none" />
<polyline points="22.5,532.0,22.5,535.0,26.5,532.0,18.5,527.0,16.5,527.0,30.5,525.0,22.5,519.5,14.5,523.5" stroke="black" stroke-width="2" fill="none" />
<polyline points="27.5,519.0,35.0,518.5" stroke="black" stroke-width="2" fill="none" />
<polyline points="34.5,515.0,35.5,523.0,35.5,531.0,34.5,539.0" stroke="black" stroke-width="2" fill="none" />
<polyline points="35.0,507.5,26.5,508.0,18.0,507.5,9.5,507.5" stroke="black" stroke-width="2" fill="none" />
<polyline points="43.5,325.0,41.5,328.0,44.0,319.5,46.5,311.5,51.0,307.5,42.5,314.0,34.5,319.0" stroke="black" stroke-width="2" fill="none" />
<polyline points="35.5,319.5,34.5,327.5" stroke="black" stroke-width="2" fill="none" />
<polyline points="43.0,318.5,51.0,317.5" stroke="black" stroke-width="2" fill="none" />
<polyline points="51.5,308.0,59.0,307.5" stroke="black" stroke-width="2" fill="none" />
<polyline points="147.0,45.0,155.0,44.5" stroke="black" stroke-width="2" fill="none" />
<polyline points="270.0,43.5,278.0,36.5,286.0,35.5,296.0,39.5,303.5,37.5,311.0,41.5" stroke="black" stroke-width="2" fill="none" />
<polyline points="308.0,38.0,316.5,37.5" stroke="black" stroke-width="2" fill="none" />
<polyline points="316.0,44.5,323.5,44.5" stroke="black" stroke-width="2" fill="none" />
<polyline points="324.5,51.5,325.5,59.5,322.5,68.0,319.5,77.0,313.5,84.5" stroke="black" stroke-width="2" fill="none" />
<polyline points="294.0,61.0,299.0,59.0,300.0,50.5,306.0,48.5" stroke="black" stroke-width="2" fill="none" />
<polyline points="326.5,47.5,320.5,42.5,314.0,51.0,304.0,49.5,303.0,55.5,298.5,63.0,294.5,66.5,283.5,71.0,280.0,81.0,271.5,89.5,276.5,81.0,272.0,72.5,272.0,64.0,287.5,56.5,291.0,48.5,289.5,41.0,280.5,33.0" stroke="black" stroke-width="2" fill="none" />
<polyline points="279.0,31.0,272.0,32.0,266.0,40.0,253.5,48.0,250.0,56.5,248.5,65.0,250.5,73.0,248.5,81.5,248.5,90.0,238.5,98.5,242.5,104.5,245.0,105.0,248.0,111.0,254.0,112.0,260.5,114.5,265.5,122.5,260.5,124.0,270.0,127.5,263.0,133.5,264.0,141.5,263.5,149.5,264.0,159.0,266.0,167.5,255.0,178.5,249.0,186.5,250.0,177.0" stroke="black" stroke-width="2" fill="none" />
<polyline points="340.5,94.5,335.0,93.0,327.0,90.0,318.5,90.5,310.5,88.0,302.5,91.0,294.5,89.5,286.5,84.5,274.5,76.5,278.5,69.0,273.0,68.0,270.5,60.0,267.5,51.5,267.5,43.5,273.5,35.0" stroke="black" stroke-width="2" fill="none" />
</svg>