<svg xmlns="http://www.w3.org/2000/svg" version="1.1"><polyline points="429.0,2.0,419.0,6.0,409.0,14.0,401.0,16.0,393.0,22.5,391.0,30.5,389.5,38.5,387.5,46.5,384.5,54.5,382.0,62.5,377.5,70.5,372.0,78.5,364.0,86.5,355.0,94.5,346.5,102.5,337.5,111.0,326.0,119.0,311.0,127.0" stroke="black" stroke-width="2" fill="none" />
<polyline points="315.5,131.0,324.0,130.5,332.5,130.5,341.0,130.5,349.5,131.0,357.5,130.5,365.5,130.0,373.5,129.5,381.5,128.5,389.5,127.5,397.5,127.0,405.5,127.0,414.0,127.0" stroke="black" stroke-width="2" fill="none" />
<polyline points="410.0,125.5,402.0,133.0,394.0,140.0,386.5,147.5,379.0,155.0,371.5,163.0,363.5,170.0,356.0,177.5,348.0,185.0,340.0,192.0,332.0,199.0,323.5,206.5,315.5,214.5,307.5,222.0" stroke="black" stroke-width="2" fill="none" />
<polyline points="301.0,220.5,308.5,213.5,316.0,206.5,323.5,199.0,331.5,191.0,340.0,183.5,348.0,176.5,356.5,169.0,364.0,161.0,372.0,153.5,380.0,145.5,388.0,138.5,396.0,131.0,403.5,123.5,411.5,116.5" stroke="black" stroke-width="2" fill="none" />
<polyline points="403.0,115.5,395.0,123.0,386.5,130.5,378.5,138.0,371.0,146.0,363.5,153.5,355.5,160.5,348.0,168.0,340.5,175.0,333.0,182.5,324.5,190.5,316.5,197.5,309.0,205.5,300.5,213.0,291.5,221.0" stroke="black" stroke-width="2" fill="none" />
<polyline points="285.0,221.0,293.0,213.0,300.5,205.5,308.0,197.5,316.0,189.0,324.0,181.0,332.5,173.0,340.0,166.0,348.0,159.0,356.5,152.0,365.0,145.0,373.0,137.5,381.0,129.5,389.0,122.0,396.5,114.5,404.0,106.0,411.5,98.0" stroke="black" stroke-width="2" fill="none" />
<polyline points="412.0,93.0,404.0,100.0" stroke="black" stroke-width="2" fill="none" />
<polyline points="395.5,100.5,404.0,93.5,412.0,86.0" stroke="black" stroke-width="2" fill="none" />
<polyline points="411.5,77.5,403.5,85.5,395.5,92.5" stroke="black" stroke-width="2" fill="none" />
<polyline points="386.0,98.5,377.5,106.5,369.5,114.5,361.5,122.0,354.0,129.5,346.5,137.0,338.0,144.5,330.0,151.5,322.0,158.5,314.5,166.5,306.5,174.0,298.5,181.5,291.0,189.5,283.0,197.0,274.5,204.5,267.0,211.5,259.0,220.0" stroke="black" stroke-width="2" fill="none" />
<polyline points="275.5,217.5,283.0,210.5,291.0,204.0,298.5,197.0,306.5,189.5,315.0,181.5,322.5,174.5,330.5,166.5,338.5,159.0,346.0,151.5,354.0,143.5,362.5,136.5,371.5,130.0,380.0,123.0,388.0,115.5,396.0,108.5" stroke="black" stroke-width="2" fill="none" />
<polyline points="387.0,107.5,379.5,115.0,371.0,122.5,362.5,130.0,354.0,137.0,345.5,144.5,338.0,152.0,330.5,159.5,322.5,166.5,314.5,174.0,306.5,181.0,299.0,189.0,291.5,196.5,283.5,204.0,275.0,212.0,267.5,219.0" stroke="black" stroke-width="2" fill="none" />
<polyline points="250.0,223.0,258.5,215.0,266.5,207.5,274.5,200.0,282.0,191.5,290.0,184.0,298.5,177.0,307.5,170.5,316.0,163.5,325.0,156.5,333.0,149.0" stroke="black" stroke-width="2" fill="none" />
<polyline points="341.0,160.5,348.5,160.0,356.0,160.0,364.0,160.5,371.5,161.0" stroke="black" stroke-width="2" fill="none" />
<polyline points="372.5,152.5,364.5,153.0,356.0,153.5" stroke="black" stroke-width="2" fill="none" />
<polyline points="365.0,143.5,372.5,143.5,380.0,143.0" stroke="black" stroke-width="2" fill="none" />
<polyline points="380.5,136.0,372.5,136.0,364.5,137.0" stroke="black" stroke-width="2" fill="none" />
<polyline points="365.5,131.0,373.0,130.0,381.0,130.0" stroke="black" stroke-width="2" fill="none" />
<polyline points="381.0,120.0,373.0,120.5" stroke="black" stroke-width="2" fill="none" />
<polyline points="356.0,110.0,363.5,103.0,371.5,95.5,379.0,89.0,387.0,82.0,394.5,75.0,402.5,68.5,411.0,61.5" stroke="black" stroke-width="2" fill="none" />
<polyline points="410.5,51.0,402.5,58.5,395.0,66.0,387.5,73.5,380.0,81.5,372.0,89.5" stroke="black" stroke-width="2" fill="none" />
<polyline points="377.5,89.0,386.0,88.5,394.5,88.0,402.5,88.0" stroke="black" stroke-width="2" fill="none" />
<polyline points="401.5,74.5,393.5,82.5,385.5,90.5,378.0,98.5,370.5,106.0,363.0,113.5,355.5,121.0,348.0,128.5,340.0,136.0" stroke="black" stroke-width="2" fill="none" />
<polyline points="323.5,124.0,331.5,123.0,340.0,123.0,348.0,123.0,356.0,122.5,364.5,121.5,372.0,121.5,379.5,121.0,387.5,120.5,396.5,120.0,404.5,119.5,412.0,119.0" stroke="black" stroke-width="2" fill="none" />
<polyline points="402.5,140.5,395.0,148.0,387.0,155.5,378.5,163.0,371.0,170.0,363.0,178.0,355.0,185.0,347.0,192.5,339.5,200.0,332.0,207.5,324.0,214.5" stroke="black" stroke-width="2" fill="none" />
<polyline points="325.0,214.5,333.0,213.5" stroke="black" stroke-width="2" fill="none" />
<polyline points="339.5,212.5,331.5,220.0" stroke="black" stroke-width="2" fill="none" />
<polyline points="340.0,198.0,332.0,198.5,325.0,199.0,317.0,200.0" stroke="black" stroke-width="2" fill="none" />
<polyline points="322.5,169.5,330.5,169.0,338.0,168.0,346.0,167.0,354.0,166.5" stroke="black" stroke-width="2" fill="none" />
<polyline points="355.5,193.5,363.5,186.0,371.5,177.5,379.0,169.5,386.0,162.5,394.0,155.0" stroke="black" stroke-width="2" fill="none" />
<polyline points="412.5,98.5,405.0,99.5,397.0,100.0,389.0,100.5,381.0,101.0,373.0,101.5,365.0,102.0,357.0,102.5" stroke="black" stroke-width="2" fill="none" />
<polyline points="355.5,95.5,363.5,95.5,371.0,95.0,379.0,94.5,387.5,94.0,396.0,93.5,404.0,92.5,412.5,91.5" stroke="black" stroke-width="2" fill="none" />
<polyline points="404.5,71.5,396.5,72.0,389.0,72.0" stroke="black" stroke-width="2" fill="none" />
<polyline points="388.5,65.5,396.0,65.0,403.5,64.0" stroke="black" stroke-width="2" fill="none" />
<polyline points="389.5,58.0,398.0,50.5,405.5,42.0,413.5,34.5,421.0,27.0,429.0,19.5" stroke="black" stroke-width="2" fill="none" />
<polyline points="428.0,16.0,420.5,16.5" stroke="black" stroke-width="2" fill="none" />
<polyline points="418.5,11.5,411.0,19.5,403.5,27.0,395.5,34.5" stroke="black" stroke-width="2" fill="none" />
<polyline points="395.0,35.0,403.0,34.5,411.5,34.0,419.5,33.5" stroke="black" stroke-width="2" fill="none" />
<polyline points="411.0,43.0,403.5,50.5,396.0,58.0,388.5,66.0,380.0,73.0" stroke="black" stroke-width="2" fill="none" />
<polyline points="380.5,71.0,389.0,70.0,398.0,69.5,406.0,68.5,414.0,68.0" stroke="black" stroke-width="2" fill="none" />
<polyline points="411.5,48.5,403.5,49.0,395.5,49.5" stroke="black" stroke-width="2" fill="none" />
<polyline points="396.0,41.5,404.0,33.5,412.0,26.0,420.0,18.0,428.0,10.0" stroke="black" stroke-width="2" fill="none" />
<polyline points="430.0,12.0,421.5,12.0,413.5,12.0" stroke="black" stroke-width="2" fill="none" />
<polyline points="422.0,4.0,430.0,3.0,438.0,3.0" stroke="black" stroke-width="2" fill="none" />
<polyline points="429.5,4.0,429.0,11.5,425.0,19.0,420.0,26.5,417.5,34.5,412.5,42.5,410.0,50.5,409.0,58.5,407.0,66.0,408.5,74.0,408.0,82.0,410.5,90.0,411.5,98.0,413.5,106.5,413.5,115.0,413.5,123.0,411.5,131.0,408.0,139.0,404.0,147.5,400.0,155.0,393.0,163.0,386.0,171.0,377.0,179.0,368.5,187.0,356.5,195.0,343.5,203.0,326.5,211.5,327.5,211.5,335.5,207.5,343.5,203.5,351.5,199.0,359.5,193.0,367.5,188.5,375.0,181.0,383.0,173.5,391.0,165.5,399.0,155.5,407.0,140.5" stroke="black" stroke-width="2" fill="none" />
<polyline points="403.5,80.5,395.5,81.0,388.0,81.5,380.5,81.5" stroke="black" stroke-width="2" fill="none" />
<polyline points="372.5,77.0,380.5,76.0,388.0,76.0,395.5,75.5,403.5,75.0,411.5,75.0" stroke="black" stroke-width="2" fill="none" />
<polyline points="403.5,57.0,395.5,58.0,387.5,59.0" stroke="black" stroke-width="2" fill="none" />
<polyline points="387.5,53.5,395.5,52.5,404.0,52.0,411.5,52.0" stroke="black" stroke-width="2" fill="none" />
<polyline points="411.5,47.0,419.5,34.5,428.0,15.5" stroke="black" stroke-width="2" fill="none" />
<polyline points="421.5,23.5,414.0,24.0,406.0,24.0" stroke="black" stroke-width="2" fill="none" />
<polyline points="402.0,18.5,394.0,26.0" stroke="black" stroke-width="2" fill="none" />
<polyline points="391.5,27.0,399.5,17.0,407.5,12.0,413.5,10.0,421.0,3.0" stroke="black" stroke-width="2" fill="none" />
<polyline points="428.0,20.0,420.5,20.5,412.5,20.5,404.0,20.5,395.5,21.0" stroke="black" stroke-width="2" fill="none" />
<polyline points="401.5,17.5,409.5,19.5" stroke="black" stroke-width="2" fill="none" />
<polyline points="421.0,28.5,413.5,29.5,405.5,30.0,397.5,30.5" stroke="black" stroke-width="2" fill="none" />
<polyline points="393.5,41.0,402.0,41.0,410.0,40.5" stroke="black" stroke-width="2" fill="none" />
<polyline points="411.5,43.5,403.0,44.0,395.0,44.5,387.0,45.0" stroke="black" stroke-width="2" fill="none" />
<polyline points="387.0,36.5,395.0,36.5,402.5,36.5,410.5,36.5,418.5,36.5" stroke="black" stroke-width="2" fill="none" />
<polyline points="412.5,59.5,405.0,60.0,397.0,61.0,389.5,62.0,381.5,62.5" stroke="black" stroke-width="2" fill="none" />
<polyline points="364.0,85.0,372.0,84.5,380.5,83.5,388.5,83.0,396.0,82.5,404.0,82.0,412.5,81.5" stroke="black" stroke-width="2" fill="none" />
<polyline points="412.0,107.5,404.0,107.5,396.0,107.5,388.0,108.0,380.0,108.0,372.0,108.5,364.0,109.0,356.0,109.0,348.0,109.0" stroke="black" stroke-width="2" fill="none" />
<polyline points="330.0,117.0,338.5,117.0,347.0,116.5,355.5,116.0,363.5,115.5,371.5,115.0,379.0,115.0,386.5,115.0,394.5,114.5,403.0,114.0,411.0,114.0" stroke="black" stroke-width="2" fill="none" />
<polyline points="316.5,155.0,308.5,162.0,300.0,170.0,292.0,178.0,283.5,186.0,275.0,194.0,267.0,201.0,259.0,208.5,250.5,216.0,242.5,223.5" stroke="black" stroke-width="2" fill="none" />
<polyline points="236.0,225.0,244.0,217.5,251.5,210.0,259.5,202.0,268.0,194.0,276.0,186.0,283.5,177.5,291.0,169.5,298.5,161.5" stroke="black" stroke-width="2" fill="none" />
<polyline points="290.5,163.5,282.5,171.0,274.5,179.0,267.0,187.0,259.0,194.5,251.5,202.0,243.5,210.0,235.5,217.5,227.5,225.0" stroke="black" stroke-width="2" fill="none" />
<polyline points="218.0,223.5,226.0,216.0,234.5,209.0,243.0,202.0,250.5,194.5,259.0,187.0,267.0,179.5,275.0,172.0,283.5,165.0" stroke="black" stroke-width="2" fill="none" />
<polyline points="276.0,164.0,267.5,171.5,259.0,179.0,250.5,186.0,242.5,193.5,234.0,201.0,226.5,208.5,218.5,216.0,211.0,224.0" stroke="black" stroke-width="2" fill="none" />
<polyline points="204.5,225.0,212.0,217.5,219.0,210.0,226.5,203.0,235.0,195.0,243.5,187.0,252.5,179.5,260.5,171.5,268.5,164.0" stroke="black" stroke-width="2" fill="none" />
<polyline points="276.5,148.5,284.5,148.0,293.0,147.5,300.5,147.0,308.0,147.0,316.0,146.5,323.5,146.5,331.0,146.0,338.5,145.5,346.0,144.5,353.5,144.0,362.0,144.0,370.0,143.5,378.5,143.5,387.0,143.5,395.0,143.5,402.5,143.0" stroke="black" stroke-width="2" fill="none" />
<polyline points="413.0,134.5,405.0,134.5,397.5,134.5,390.0,135.0,382.0,135.0,374.0,136.0,366.0,136.5,358.0,137.0,349.5,137.5,341.0,138.0,333.0,138.5,324.5,138.0,316.0,138.5,307.5,139.0,299.0,139.5" stroke="black" stroke-width="2" fill="none" />
<polyline points="283.5,176.0,292.0,175.5,300.0,175.0,308.5,175.0,316.5,175.5,324.5,175.0,332.5,174.5,339.5,174.0,347.5,174.0" stroke="black" stroke-width="2" fill="none" />
<polyline points="250.5,172.5,243.0,180.5,235.5,188.0,227.5,196.0,219.5,203.5,211.5,210.5,204.0,218.0,196.0,225.5" stroke="black" stroke-width="2" fill="none" />
<polyline points="189.0,222.5,197.5,215.5,205.0,208.0,213.5,201.5,221.5,194.5,229.5,187.0,237.0,180.0,245.0,172.5" stroke="black" stroke-width="2" fill="none" />
<polyline points="236.0,171.5,228.0,179.0,220.0,187.0,211.5,194.0,203.0,201.0,195.5,208.0,187.5,215.5,179.5,223.5" stroke="black" stroke-width="2" fill="none" />
<polyline points="181.0,225.5,189.0,224.5,197.0,224.0,204.5,223.5,212.5,223.5,220.5,223.0,228.0,222.5,235.5,222.0,243.5,222.0,251.0,222.5,259.0,222.0,267.0,221.5,275.5,221.0,283.5,220.5,291.5,219.5,298.5,219.0" stroke="black" stroke-width="2" fill="none" />
<polyline points="226.0,173.0,218.0,180.5,210.0,188.0,202.0,195.0,194.5,202.0,187.0,209.0,179.5,216.5,172.0,223.0" stroke="black" stroke-width="2" fill="none" />
<polyline points="171.5,216.0,179.0,208.5,186.5,201.0,194.5,193.5,202.5,186.5,211.0,179.0,219.0,171.0" stroke="black" stroke-width="2" fill="none" />
<polyline points="211.0,172.5,203.0,179.5,195.5,187.0,188.0,194.0,180.5,201.5,173.0,209.0" stroke="black" stroke-width="2" fill="none" />
<polyline points="164.5,211.5,172.5,211.0,180.5,210.5,189.0,210.0,197.0,209.0,204.5,208.0,212.5,207.0,220.5,206.0,228.5,205.0,236.5,204.0,245.0,203.0,252.5,203.0,260.5,202.5,268.5,202.5,277.0,202.5,285.0,202.5,293.5,202.5,301.0,202.0,309.0,201.5,317.0,201.0,324.5,200.5,332.5,200.0" stroke="black" stroke-width="2" fill="none" />
<polyline points="213.0,164.0,204.5,171.5,196.5,179.0,188.5,186.5,180.5,194.0,172.0,201.5,164.0,209.0" stroke="black" stroke-width="2" fill="none" />
<polyline points="165.5,214.0,173.0,213.5,180.5,213.0,188.0,212.0,196.0,211.5,204.0,211.0,212.0,210.0,220.5,209.5,228.5,208.5,235.5,208.5,243.5,208.0,252.0,207.5,260.5,207.5,268.5,207.5,276.0,207.0,283.5,206.5,292.0,206.5,300.5,205.5,309.0,205.0,316.5,204.5,325.0,204.0,332.5,203.5,340.5,203.0,348.5,202.5,356.5,202.0" stroke="black" stroke-width="2" fill="none" />
<polyline points="204.5,164.5,196.5,172.0,188.0,179.0,180.0,186.5,171.5,194.0,163.0,201.5,154.5,209.0" stroke="black" stroke-width="2" fill="none" />
<polyline points="148.5,207.0,156.5,206.5,165.0,206.5,173.0,205.5,181.5,204.5,189.5,204.0,197.5,203.5,205.0,203.0,213.0,202.0,220.5,201.0,228.5,200.5,236.0,200.0,243.5,199.0,251.0,198.5,259.0,198.5,267.5,198.0,275.5,197.5,284.5,197.0,293.0,196.0,301.0,195.0,309.5,194.5,317.0,194.5,324.5,194.5,332.0,194.5,340.0,194.5,348.0,194.0" stroke="black" stroke-width="2" fill="none" />
<polyline points="197.5,162.5,189.0,170.5,180.5,178.5,172.0,186.5,164.0,194.5,156.0,202.0" stroke="black" stroke-width="2" fill="none" />
<polyline points="149.0,201.5,157.0,194.0,164.5,186.0,172.0,178.5,180.0,170.5,188.0,163.0" stroke="black" stroke-width="2" fill="none" />
<polyline points="187.5,157.0,179.5,164.0,172.0,171.0,164.0,178.0,156.5,185.5,148.5,193.0,140.5,200.5" stroke="black" stroke-width="2" fill="none" />
<polyline points="141.5,202.5,149.5,201.5,157.0,201.5,165.0,201.0,172.5,200.5,180.5,200.0,188.0,200.0,195.5,200.0,203.0,199.0,211.0,198.5,219.5,198.0,227.5,197.0,235.5,196.0,244.0,194.5,252.5,193.5,260.5,193.0,268.5,192.0,276.0,192.0,284.0,192.0,292.0,191.0,300.0,191.0,308.0,190.5" stroke="black" stroke-width="2" fill="none" />
<polyline points="330.5,208.5,323.0,208.5,315.5,209.0,308.0,210.0,300.0,210.5,292.5,211.5,285.0,211.5,277.5,212.5,269.5,213.0,261.5,213.5,253.5,214.0,245.0,215.0,237.0,215.5,229.0,215.5,221.0,216.0,213.5,216.0,205.5,216.5,197.0,217.0,188.5,217.0,180.5,217.0" stroke="black" stroke-width="2" fill="none" />
<polyline points="178.5,221.5,170.5,223.0,163.0,224.0,155.0,224.5,147.5,226.5,139.5,227.5" stroke="black" stroke-width="2" fill="none" />
<polyline points="131.0,231.0,139.0,230.5,147.0,230.0,155.0,229.0,163.5,227.5,172.0,226.5,180.0,226.5,188.0,226.0,196.0,225.0,204.0,224.5,211.5,224.5,219.5,223.5,228.0,223.0,235.5,223.0,243.5,223.0,251.5,222.5,259.5,222.0,267.5,222.0,276.0,221.5,283.5,221.5" stroke="black" stroke-width="2" fill="none" />
<polyline points="179.0,156.0,170.5,163.5,162.5,171.5,155.0,179.0,147.0,186.5,139.0,194.0" stroke="black" stroke-width="2" fill="none" />
<polyline points="131.5,195.0,139.5,194.5,147.5,193.5,155.5,193.0,163.5,193.0,171.5,192.0,179.0,191.0,186.5,189.5,194.0,189.0,202.0,188.5,209.5,188.0,218.0,187.5,226.5,187.0,234.5,187.0,242.0,186.5,250.5,186.5,259.0,186.5,267.0,186.5,275.5,186.5,284.5,186.5,293.0,185.5,300.5,185.5,308.5,185.5,316.0,185.0,323.5,184.0" stroke="black" stroke-width="2" fill="none" />
<polyline points="170.5,156.0,163.0,163.0,154.5,171.0,146.5,179.0,138.5,187.5,130.5,195.0" stroke="black" stroke-width="2" fill="none" />
<polyline points="131.5,199.5,139.5,199.0,147.0,198.0,154.5,197.5,162.0,196.5,170.0,195.5,178.5,195.0,187.0,194.0,195.0,193.0,203.5,192.0,211.0,191.5,219.0,191.5,226.5,191.5,234.5,191.5,242.5,191.5,250.5,191.5,259.0,191.0,266.0,190.0,274.0,189.5,282.5,188.5,290.5,188.0,299.0,187.0,306.5,187.0,314.5,187.0,322.5,187.5,330.5,187.0,338.5,187.0,347.0,186.5,355.0,186.5" stroke="black" stroke-width="2" fill="none" />
<polyline points="165.0,157.5,156.5,165.5,148.5,173.5,140.0,181.0,131.5,188.0,123.5,195.5" stroke="black" stroke-width="2" fill="none" />
<polyline points="125.0,191.5,133.5,190.5,141.5,189.5,149.0,188.5,156.5,188.0,164.0,187.0,172.5,186.5,180.5,186.0,188.5,186.0,196.5,185.5,204.5,184.5,212.0,184.5,219.5,184.0,227.5,183.5,236.0,183.5,244.5,183.0,252.0,182.5,260.0,181.5,268.0,180.5,276.5,180.0,284.5,179.5,292.5,179.0,300.5,178.5,308.5,178.0,316.5,177.5,324.5,177.0,332.0,176.5,339.5,176.0,347.0,175.0,355.0,174.5,362.5,174.0" stroke="black" stroke-width="2" fill="none" />
<polyline points="164.5,147.5,156.5,155.0,148.5,162.5,140.5,170.0,132.5,177.5,124.5,185.0" stroke="black" stroke-width="2" fill="none" />
<polyline points="117.5,184.0,125.5,176.5,134.0,169.5,142.0,162.0,150.5,155.0,158.0,147.5" stroke="black" stroke-width="2" fill="none" />
<polyline points="156.5,140.5,148.0,148.0,140.0,154.5,131.5,161.5,122.5,169.5,114.5,177.0" stroke="black" stroke-width="2" fill="none" />
<polyline points="107.5,177.5,115.5,170.0,123.5,162.5,131.0,155.0,139.0,147.5,146.5,140.0" stroke="black" stroke-width="2" fill="none" />
<polyline points="140.5,140.0,132.5,147.5,124.0,155.0,116.0,162.5,108.0,169.5" stroke="black" stroke-width="2" fill="none" />
<polyline points="99.5,169.5,107.5,169.0,116.0,168.5,124.0,167.5,132.0,167.0,140.0,166.5,148.0,165.0,156.5,164.5,164.5,163.5,172.5,163.0" stroke="black" stroke-width="2" fill="none" />
<polyline points="141.0,133.5,133.0,140.5,125.0,147.5,116.5,155.0,108.0,162.5,99.5,169.5" stroke="black" stroke-width="2" fill="none" />
<polyline points="99.0,174.5,107.0,174.0,115.5,173.0,123.5,172.0,131.5,171.0,139.5,170.5,147.5,169.5,156.0,169.0,164.5,168.5,172.5,168.5,180.5,168.0,188.5,167.0,196.0,167.0,203.5,166.5,211.5,166.0,219.5,166.0,227.5,165.5,235.5,165.0,244.0,164.5,252.5,164.5,260.5,164.0,268.5,163.5,276.0,163.0,284.0,162.5,292.0,161.5,300.0,160.5,307.5,160.0,315.0,159.5,322.5,159.0,329.5,158.0,337.5,157.5,345.5,157.5,353.5,157.5,362.0,157.5,370.5,157.0,379.0,156.5,387.5,156.0" stroke="black" stroke-width="2" fill="none" />
<polyline points="132.0,131.5,124.5,139.0,117.0,146.0,109.0,153.5,101.0,160.5" stroke="black" stroke-width="2" fill="none" />
<polyline points="93.0,161.5,101.0,161.5,109.0,161.5,116.5,161.0,124.0,160.5,132.0,159.5,140.0,159.5,148.5,159.5,157.0,159.0" stroke="black" stroke-width="2" fill="none" />
<polyline points="124.5,130.0,116.5,137.5,108.5,145.0,100.0,153.0,91.5,161.5" stroke="black" stroke-width="2" fill="none" />
<polyline points="92.0,166.0,100.0,166.0,108.5,165.5,116.5,165.0,125.0,164.5,132.5,163.5,140.5,162.5,148.5,162.0,156.5,161.0,164.5,160.5,172.5,160.0,180.5,159.0,188.5,159.0,196.5,158.5,204.0,159.0,211.5,158.5,220.0,158.0,228.5,157.5,236.5,157.0,244.5,156.0,252.0,155.5,260.5,155.0,269.0,154.0,277.0,153.5,285.0,152.5,292.0,152.0,300.0,152.0,307.0,151.5,314.5,151.0,322.0,150.5,330.0,150.0,338.0,149.5,347.0,148.5,355.5,148.5,363.5,149.0,371.5,148.5,379.5,148.5,388.5,147.5,396.5,147.0" stroke="black" stroke-width="2" fill="none" />
<polyline points="124.0,123.5,116.0,131.0,109.0,138.5,101.0,145.5,92.5,153.0" stroke="black" stroke-width="2" fill="none" />
<polyline points="84.5,152.5,92.5,152.0,100.0,152.0,108.0,151.5,116.0,151.0,124.0,150.5,131.5,150.5,140.0,150.0,148.5,149.5" stroke="black" stroke-width="2" fill="none" />
<polyline points="117.5,124.5,109.5,132.0,101.0,139.0,92.0,146.5,83.5,153.5" stroke="black" stroke-width="2" fill="none" />
<polyline points="84.5,149.5,92.0,149.0,100.5,148.5,108.0,148.0,115.5,147.5,123.5,147.5,131.5,147.0,140.0,147.0,148.5,146.5,157.0,146.0,165.0,145.5,173.0,145.0,181.0,144.5,189.0,144.0,197.0,143.5" stroke="black" stroke-width="2" fill="none" />
<polyline points="205.0,170.5,197.0,171.0,189.0,171.5,181.0,172.0,172.5,172.0,164.0,173.0,156.0,174.0,147.5,175.0,139.5,176.0,131.5,177.5,123.0,178.0,115.0,179.0,107.0,179.5" stroke="black" stroke-width="2" fill="none" />
<polyline points="108.5,182.5,116.0,182.0,124.0,181.0,132.0,180.0,140.0,179.5,148.0,178.5,156.5,178.0,165.0,177.5,173.5,178.0,181.5,178.0,189.5,177.5,197.5,177.0,205.0,176.0,213.0,175.0,220.5,174.5,228.5,173.5,236.5,173.5,245.0,173.5,253.0,173.5,260.5,173.5,268.5,172.5,276.0,172.0,284.0,170.5,291.5,169.5,298.5,169.5,306.5,169.0,314.5,168.5,323.0,168.5,331.0,168.5,339.0,168.0,346.5,167.5,355.0,167.0,363.0,166.5,370.5,166.0" stroke="black" stroke-width="2" fill="none" />
<polyline points="331.0,210.0,323.0,210.5,315.0,211.0,306.5,211.5,298.5,211.5,291.0,212.0,283.0,213.0,275.5,214.0,267.5,214.5,260.0,214.5,252.0,214.5,244.0,214.5,235.5,214.5,227.0,215.0,219.0,215.5,211.0,216.0,203.0,217.0,195.5,217.0,187.5,217.5,179.5,218.0,172.0,219.0,163.0,220.0,154.5,221.0,146.0,221.5,137.5,222.0,129.5,222.5" stroke="black" stroke-width="2" fill="none" />
<polyline points="104.5,230.5,112.5,232.5,120.5,233.0,128.5,233.0,136.5,232.5,144.5,232.5,152.5,232.5,161.0,231.5,169.0,231.5,177.5,230.5,186.0,230.5,193.5,230.5,201.5,231.0,209.5,231.5,217.0,233.0,225.0,233.0,233.0,233.0,241.0,232.0,249.0,232.0,257.5,231.5,265.5,231.5,273.5,230.5,281.5,230.5,289.0,229.0,297.0,227.0,305.0,225.5,313.0,223.5,320.5,222.5,329.0,219.0,337.0,217.0,344.5,215.0,353.0,213.0" stroke="black" stroke-width="2" fill="none" />
<polyline points="333.0,170.5,325.5,171.5,317.5,172.0,309.5,172.5,302.0,173.5,294.0,174.0,286.5,175.0,278.0,175.5,270.5,176.0,262.5,177.0,254.5,177.0,246.0,177.5,238.0,178.5,230.0,179.0,222.0,179.5,214.0,180.5,205.0,181.0,196.5,182.0,188.5,182.0,181.0,182.5,173.5,183.0,166.0,183.0,158.0,183.5,149.5,184.0,141.5,184.0,133.0,184.5,124.5,185.0,116.0,185.5" stroke="black" stroke-width="2" fill="none" />
<polyline points="84.5,157.5,92.5,157.5,100.5,157.5,109.0,156.5,117.0,155.5,125.0,154.5,132.5,154.5,140.0,153.5,148.0,153.0,156.0,152.5,164.0,152.0,172.0,151.5,180.5,150.5,188.5,150.0,196.0,149.5,204.0,149.0,212.5,148.5,220.5,148.5,228.5,148.5,236.5,148.0,244.0,147.5,252.0,147.0,261.0,146.5,269.0,145.5,276.5,145.0,284.5,144.5,292.0,144.5,299.5,144.5,307.5,144.0,315.5,143.5,323.0,142.5,331.5,142.0,339.0,141.5,346.5,141.0,354.0,140.0,361.5,139.5,370.0,139.0,378.5,138.5,386.5,137.5,394.5,137.0" stroke="black" stroke-width="2" fill="none" />
<polyline points="140.0,143.5,132.0,143.5,124.0,144.5,116.0,145.0,108.0,145.0,99.5,145.5,91.5,145.5,83.5,146.0" stroke="black" stroke-width="2" fill="none" />
<polyline points="85.0,146.5,92.5,139.5,100.0,132.0,108.5,124.5" stroke="black" stroke-width="2" fill="none" />
<polyline points="109.5,116.0,101.0,123.5,93.0,132.0,84.5,139.5" stroke="black" stroke-width="2" fill="none" />
<polyline points="76.0,140.0,84.0,132.5,92.0,125.0,100.0,117.5" stroke="black" stroke-width="2" fill="none" />
<polyline points="100.0,109.5,92.0,117.0,84.0,124.5,75.5,131.5" stroke="black" stroke-width="2" fill="none" />
<polyline points="75.0,133.0,83.0,132.5,91.0,132.5,99.5,132.0,107.5,132.0,115.5,131.5,123.5,131.0,131.0,130.0,138.5,129.5,146.0,129.0,154.0,128.0" stroke="black" stroke-width="2" fill="none" />
<polyline points="172.0,136.0,164.0,136.0,156.0,136.0,147.5,137.0,139.0,138.0,131.0,138.5,123.0,139.0,115.0,140.0,106.5,140.5,99.0,141.0,91.5,141.5,84.0,141.5,76.0,142.0" stroke="black" stroke-width="2" fill="none" />
<polyline points="74.5,138.0,82.5,137.5,90.5,136.5,98.5,135.5,106.0,135.0,114.5,134.0,123.0,133.5" stroke="black" stroke-width="2" fill="none" />
<polyline points="114.5,127.0,106.5,127.0,98.5,127.5,90.5,127.5,82.5,128.0,74.5,128.5" stroke="black" stroke-width="2" fill="none" />
<polyline points="70.5,129.5,78.5,146.5,86.5,159.5,94.5,168.5,102.5,177.0,110.5,184.0,118.5,190.0,126.0,195.0,134.0,200.0,142.5,204.5,150.5,208.0,158.5,212.0,166.5,214.5,174.5,216.5,182.0,218.5" stroke="black" stroke-width="2" fill="none" />
<polyline points="107.5,119.5,99.0,119.5,91.0,119.5,83.0,120.0,74.5,120.0" stroke="black" stroke-width="2" fill="none" />
<polyline points="74.0,123.0,83.0,116.0,91.0,109.0" stroke="black" stroke-width="2" fill="none" />
<polyline points="82.5,106.5,75.0,114.5" stroke="black" stroke-width="2" fill="none" />
<polyline points="74.0,114.0,82.0,113.5,89.5,112.5" stroke="black" stroke-width="2" fill="none" />
<polyline points="82.0,103.0,90.0,108.0,98.0,112.0,106.0,116.0,114.0,120.5,122.0,124.5,130.0,128.5,137.5,132.0,145.5,135.0,153.0,140.0,161.5,143.0,169.5,146.0,177.5,148.0,186.0,151.0,194.0,153.0,202.0,154.0,210.0,156.5,217.5,158.0,225.5,158.0,233.5,158.0,241.5,158.0,249.5,158.0,257.5,156.5,265.5,154.0,273.5,152.5,281.5,150.5,289.5,148.0,297.5,146.5,305.5,142.5,313.5,140.0,321.5,136.0,329.5,132.0,337.5,127.5,345.5,121.0,354.0,113.5,362.0,104.5,370.0,96.0,373.0,93.0,366.0,101.0,358.5,108.5,350.5,116.5,341.5,124.5,330.5,133.0,314.5,141.0" stroke="black" stroke-width="2" fill="none" />
<polyline points="139.5,119.5,131.0,120.5,123.0,121.0,114.5,122.0,106.5,123.0,98.0,123.5,90.0,124.0,82.0,125.0,74.5,126.0,66.5,127.0" stroke="black" stroke-width="2" fill="none" />
<polyline points="68.0,119.0,75.5,118.0,83.5,116.5,91.0,115.5,99.0,114.5,107.0,114.5,115.0,113.5,123.5,112.5" stroke="black" stroke-width="2" fill="none" />
<polyline points="117.0,107.5,136.0,115.5,154.0,123.0,174.0,131.0" stroke="black" stroke-width="2" fill="none" />
<polyline points="90.0,100.0,82.0,100.5,73.5,100.5" stroke="black" stroke-width="2" fill="none" />
<polyline points="77.5,99.0,69.5,107.0,68.5,114.5,67.0,122.0,70.0,130.0,73.5,138.0,76.5,146.0,81.5,153.5,88.0,161.5,95.0,169.0,103.0,177.0,112.0,185.0,124.5,193.0,137.5,201.0,155.0,209.5" stroke="black" stroke-width="2" fill="none" />
<polyline points="116.0,105.5,107.5,106.0,99.5,107.0,91.5,107.5,83.5,108.0,75.5,108.5,67.5,109.0" stroke="black" stroke-width="2" fill="none" />
<polyline points="69.5,105.5,78.0,97.5,85.5,98.5,94.0,99.5,102.0,102.0,110.0,104.5,118.5,107.0,126.5,109.0,134.5,112.5,142.0,115.5,150.0,119.0,158.0,123.0,166.5,126.0,174.5,129.5,182.5,132.5,190.5,134.5,198.5,136.5,206.0,138.5,214.0,139.5,222.5,140.5,230.5,140.5,238.5,140.5,246.0,140.0,254.0,140.0,262.5,139.5,270.5,138.5,278.5,136.5,286.5,136.0,294.5,133.0,302.5,131.5,310.5,128.5,318.0,124.5,326.0,119.5,333.5,113.0,341.5,107.0,349.5,99.0,357.5,91.0,365.5,84.0,374.0,76.5,382.0,61.0" stroke="black" stroke-width="2" fill="none" />
<polyline points="179.0,148.5,157.0,140.5,138.5,133.0,121.5,125.0,105.5,116.5,90.0,108.5,82.0,100.5" stroke="black" stroke-width="2" fill="none" />
</svg>