<svg xmlns="http://www.w3.org/2000/svg" version="1.1" 
width="100%"
height="100%"
preserveAspectRatio="xMidYMid meet" viewBox="0 0 600 300"><polyline points="53.5,28.0,52.5,36.0,53.5,43.5,57.5,51.5" stroke="black" stroke-width="2" fill="none" />
<polyline points="58.5,51.0,50.5,52.0" stroke="black" stroke-width="2" fill="none" />
<polyline points="50.5,55.5,58.5,48.0,67.0,41.0" stroke="black" stroke-width="2" fill="none" />
<polyline points="67.5,44.0,59.5,45.0,52.0,45.5,44.5,46.5" stroke="black" stroke-width="2" fill="none" />
<polyline points="42.5,50.0,50.5,41.5,59.0,34.0" stroke="black" stroke-width="2" fill="none" />
<polyline points="59.0,28.5,51.0,36.0,43.0,43.0" stroke="black" stroke-width="2" fill="none" />
<polyline points="43.0,42.0,50.5,41.5" stroke="black" stroke-width="2" fill="none" />
<polyline points="53.0,42.5,63.0,51.0" stroke="black" stroke-width="2" fill="none" />
<polyline points="66.5,51.5,58.5,59.0,50.5,66.5" stroke="black" stroke-width="2" fill="none" />
<polyline points="52.0,65.5,60.0,65.0,67.5,64.5,75.5,64.0" stroke="black" stroke-width="2" fill="none" />
<polyline points="76.0,61.5,68.0,68.5,60.0,75.5" stroke="black" stroke-width="2" fill="none" />
<polyline points="61.0,81.0,69.0,80.5,77.0,80.0,85.0,79.5" stroke="black" stroke-width="2" fill="none" />
<polyline points="81.5,76.5,74.0,83.5,66.5,91.5" stroke="black" stroke-width="2" fill="none" />
<polyline points="65.0,90.0,73.5,89.5,82.0,89.0" stroke="black" stroke-width="2" fill="none" />
<polyline points="91.0,92.0,83.0,99.5,74.5,106.5,66.5,114.0" stroke="black" stroke-width="2" fill="none" />
<polyline points="67.5,114.0,75.5,113.5,83.5,113.0,91.0,112.0" stroke="black" stroke-width="2" fill="none" />
<polyline points="91.0,114.0,83.0,121.5,75.0,129.0" stroke="black" stroke-width="2" fill="none" />
<polyline points="81.5,130.5,89.5,130.0" stroke="black" stroke-width="2" fill="none" />
<polyline points="93.5,126.0,98.5,133.5,103.0,141.5,110.0,149.0,116.5,157.0,124.5,165.0,132.0,173.0,139.5,181.0,148.5,189.0,158.0,197.0,171.0,205.0,189.0,213.0" stroke="black" stroke-width="2" fill="none" />
<polyline points="186.0,209.5,178.0,217.0,169.5,224.5,162.0,232.5,154.0,240.5,146.0,247.5,138.5,255.5,131.0,263.5" stroke="black" stroke-width="2" fill="none" />
<polyline points="131.5,270.0,139.5,270.0,147.5,269.5,155.0,269.0,163.0,268.5,171.0,268.0,179.0,267.0,187.5,266.5,195.5,265.5,203.5,265.0,211.5,264.5,219.0,264.0,227.0,263.0,235.0,262.5,243.0,262.0,251.0,261.5,259.0,261.0,266.5,260.5,274.5,260.0,283.0,260.0,291.5,259.5,299.0,259.0,307.0,258.0,315.0,257.0,323.5,256.0,331.5,255.0,339.5,255.0,348.0,255.0,356.0,254.0,364.0,253.5,372.5,253.0,380.5,252.5,388.0,252.0,396.0,252.0" stroke="black" stroke-width="2" fill="none" />
<polyline points="379.0,268.0,386.5,261.0,394.5,254.0,402.5,246.0,410.5,238.0,419.0,230.0,426.5,222.5,435.0,215.0,443.0,208.0,451.0,200.5,459.0,193.5,467.0,186.0,475.0,178.0" stroke="black" stroke-width="2" fill="none" />
<polyline points="475.5,171.5,468.0,179.0,460.5,187.0,452.0,194.5,444.0,201.0,435.5,208.5,427.0,215.5,418.0,222.5,409.5,229.5,401.5,237.0,393.5,244.0,385.5,252.0,377.5,260.0,370.0,268.0,362.5,275.0" stroke="black" stroke-width="2" fill="none" />
<polyline points="340.0,282.5,348.0,274.5,356.5,266.0,364.5,258.5,372.0,251.0,380.0,244.5,388.0,237.0,395.5,229.5,403.5,221.5,411.5,214.0,419.0,206.5,427.0,198.5,434.5,190.5,442.0,182.5,450.0,175.0,458.0,167.5,466.0,160.5,474.0,153.5,482.5,146.0" stroke="black" stroke-width="2" fill="none" />
<polyline points="475.0,146.0,467.5,153.5,459.5,161.5,451.5,169.0,444.0,177.0,435.5,184.5,427.5,192.0,420.0,199.5,412.0,207.5,403.5,215.5,395.5,222.5,387.5,230.0,379.0,237.0,371.0,244.5,362.5,252.0,354.0,260.0,346.5,267.0,338.5,274.5,331.0,281.5,323.5,289.5" stroke="black" stroke-width="2" fill="none" />
<polyline points="347.5,282.5,355.5,274.5,363.0,267.0,370.5,260.0,378.0,252.5,386.0,245.0,394.0,237.0,402.0,230.0,410.5,222.5,418.5,215.0,426.5,207.5,434.5,200.5,443.0,193.0,451.5,185.0,459.5,177.0,467.5,169.5,475.5,161.5" stroke="black" stroke-width="2" fill="none" />
<polyline points="474.0,145.0,466.5,145.5,458.5,146.0" stroke="black" stroke-width="2" fill="none" />
<polyline points="460.5,137.0,453.0,145.0,445.0,153.0,437.0,161.0,426.0,169.5,413.5,177.5,400.5,185.0,387.5,192.5,374.0,200.5,358.0,208.5,338.0,217.0" stroke="black" stroke-width="2" fill="none" />
<polyline points="340.0,218.0,331.5,225.5,323.0,233.0,315.0,240.5,306.5,248.5,298.5,256.0,291.0,264.5,283.5,272.5,276.0,280.5,267.5,288.5,259.0,296.5,251.0,303.5" stroke="black" stroke-width="2" fill="none" />
<polyline points="274.5,302.0,283.0,294.5,291.5,287.0,300.0,279.5,308.0,272.0,315.5,264.5,324.0,256.5,332.0,249.0,341.0,241.5,349.5,233.5,357.5,226.0,365.5,218.0,373.5,210.0,381.5,202.5,389.5,195.0" stroke="black" stroke-width="2" fill="none" />
<polyline points="388.0,200.0,396.0,200.0,404.5,199.5,413.0,199.5,421.0,199.0,429.0,199.0,437.5,198.5,445.5,198.0" stroke="black" stroke-width="2" fill="none" />
<polyline points="453.5,218.0,445.5,225.0,437.0,233.0,428.0,241.0,419.5,249.0,411.0,257.0" stroke="black" stroke-width="2" fill="none" />
<polyline points="395.0,263.0,403.0,256.0,412.0,249.0,420.5,241.5,429.0,233.5,437.0,226.0,444.5,218.0,452.0,210.5,460.0,203.0,468.0,195.5" stroke="black" stroke-width="2" fill="none" />
<polyline points="475.0,158.5,466.5,158.5,458.5,159.0,451.0,159.5,443.0,160.0" stroke="black" stroke-width="2" fill="none" />
<polyline points="450.0,154.5,458.0,153.5,466.5,153.0,474.5,152.0" stroke="black" stroke-width="2" fill="none" />
<polyline points="476.5,138.5,468.5,146.5,460.5,154.5,452.5,162.0,444.5,169.0,436.0,176.5,428.0,184.5,419.5,192.0,411.5,200.0,404.0,207.5,396.5,215.0,388.5,222.5,380.0,229.5,372.0,237.0,364.5,244.5,357.0,252.0,348.5,259.5,340.0,266.5,331.5,274.0,323.5,281.5,316.0,288.5,308.0,296.0" stroke="black" stroke-width="2" fill="none" />
<polyline points="300.5,296.0,308.5,288.5,316.5,281.5,324.0,274.0,332.0,266.5,339.5,259.5,347.0,252.0,355.0,245.0,363.0,237.5,371.0,230.0,379.0,222.5,387.5,215.5,395.5,207.5,403.0,199.5,410.5,192.0,418.5,184.5,426.5,177.0,435.0,169.0,444.0,162.0,452.5,154.5,461.0,146.5,469.0,139.0" stroke="black" stroke-width="2" fill="none" />
<polyline points="470.0,129.5,461.5,137.0,452.5,145.0,444.0,153.0,434.5,161.0,426.5,169.0,418.0,177.0,410.0,185.0,402.0,193.0,394.5,201.0,386.0,208.5,378.5,215.5,370.5,223.0,362.5,230.5,355.0,238.5,347.5,245.5,339.5,252.5,332.0,259.0,324.5,265.5,316.0,272.5,308.0,280.5,300.0,288.0,292.0,296.5" stroke="black" stroke-width="2" fill="none" />
<polyline points="282.5,297.0,290.5,290.5,298.5,284.0,306.5,277.0,315.0,269.5,324.0,262.5,332.0,255.5,340.0,248.0,348.5,241.0,357.0,233.0,365.0,225.5,373.0,218.0,381.5,210.0,389.5,202.0,397.0,193.5,405.0,186.0,413.5,178.5,421.5,171.0" stroke="black" stroke-width="2" fill="none" />
<polyline points="420.5,177.5,428.5,177.0,436.0,176.0,443.5,175.5,451.0,175.5" stroke="black" stroke-width="2" fill="none" />
<polyline points="436.5,170.5,444.5,170.0,453.0,169.5,460.5,168.5,468.0,167.0,475.5,166.0" stroke="black" stroke-width="2" fill="none" />
<polyline points="474.5,131.0,466.5,131.0,458.0,131.0,450.0,131.5" stroke="black" stroke-width="2" fill="none" />
<polyline points="451.5,133.0,433.5,141.0,418.5,148.5,402.0,156.5,389.0,164.5,375.5,172.0,362.0,180.0,346.0,188.5,326.0,196.5" stroke="black" stroke-width="2" fill="none" />
<polyline points="331.5,198.5,339.0,198.0,347.0,197.0,355.0,196.5,363.0,196.0,371.5,195.0,379.5,194.5,387.0,194.0,395.0,193.5,403.0,193.5,411.0,193.0,419.0,192.5,426.5,191.5,434.5,191.0,442.5,190.0,451.0,189.5,459.0,189.5,467.0,189.5" stroke="black" stroke-width="2" fill="none" />
<polyline points="483.0,138.0,475.0,138.5,467.0,139.0,459.0,139.5,451.0,140.0,443.0,141.0,435.5,141.5" stroke="black" stroke-width="2" fill="none" />
<polyline points="418.5,151.5,426.5,151.0,435.0,150.5,443.0,150.0,451.0,149.0,459.0,148.5,466.5,147.5,474.5,147.5,482.5,147.5" stroke="black" stroke-width="2" fill="none" />
<polyline points="450.0,184.0,442.0,185.0,434.5,185.0,426.5,185.5,418.0,186.0,410.0,186.5" stroke="black" stroke-width="2" fill="none" />
<polyline points="397.0,192.0,405.0,191.5,413.5,191.0,422.0,191.0,430.0,191.0,438.0,190.5,445.5,190.5" stroke="black" stroke-width="2" fill="none" />
<polyline points="482.5,153.0,475.0,153.0,468.0,153.5,460.5,154.5,452.5,155.5,444.5,156.5,436.5,157.0,428.0,157.5,419.5,158.0,411.0,158.0,402.5,158.0" stroke="black" stroke-width="2" fill="none" />
<polyline points="386.0,165.0,394.0,164.5,402.5,163.5,411.5,162.5,420.0,162.0,429.0,161.5,437.0,161.0,445.0,160.5,453.0,160.0,461.5,160.0,470.0,159.5,477.5,159.0,485.5,159.0" stroke="black" stroke-width="2" fill="none" />
<polyline points="476.0,168.0,467.5,168.5,459.5,168.5,452.0,169.0,444.0,169.5,435.5,169.5,427.0,169.0,418.5,169.5,411.0,170.0,403.0,170.5,395.0,171.0,387.0,171.0,379.5,172.0" stroke="black" stroke-width="2" fill="none" />
<polyline points="363.5,180.0,371.5,179.0,380.0,179.0,388.0,179.0,396.5,179.0,404.5,179.0,412.5,178.5,420.5,178.0,428.0,177.5,436.0,177.0,444.0,176.5,451.5,176.0,459.5,175.5,467.0,175.0,475.0,174.0" stroke="black" stroke-width="2" fill="none" />
<polyline points="372.5,203.0,364.5,210.5,356.5,218.0,348.5,226.0,340.5,234.0,332.5,242.5,324.5,249.5,316.5,257.5,308.5,265.0,300.5,272.0,293.0,279.5,284.5,287.0,276.0,294.5,268.0,302.0" stroke="black" stroke-width="2" fill="none" />
<polyline points="259.5,302.0,266.5,294.5,274.0,287.0,282.5,279.5,291.0,272.0,299.5,264.5,307.5,257.0,315.5,249.5,323.5,241.0,331.5,233.0,340.0,225.5,348.5,218.5,356.5,211.0" stroke="black" stroke-width="2" fill="none" />
<polyline points="357.0,216.5,365.0,216.0,372.5,215.5,380.5,215.0,388.5,214.5,397.0,213.5,404.5,213.5,412.0,213.0,419.5,212.5,427.0,211.5,435.0,211.0" stroke="black" stroke-width="2" fill="none" />
<polyline points="435.5,205.5,427.5,205.5,419.5,205.5,411.5,205.5,404.0,206.0,396.0,207.5,388.0,208.0,380.0,208.5,372.0,209.0" stroke="black" stroke-width="2" fill="none" />
<polyline points="349.0,190.0,357.0,189.0,364.5,188.0,372.0,188.0,380.0,188.5,387.5,188.5,395.5,188.0,403.5,187.0,411.5,186.0,419.5,185.0,428.0,184.5,435.5,184.0,443.0,184.5,451.0,184.0,459.5,183.5,467.5,183.0,475.5,182.0" stroke="black" stroke-width="2" fill="none" />
<polyline points="332.5,218.0,324.5,225.5,316.0,233.0,308.0,241.0,299.5,249.0,291.5,256.5,283.0,264.0,274.5,271.5,266.0,279.0,258.5,287.0,250.0,294.0,242.5,301.5" stroke="black" stroke-width="2" fill="none" />
<polyline points="235.0,299.5,242.5,291.5,250.5,284.5,259.0,277.0,267.5,270.0,276.0,263.0,285.0,255.5,293.0,248.0,301.5,241.0,310.0,233.5,317.5,226.5,325.5,219.0" stroke="black" stroke-width="2" fill="none" />
<polyline points="333.0,227.5,341.0,226.5,348.5,225.5,356.0,225.0,364.0,224.5,371.5,224.0,379.0,223.5,386.5,223.0,394.5,223.0,402.0,223.0,410.5,222.0,418.0,222.0,426.5,221.5" stroke="black" stroke-width="2" fill="none" />
<polyline points="308.0,226.0,300.0,233.5,292.5,241.5,284.5,249.0,276.5,256.0,268.5,263.5,260.0,271.0,252.0,278.5,244.0,286.0,236.0,293.0,227.5,300.5" stroke="black" stroke-width="2" fill="none" />
<polyline points="221.0,302.0,229.0,294.5,237.0,287.0,244.5,280.0,252.0,272.0,259.5,264.5,267.0,257.0,274.5,250.0,282.5,242.5,290.0,234.5,297.5,227.0" stroke="black" stroke-width="2" fill="none" />
<polyline points="291.0,225.5,283.0,233.5,275.0,240.5,267.5,248.0,260.5,256.0,252.5,263.5,245.0,271.0,237.0,279.0,229.0,287.0,220.5,295.0,212.5,302.5" stroke="black" stroke-width="2" fill="none" />
<polyline points="214.5,296.0,222.5,288.5,230.0,280.5,238.0,272.5,245.5,264.5,254.0,257.0,262.0,249.0,269.5,241.5,277.5,234.0,285.5,226.5" stroke="black" stroke-width="2" fill="none" />
<polyline points="277.5,228.0,269.5,235.5,261.5,243.0,253.5,251.0,245.5,258.5,238.0,265.5,229.5,273.5,222.0,281.5,214.0,289.0,206.0,296.0" stroke="black" stroke-width="2" fill="none" />
<polyline points="204.0,302.5,212.5,302.5,220.0,302.0,227.5,301.5,235.5,301.0,243.0,300.5,251.0,300.5,259.5,300.0,267.5,299.5,275.5,299.0,283.5,298.0,291.5,297.5,299.5,297.0,307.5,296.5,315.0,296.0,323.0,295.0" stroke="black" stroke-width="2" fill="none" />
<polyline points="299.0,235.0,307.0,234.5,315.5,234.0,323.5,233.0,331.0,232.5,339.0,232.0,346.5,231.5,354.5,230.5,362.5,229.5,371.0,229.0,379.0,228.5,387.5,228.0,395.0,227.5,403.0,227.0,411.5,226.5,420.0,226.0,428.0,225.0" stroke="black" stroke-width="2" fill="none" />
<polyline points="468.0,196.0,460.0,197.0,451.5,196.5,443.5,197.0,436.0,197.5,428.5,198.0,420.5,198.5,412.5,199.0,404.5,199.5,396.5,200.0,388.5,200.5,380.5,201.5,373.0,202.5,365.0,203.0,356.5,204.0,348.0,205.0,339.5,205.5,331.0,206.0,323.0,206.5,315.0,206.5,306.5,207.0" stroke="black" stroke-width="2" fill="none" />
<polyline points="269.0,229.5,260.5,237.0,252.5,244.5,244.0,252.0,235.5,259.0,227.5,266.5,220.0,273.5,212.0,281.5,204.5,289.0,197.5,297.0" stroke="black" stroke-width="2" fill="none" />
<polyline points="195.0,296.0,203.0,295.0,211.5,295.0,219.5,294.5,227.5,294.0,235.5,294.5,243.5,294.5,252.0,294.5,260.5,294.5,268.5,294.5,276.5,294.0,284.5,293.0,292.0,292.5,299.5,292.5,307.0,291.5,314.5,290.5,322.5,289.5" stroke="black" stroke-width="2" fill="none" />
<polyline points="259.0,229.5,251.5,236.5,243.5,244.0,235.5,251.5,227.5,258.5,220.0,266.0,211.5,273.5,203.5,281.0,195.5,288.5,187.0,295.5" stroke="black" stroke-width="2" fill="none" />
<polyline points="186.5,287.0,194.5,279.5,203.0,272.0,211.5,265.0,219.0,257.5,226.5,250.5,234.0,243.0,241.0,235.0,249.0,227.5" stroke="black" stroke-width="2" fill="none" />
<polyline points="242.5,227.5,234.5,234.5,226.5,242.0,219.0,249.0,211.5,256.5,203.5,264.0,195.5,271.0,187.0,278.5,178.5,286.0" stroke="black" stroke-width="2" fill="none" />
<polyline points="178.5,292.5,186.5,292.5,194.5,292.5,202.5,292.5,210.5,292.0,218.5,291.5,226.5,291.5,235.0,292.0,243.5,292.0,252.0,291.5,260.0,290.5,268.0,289.5,276.0,288.5,283.5,287.5,291.0,286.5,298.5,286.5,307.0,285.5,315.5,284.5,323.5,284.0,331.5,282.5,339.0,282.0" stroke="black" stroke-width="2" fill="none" />
<polyline points="236.5,227.0,228.5,234.5,220.0,241.5,212.0,249.0,204.0,256.5,195.5,264.0,187.5,271.5,179.0,278.5,171.0,286.0" stroke="black" stroke-width="2" fill="none" />
<polyline points="173.0,290.5,181.0,289.5,188.5,289.5,196.0,288.5,203.0,287.5,211.0,286.5,218.5,286.5,227.0,285.5,235.0,285.5,243.0,285.0,250.5,284.5,258.5,284.0,266.5,283.5,274.5,283.0,283.0,282.5,291.0,282.0,299.5,281.5,308.0,281.0,316.0,280.5,323.5,280.5,331.5,280.5,340.0,279.5,349.0,279.0" stroke="black" stroke-width="2" fill="none" />
<polyline points="306.0,300.5,297.5,301.5,290.0,301.5,282.5,302.0,275.0,302.5,268.0,303.5,260.0,304.5,252.5,305.0,244.5,305.0,236.5,306.0,228.5,307.5,220.5,308.0" stroke="black" stroke-width="2" fill="none" />
<polyline points="171.5,279.0,179.5,271.5,187.5,263.5,195.5,256.5,204.0,249.5,211.5,242.0,219.5,235.0,227.5,228.0" stroke="black" stroke-width="2" fill="none" />
<polyline points="219.0,226.0,211.0,234.0,203.5,241.0,195.0,248.5,187.0,256.0,179.0,263.5,171.0,271.5,162.5,279.0" stroke="black" stroke-width="2" fill="none" />
<polyline points="163.5,274.0,171.0,273.5,179.0,272.5,187.0,271.5,195.0,271.0,202.5,270.5,210.5,270.0,218.5,269.5,226.5,269.5,235.0,269.5,243.0,269.5,251.0,269.0,259.0,268.0,267.0,267.5,274.5,266.5,282.5,266.5,290.5,265.5,298.0,265.0,305.5,264.0,313.5,263.0,321.5,262.5,329.0,262.5,337.5,262.0,346.0,261.5,354.5,260.5,363.5,260.0,371.5,259.0,380.0,258.5,388.5,257.5" stroke="black" stroke-width="2" fill="none" />
<polyline points="220.5,220.5,212.5,228.0,204.5,235.5,196.0,242.5,188.0,250.0,180.0,257.5,171.5,265.0,163.0,272.0,154.5,279.0" stroke="black" stroke-width="2" fill="none" />
<polyline points="153.0,281.5,161.0,281.5,169.5,281.0,177.5,281.0,186.0,280.5,194.5,280.0,202.5,279.5,210.5,279.0,218.5,278.0,226.5,277.5,234.5,277.0,242.5,276.5,250.0,276.0,257.5,275.5,265.5,274.5,273.0,273.5,281.5,273.0,289.5,272.5,297.5,272.0,306.0,271.5,314.0,271.0,322.5,270.0,330.5,270.5,339.5,270.0,348.0,269.0,356.0,268.5,364.5,268.0,373.0,267.0" stroke="black" stroke-width="2" fill="none" />
<polyline points="212.0,220.0,204.0,227.5,196.5,235.5,189.0,243.0,180.5,250.0,172.5,257.5,163.5,265.5,155.0,273.0,146.5,280.5" stroke="black" stroke-width="2" fill="none" />
<polyline points="148.0,277.0,155.5,276.5,163.5,275.5,171.5,275.0,179.5,275.0,187.0,274.5,194.5,273.5,202.5,273.0,210.0,272.0,218.0,271.0,226.0,270.5,234.0,270.0,242.5,270.0,250.5,270.0,258.5,270.5,267.0,270.0,275.0,270.5,283.5,270.5,291.5,270.5,300.0,269.5,308.0,269.0,316.0,268.5,324.0,268.0,332.0,267.0,339.5,266.5,347.5,265.5,356.0,264.5,364.0,263.5,372.5,263.0,380.5,262.5" stroke="black" stroke-width="2" fill="none" />
<polyline points="204.0,217.5,196.0,226.0,188.0,234.0,179.5,241.5,171.5,249.0,163.5,256.5,155.0,264.0,146.5,271.5" stroke="black" stroke-width="2" fill="none" />
<polyline points="139.0,271.0,147.0,264.0,155.0,256.5,163.0,249.0,171.5,241.0,180.0,233.0,188.5,225.5,196.5,218.0" stroke="black" stroke-width="2" fill="none" />
<polyline points="195.5,211.5,187.5,218.5,180.0,225.5,172.0,232.5,163.5,239.5,155.0,247.0,147.0,255.0,139.0,263.0" stroke="black" stroke-width="2" fill="none" />
<polyline points="122.5,262.0,130.5,255.0,138.5,247.0,146.5,240.0,154.5,233.0,163.0,225.5,171.0,217.5,179.0,210.0" stroke="black" stroke-width="2" fill="none" />
<polyline points="181.0,204.0,173.0,211.5,164.5,219.5,156.0,227.0,148.0,234.0,140.0,241.0,132.0,248.0,123.5,255.0" stroke="black" stroke-width="2" fill="none" />
<polyline points="116.5,256.0,125.0,249.0,133.5,241.5,141.5,234.5,149.5,227.0,157.0,219.0,164.0,211.5,171.5,204.5" stroke="black" stroke-width="2" fill="none" />
<polyline points="164.5,204.0,156.5,212.0,149.0,219.5,141.5,227.0,133.5,235.0,126.0,242.5" stroke="black" stroke-width="2" fill="none" />
<polyline points="124.5,234.0,132.0,226.0,139.5,218.0,147.0,210.0,155.0,202.5,163.0,195.0" stroke="black" stroke-width="2" fill="none" />
<polyline points="154.5,193.5,146.0,201.0,137.5,208.5,129.5,216.0,122.0,223.5,114.5,231.0" stroke="black" stroke-width="2" fill="none" />
<polyline points="115.5,224.0,122.5,216.5,130.0,209.5,137.5,202.0,145.0,194.5,153.5,186.5" stroke="black" stroke-width="2" fill="none" />
<polyline points="146.0,187.0,138.5,194.0,130.5,202.5,123.5,210.0,116.0,217.0,108.0,224.5" stroke="black" stroke-width="2" fill="none" />
<polyline points="107.5,218.5,115.0,211.0,122.5,203.5,131.0,196.5,139.0,189.5" stroke="black" stroke-width="2" fill="none" />
<polyline points="140.0,181.0,132.0,188.5,124.0,196.0,116.0,203.0,107.5,210.5" stroke="black" stroke-width="2" fill="none" />
<polyline points="99.5,210.5,107.0,203.0,114.5,195.0,122.5,187.0,130.5,179.0" stroke="black" stroke-width="2" fill="none" />
<polyline points="131.0,170.0,122.5,177.5,114.0,185.0,106.0,192.5,98.0,200.5" stroke="black" stroke-width="2" fill="none" />
<polyline points="99.0,193.0,107.0,186.0,115.0,179.0,123.5,171.5" stroke="black" stroke-width="2" fill="none" />
<polyline points="123.5,165.0,115.5,172.5,108.0,179.5,100.0,186.5,92.0,194.0" stroke="black" stroke-width="2" fill="none" />
<polyline points="91.0,188.5,98.5,181.0,106.0,173.5,114.0,166.0" stroke="black" stroke-width="2" fill="none" />
<polyline points="113.5,157.0,105.5,164.5,98.0,171.5,90.0,178.0" stroke="black" stroke-width="2" fill="none" />
<polyline points="92.0,170.0,100.0,162.5,107.0,155.5,114.5,148.0" stroke="black" stroke-width="2" fill="none" />
<polyline points="108.0,148.5,100.0,155.0,92.5,162.0" stroke="black" stroke-width="2" fill="none" />
<polyline points="93.0,154.0,101.0,146.5,108.5,139.0" stroke="black" stroke-width="2" fill="none" />
<polyline points="102.0,138.5,93.5,146.0" stroke="black" stroke-width="2" fill="none" />
<polyline points="91.5,139.5,99.5,131.5" stroke="black" stroke-width="2" fill="none" />
<polyline points="99.5,124.5,91.5,132.0,83.5,139.0" stroke="black" stroke-width="2" fill="none" />
<polyline points="83.5,130.5,91.5,123.0,100.0,115.5" stroke="black" stroke-width="2" fill="none" />
<polyline points="91.0,119.0,83.0,119.5,75.0,120.5,67.0,121.0" stroke="black" stroke-width="2" fill="none" />
<polyline points="67.0,123.5,74.5,116.5,82.0,109.0,90.5,101.0" stroke="black" stroke-width="2" fill="none" />
<polyline points="91.5,103.5,83.5,104.5,75.5,105.5,67.5,106.5" stroke="black" stroke-width="2" fill="none" />
<polyline points="68.5,106.0,76.5,98.5,84.5,91.0,92.5,83.5" stroke="black" stroke-width="2" fill="none" />
<polyline points="91.0,75.5,83.5,83.0,75.0,90.5,67.0,98.0" stroke="black" stroke-width="2" fill="none" />
<polyline points="65.5,98.0,73.5,97.5,82.0,97.5" stroke="black" stroke-width="2" fill="none" />
<polyline points="92.0,107.5,83.5,115.0,75.0,123.5,67.0,131.0" stroke="black" stroke-width="2" fill="none" />
<polyline points="60.0,127.0,68.5,126.0,76.5,125.0,84.5,124.5,92.0,123.5,100.5,122.5,108.0,122.5" stroke="black" stroke-width="2" fill="none" />
<polyline points="116.0,131.0,108.5,132.0,100.5,132.5,92.5,133.5,84.5,134.0,76.5,134.5,68.5,135.0,60.0,135.5" stroke="black" stroke-width="2" fill="none" />
<polyline points="59.0,142.5,66.5,142.5,75.0,142.0,83.0,141.5,91.0,140.5,99.0,140.0,107.0,139.5,116.0,139.5" stroke="black" stroke-width="2" fill="none" />
<polyline points="101.0,116.5,92.5,116.5,84.0,117.0,75.5,117.5,67.0,117.5,59.0,118.0" stroke="black" stroke-width="2" fill="none" />
<polyline points="60.5,111.5,68.5,110.5,75.5,109.5,83.5,108.5,91.0,108.0,99.0,107.5" stroke="black" stroke-width="2" fill="none" />
<polyline points="93.0,106.5,101.0,121.5,108.5,131.0,117.0,139.0,125.0,147.0,132.5,154.0,141.0,161.5,149.0,168.5,157.5,174.0,165.5,179.0,174.0,183.0,182.0,187.0,190.0,191.0,197.5,195.5,205.5,199.0,213.5,201.0,221.5,203.5,229.0,205.5,237.0,206.5,244.5,207.5,252.5,208.5,260.5,208.5,268.5,208.5,276.5,207.0,284.5,207.0,292.5,205.0,300.5,204.0,308.5,203.0,316.5,201.0,324.0,198.5,332.0,195.5,340.5,192.5,348.5,188.5,356.5,184.5,365.0,180.5,373.0,175.0,381.5,169.5,390.0,164.0,398.0,158.5,405.5,154.0,413.5,150.0,421.5,146.5,429.5,142.5,438.0,137.5,446.0,134.0,453.5,131.0,461.5,128.0,469.5,132.0,477.5,138.0" stroke="black" stroke-width="2" fill="none" />
<polyline points="395.5,251.0,388.0,252.0,380.0,253.0,372.0,254.0,364.0,255.0,356.5,255.5,349.0,255.5,341.0,256.0,333.5,256.0,324.5,256.5,315.5,257.0,306.5,258.5,298.5,259.5,290.0,260.0,282.0,260.0,274.5,260.5,266.5,261.0,259.0,261.5,251.0,262.0,243.0,262.0,235.0,262.0,226.5,262.0,219.0,262.5,211.0,263.0,203.5,263.5,196.0,264.0,188.5,264.0,180.0,264.0" stroke="black" stroke-width="2" fill="none" />
<polyline points="171.5,258.5,179.5,258.0,187.5,257.5,195.5,256.5,203.0,256.0,210.5,255.0,218.0,254.0,226.0,253.0,234.0,251.5,242.5,250.5,251.0,250.0,258.5,249.0,266.5,248.5,274.5,248.5,283.0,249.0,292.0,249.0,300.5,249.0,308.5,249.5,317.0,249.0,324.0,248.5,332.5,248.0,340.5,248.0,349.0,247.5,357.5,247.0,365.5,247.0,374.0,246.5,381.5,245.5,389.0,245.0,396.5,244.0,404.0,243.5,412.0,242.5" stroke="black" stroke-width="2" fill="none" />
<polyline points="421.0,233.5,413.0,234.0,405.0,234.5,397.0,235.5,389.0,236.0,380.5,236.5,372.5,238.0,364.0,238.0,355.5,238.0,347.0,238.0,339.0,238.5,331.0,239.0,323.0,240.0,315.0,240.5,306.5,241.0,298.0,241.5,290.0,241.5,282.0,242.0,274.0,242.0,266.0,242.0,257.5,242.0,249.0,242.0,241.5,243.0,234.0,243.5,226.5,244.5,219.0,245.0,211.5,246.0,203.5,247.0,196.0,247.5,188.5,248.5,181.0,249.5,173.5,250.0" stroke="black" stroke-width="2" fill="none" />
<polyline points="155.5,240.5,163.5,240.0,171.0,239.5,179.0,239.5,187.0,239.5,194.5,239.5,202.5,238.5,210.0,237.5,218.0,237.0,226.0,237.5,234.0,237.5,242.0,236.5,250.5,236.0,258.5,235.0,267.0,234.5,275.5,234.0,283.0,233.5,290.5,234.0,298.5,234.5,307.0,234.0,315.0,233.5,323.0,232.5,330.5,231.5,339.0,231.0,347.5,230.5,355.5,230.5,364.0,229.5,372.5,228.5,381.0,227.5,389.0,226.5,397.5,226.0,405.5,225.5,413.5,225.0,421.5,225.0,429.5,225.0" stroke="black" stroke-width="2" fill="none" />
<polyline points="362.5,271.0,354.0,271.5,345.5,272.0,337.5,272.5,330.0,273.0,322.5,273.5,314.0,274.0,306.0,275.0,298.0,276.0,290.0,277.5,282.0,278.0,274.5,278.5,266.5,278.5,258.5,279.0,250.5,278.5,243.0,279.0,235.0,280.0,227.0,281.0,219.5,282.0,212.0,282.5,204.0,283.0,196.5,283.5,189.0,284.0,181.5,284.0,174.0,284.5,166.0,285.0" stroke="black" stroke-width="2" fill="none" />
<polyline points="115.5,261.0,123.5,260.0,131.5,259.5,140.0,259.5,148.0,259.0,155.5,259.0,163.5,259.0,171.0,259.0,179.0,258.5,186.5,258.0,194.0,257.5,202.0,257.0,210.5,256.5,218.5,256.0,226.0,256.0,234.0,255.0,242.0,254.5,250.0,254.0,258.0,254.0,265.5,253.5,273.5,253.0,281.5,252.5,290.0,251.5,298.0,250.0,306.0,249.5,314.0,249.0,322.0,248.5,330.0,248.0,338.0,247.5,346.0,247.0,353.5,246.0,362.0,245.5,370.5,245.5,378.5,245.0,387.0,244.0,395.5,243.5,404.0,243.0,412.5,243.0" stroke="black" stroke-width="2" fill="none" />
<polyline points="242.5,225.5,234.5,226.0,227.0,226.5,219.0,227.0,210.5,227.5,202.5,228.0,194.5,229.0,186.5,230.0,179.0,230.5,171.0,231.0,163.5,231.5,156.0,232.0,148.5,232.5,140.5,233.0" stroke="black" stroke-width="2" fill="none" />
<polyline points="139.0,226.0,147.0,226.0,155.0,226.0,163.0,225.5,171.5,225.0,179.5,224.0,188.0,223.5,196.0,223.0,204.0,222.5" stroke="black" stroke-width="2" fill="none" />
<polyline points="179.0,216.0,171.0,216.5,163.0,217.5,155.5,218.0,148.0,218.5,140.0,218.0,132.0,218.5" stroke="black" stroke-width="2" fill="none" />
<polyline points="124.5,209.5,132.5,209.0,140.5,208.5,148.5,208.5,156.0,208.5,164.0,208.5,172.0,208.5" stroke="black" stroke-width="2" fill="none" />
<polyline points="147.0,199.5,139.5,199.5,132.0,200.0,123.5,200.5,115.0,201.0" stroke="black" stroke-width="2" fill="none" />
<polyline points="115.5,194.0,123.5,193.5,131.5,193.0" stroke="black" stroke-width="2" fill="none" />
<polyline points="91.0,237.0,99.0,237.0,107.0,236.5,115.5,236.5,124.0,236.0,132.0,235.0,140.0,234.0,147.5,233.0,155.0,232.5,163.0,231.5,171.5,231.0,179.0,230.0,187.0,230.0,195.0,229.5,203.0,229.0,210.5,228.5,219.0,228.0,227.5,228.5,236.0,228.5,244.0,228.0,251.5,227.5,259.5,227.5,268.0,227.0,276.0,226.5,283.5,226.0,291.0,225.0,299.0,225.0,307.0,224.5,315.0,224.5,323.0,225.0,331.0,224.5,339.5,223.5,347.5,223.0,355.5,222.5,363.5,221.5,372.0,221.0,379.5,220.5,387.5,220.0,395.5,219.5,403.0,218.5,410.5,218.0,419.0,217.0,427.5,216.5,436.0,215.5,444.5,215.0" stroke="black" stroke-width="2" fill="none" />
<polyline points="422.0,235.0,414.0,236.0,406.0,236.5,397.5,236.5,390.0,236.5,381.5,237.5,373.5,238.0,365.5,238.0,357.5,238.5,349.5,239.0,341.5,239.5,333.5,239.5,325.0,240.0,316.0,240.0,308.0,240.5,300.0,241.0,292.5,241.0,285.0,242.0,277.0,242.5,268.5,243.0,261.0,244.0,253.0,244.5,245.5,245.0,237.5,245.5,229.0,246.0,221.0,246.0,213.0,246.5,204.5,246.5,196.0,247.0,188.0,247.0,179.5,248.0,172.0,249.0,164.5,249.5,156.5,250.0,148.5,251.0,140.5,251.5,132.0,252.5,123.5,253.5,115.0,254.0,106.5,254.0" stroke="black" stroke-width="2" fill="none" />
<polyline points="100.5,245.0,108.0,244.5,115.5,243.0,123.0,242.5,130.5,242.5,138.5,242.0,146.5,241.5,154.5,241.0,162.5,240.5,170.5,240.0,178.0,240.0,186.0,239.5,194.5,238.5,203.5,237.5,212.0,237.0,221.0,236.5,229.0,236.0,237.0,235.5,245.0,235.0,253.5,235.0,262.0,234.5,269.5,234.0,277.5,234.0,285.0,233.5,292.5,233.0,300.0,232.5,308.0,233.0,316.5,232.5,324.5,232.5,333.0,232.5,341.0,232.5,348.5,232.0,356.5,231.5,364.0,231.0,371.5,230.0,379.5,229.5,388.0,228.5,396.0,228.5,404.5,228.0,413.5,228.0,422.0,227.5,429.5,227.0" stroke="black" stroke-width="2" fill="none" />
<polyline points="444.0,208.0,436.0,208.0,427.0,208.0,418.5,208.5,410.0,209.0,402.0,209.0,393.5,210.0,386.5,210.0,378.5,210.5,371.0,211.0,363.5,212.0,355.0,212.5,346.5,213.5,338.0,214.0,329.0,214.0,321.0,214.5,313.0,215.0,305.0,216.0,297.5,216.5,290.0,216.5,283.0,217.0,275.0,217.5,267.5,218.0,259.5,219.0,251.5,220.0,243.5,220.5,235.5,220.5,227.5,220.5,219.5,220.5,211.5,220.5,203.5,220.5,196.0,221.0,188.0,222.5,180.0,223.0,172.0,223.5,164.0,224.0,156.0,225.0,148.0,225.5,140.0,226.0,132.0,227.0,124.0,228.0,116.0,228.0,107.5,229.0,99.5,230.5,91.0,231.5,83.0,232.5" stroke="black" stroke-width="2" fill="none" />
<polyline points="74.0,222.5,81.5,222.0,89.5,221.0,98.0,219.5,106.5,218.5,114.5,217.5,123.0,217.0,131.5,216.5,140.0,216.0,148.5,216.0,157.0,215.5,165.0,215.0,172.5,214.5,180.5,214.0,188.5,213.5,197.0,212.5,204.5,212.5,212.0,212.0,219.5,211.5,227.0,210.5,235.0,210.0,243.0,209.5,251.0,209.0,259.0,208.5,267.5,208.0,275.5,207.5,284.0,207.0,292.0,207.5,300.5,207.0,308.5,206.0,316.5,206.0,324.5,205.5,332.0,204.5,340.0,204.0,348.0,203.5,355.5,203.0,363.5,202.5,371.0,201.5,379.0,201.0,387.5,201.0,396.0,201.0,404.0,200.5,412.0,200.0,420.0,199.5,427.5,199.0,435.5,198.5,443.5,198.0,451.5,197.5" stroke="black" stroke-width="2" fill="none" />
<polyline points="457.5,189.5,449.5,189.5,442.0,189.5,434.5,190.0,426.5,190.5,418.0,190.5,410.5,191.0,402.5,191.5,395.0,192.5,387.5,192.5,379.5,193.0,371.5,193.5,363.5,194.0,355.5,194.5,347.5,194.5,339.5,195.5,332.0,196.5,323.5,197.0,315.5,198.0,307.5,199.0,299.5,199.0,291.0,199.0,283.0,200.0,275.5,201.0,267.5,202.0,259.5,202.5,251.0,203.0,243.0,203.5,235.5,203.0,228.0,203.5,219.5,204.0,211.5,205.0,203.5,206.0,195.5,207.0,187.5,207.5,180.0,207.5,172.0,207.0,164.5,207.0,157.0,208.0,149.0,209.0,141.0,209.0,132.5,208.5,124.0,209.0,116.0,209.0,108.0,210.0,99.0,210.5,90.0,211.5,81.5,212.5,74.0,212.5,66.0,213.0" stroke="black" stroke-width="2" fill="none" />
<polyline points="65.5,205.0,73.5,205.0,81.5,204.5,90.0,204.5,98.5,204.0,107.0,203.5,115.5,203.5,124.0,203.0,132.5,202.5,141.0,202.5,149.0,202.5,157.0,201.5,164.5,200.5,172.0,200.0,180.0,199.5,187.5,199.0,195.0,198.5,202.5,198.0,210.5,198.0,218.0,198.0,226.5,197.0" stroke="black" stroke-width="2" fill="none" />
<polyline points="204.5,189.5,196.0,189.5,187.5,189.5,179.5,189.5,171.5,189.0,163.5,189.5,155.5,190.0,147.0,190.0,139.0,191.0,131.0,191.5,122.5,192.0,113.5,192.5,105.0,193.5,97.0,194.5,89.0,195.0,81.5,195.5,74.0,196.5,66.0,197.0,58.0,198.0" stroke="black" stroke-width="2" fill="none" />
<polyline points="58.0,188.0,66.0,187.5,74.5,187.0,82.5,186.5,90.5,186.0,98.0,186.0,107.0,185.0,115.5,184.5,123.5,184.0,131.0,184.0,138.5,183.5,146.5,183.5,154.5,183.5,162.5,183.5,170.5,183.0,178.5,182.5,186.5,182.5" stroke="black" stroke-width="2" fill="none" />
<polyline points="171.0,174.0,163.5,174.5,156.0,175.0,148.5,175.0,140.0,175.0,132.0,176.0,124.0,176.5,116.0,177.0,108.0,177.5,100.0,178.0,91.5,178.5,83.5,179.0,75.5,180.0,67.0,181.5,59.0,182.5" stroke="black" stroke-width="2" fill="none" />
<polyline points="52.5,187.0,60.5,207.0,68.0,220.0,76.0,230.0,84.0,239.5,92.0,247.5,99.5,254.5,108.0,261.0,116.0,266.0,123.5,271.5,131.5,275.5,139.5,280.5,148.0,285.0,156.5,288.5,165.0,291.0,172.5,294.0,180.5,297.0,188.5,299.0,196.5,302.0,204.0,303.5,212.5,308.5,220.5,310.5,228.5,310.5,237.0,311.5,245.0,312.0,253.0,312.0,261.0,312.0,269.0,312.0,277.0,312.0,285.0,312.0,293.0,311.0,301.0,309.5,309.0,308.5,316.5,306.5,317.5,302.5,325.5,301.0,333.5,298.0,342.0,296.0,350.0,293.0,358.5,290.5,366.5,287.5,374.0,284.5,382.0,280.5,390.0,275.5,398.5,271.5,406.5,266.5,414.5,261.5,422.5,256.0,430.5,249.0,439.0,242.0,446.5,234.0,454.5,225.0,462.0,214.0,470.0,199.0,478.0,177.5" stroke="black" stroke-width="2" fill="none" />
<polyline points="155.0,168.5,147.0,169.0,139.0,169.0,131.0,169.0,123.5,170.0,116.0,171.0,108.0,171.5,100.5,172.0,93.0,172.0,85.5,172.0,77.0,171.5,69.0,171.5,61.5,172.0,53.5,172.5" stroke="black" stroke-width="2" fill="none" />
<polyline points="53.0,165.0,61.0,164.5,69.0,165.0,77.0,164.5,85.5,164.0,93.0,163.5,100.5,163.0,108.0,162.5,116.0,162.0,123.5,161.5,131.5,161.0,139.5,161.0,147.5,160.5" stroke="black" stroke-width="2" fill="none" />
<polyline points="140.0,153.0,132.0,153.5,124.0,154.0,115.5,154.5,107.0,155.0,99.0,154.5,90.5,154.5,83.0,154.5,75.0,154.5,67.5,154.5,59.5,154.5,52.0,155.0" stroke="black" stroke-width="2" fill="none" />
<polyline points="51.5,148.5,59.5,148.0,67.0,148.0,75.0,148.0,83.0,147.5,91.0,147.0,99.5,147.0,107.5,146.5,116.0,145.5,124.5,145.0" stroke="black" stroke-width="2" fill="none" />
<polyline points="93.5,123.5,101.0,135.5,109.0,146.0,117.0,156.0,124.5,165.5,132.5,173.0,140.5,181.0,148.5,188.5,157.0,195.0,165.5,200.5,173.5,205.5,181.5,208.5,189.5,213.0,197.0,216.5,204.5,219.5,212.5,222.0,221.0,224.0,229.0,225.5,237.5,226.0,245.5,227.0,253.5,228.0,261.5,228.0,269.5,228.0,277.0,228.0,284.5,228.0,292.5,227.5,300.5,226.5,308.5,225.5,316.5,224.0,325.0,222.0,333.0,220.0,341.0,217.0,349.5,213.5,357.5,209.5,365.5,206.5,374.0,201.0,382.0,196.5,390.0,191.5,398.0,186.5,406.0,182.0,414.5,177.0,422.5,171.5,430.5,165.5,438.5,159.5,446.0,151.5,454.0,143.0,461.5,135.0,475.0,137.0,481.0,144.5,481.5,151.5,480.5,159.0,480.0,167.5,477.0,176.0,475.0,184.0,472.5,192.0,468.5,200.0,464.0,208.5,459.0,216.5,453.5,224.0,446.5,232.0,438.5,239.5,429.0,247.5,418.5,256.0,406.5,264.0,393.5,272.5,378.0,280.5,360.5,288.5,337.5,296.5" stroke="black" stroke-width="2" fill="none" />
<polyline points="91.0,101.0,83.5,101.5,75.5,101.5,68.0,101.5,60.5,102.0" stroke="black" stroke-width="2" fill="none" />
<polyline points="62.0,93.0,69.5,93.0,77.0,92.5,84.5,92.0,92.0,91.5" stroke="black" stroke-width="2" fill="none" />
<polyline points="83.5,69.0,75.5,76.5,67.5,84.0,59.5,91.5" stroke="black" stroke-width="2" fill="none" />
<polyline points="61.0,86.0,68.5,85.5,76.0,85.0,83.5,84.5,92.0,83.5" stroke="black" stroke-width="2" fill="none" />
<polyline points="76.5,69.0,68.5,76.0,60.0,83.5" stroke="black" stroke-width="2" fill="none" />
<polyline points="52.0,78.5,60.0,78.0,68.0,77.5,76.0,77.0,84.0,76.5,92.5,75.5" stroke="black" stroke-width="2" fill="none" />
<polyline points="67.0,60.5,58.5,68.0,50.5,75.5" stroke="black" stroke-width="2" fill="none" />
<polyline points="48.5,76.5,56.5,85.5" stroke="black" stroke-width="2" fill="none" />
<polyline points="50.5,72.5,59.0,72.0,67.0,71.5,75.0,71.0,82.5,70.5" stroke="black" stroke-width="2" fill="none" />
<polyline points="90.5,68.5,82.5,68.5,74.5,68.5,66.5,68.5,58.0,68.5,50.0,68.5" stroke="black" stroke-width="2" fill="none" />
<polyline points="53.0,62.0,61.0,61.5,69.5,61.5,78.0,61.0,85.5,60.0" stroke="black" stroke-width="2" fill="none" />
<polyline points="75.0,52.0,67.5,52.5,60.0,53.5,52.5,54.0,44.0,55.0" stroke="black" stroke-width="2" fill="none" />
<polyline points="49.5,49.0,57.0,41.0" stroke="black" stroke-width="2" fill="none" />
<polyline points="60.5,40.5,69.5,44.5,70.0,52.5,76.0,53.5,80.5,61.5,87.5,69.5,88.0,77.5,88.0,85.5,89.5,93.5,91.0,101.5,94.0,110.0,97.0,117.5,103.5,125.5,111.0,134.0,119.0,142.0,127.5,150.0,135.5,158.5,145.5,166.5,155.5,175.0,168.5,182.5,184.5,190.5,204.5,199.0" stroke="black" stroke-width="2" fill="none" />
<polyline points="59.0,59.0,50.5,60.0" stroke="black" stroke-width="2" fill="none" />
<polyline points="50.5,35.0,59.0,34.5" stroke="black" stroke-width="2" fill="none" />
<polyline points="62.5,29.5,64.5,37.5,65.5,46.0,66.5,54.5" stroke="black" stroke-width="2" fill="none" />
<polyline points="69.5,43.5,77.5,56.5,85.5,64.5" stroke="black" stroke-width="2" fill="none" />
<polyline points="67.0,35.5,59.0,35.5,50.5,35.5,43.0,35.5" stroke="black" stroke-width="2" fill="none" />
<polyline points="39.5,32.5,47.5,28.5,55.5,23.0,52.5,24.5,39.0,32.5,40.0,40.5,41.0,49.0,44.0,57.0,47.5,65.5,47.5,73.5,53.5,82.0,58.0,89.5,59.0,97.0,60.0,105.0,60.5,112.5,59.5,120.5,57.5,128.5,55.5,136.0,52.5,144.0,50.5,152.0,49.5,160.0,49.5,168.0,50.5,176.0,51.5,183.5,53.5,191.5,56.0,199.0,60.0,207.5,64.0,216.0,70.0,224.0,76.0,232.5,84.0,241.0,92.0,249.0,102.0,256.5,113.0,264.0,125.0,272.0,139.0,280.0,154.0,288.0,175.0,296.5" stroke="black" stroke-width="2" fill="none" />
<polyline points="61.0,56.0,61.5,50.5,58.5,43.0,59.5,35.0,61.0,26.5,53.0,31.5" stroke="black" stroke-width="2" fill="none" />
<polyline points="55.5,28.0,55.5,36.0,61.0,44.5,60.5,52.5,75.5,62.0,78.5,65.5" stroke="black" stroke-width="2" fill="none" />
<polyline points="58.0,27.5,50.5,28.5,43.0,29.5" stroke="black" stroke-width="2" fill="none" />
</svg>
